{"glyphs":{"0":{"ha":819,"x_min":56,"x_max":764,"o":"m 149 114 q 102 178 149 114 q 56 458 56 242 q 149 803 56 675 q 413 931 243 931 q 673 803 582 931 q 764 458 764 676 q 673 113 764 240 q 413 -14 582 -14 q 149 114 243 -14 m 185 446 q 257 142 194 249 q 438 42 319 36 q 639 471 660 53 q 567 774 629 668 q 388 875 506 881 q 185 446 164 863 m 372 419 q 364 427 372 419 q 356 458 356 435 q 372 498 356 482 q 413 514 388 514 q 451 497 435 514 q 467 458 467 481 q 451 419 467 436 q 413 403 435 403 q 372 419 389 403 z "},"1":{"ha":542,"x_min":56,"x_max":486,"o":"m 56 0 l 56 28 q 177 53 146 28 q 208 133 208 79 l 208 694 l 56 694 l 56 750 q 210 781 169 750 q 278 917 251 813 l 333 917 l 333 133 q 365 53 333 79 q 486 28 396 28 l 486 0 l 56 0 z "},"2":{"ha":763,"x_min":56,"x_max":707,"o":"m 563 83 q 644 113 617 83 q 679 224 672 142 l 707 222 l 693 56 l 689 0 l 56 0 q 68 142 56 82 q 99 240 81 201 q 158 313 118 279 q 234 365 199 346 q 338 414 269 383 q 433 460 397 440 q 507 510 468 479 q 564 583 546 542 q 582 676 582 624 q 401 875 582 875 q 349 870 375 875 q 290 851 324 865 q 238 810 256 836 q 209 740 219 783 q 218 635 199 697 l 93 607 q 87 722 82 672 q 117 808 92 772 q 174 867 142 843 q 249 905 206 890 q 332 925 292 919 q 414 931 372 931 q 623 869 539 931 q 707 681 707 808 q 690 583 707 626 q 652 511 674 539 q 589 456 631 483 q 519 416 547 429 q 437 381 490 403 q 360 347 383 358 q 188 237 232 288 q 144 83 144 186 l 563 83 z "},"3":{"ha":749,"x_min":44,"x_max":693,"o":"m 504 486 q 693 244 693 425 q 604 53 693 119 q 375 -14 515 -14 q 249 3 310 -14 q 138 55 189 19 q 65 153 86 90 q 65 300 44 217 l 190 272 q 204 100 150 158 q 358 42 258 42 q 514 97 460 42 q 568 243 568 153 q 498 409 568 360 q 282 458 428 458 l 282 514 q 490 560 425 514 q 554 708 554 606 q 506 833 554 790 q 369 875 458 875 q 216 815 268 875 q 204 635 164 754 l 79 607 q 79 759 58 693 q 151 860 100 825 q 260 913 201 896 q 382 931 318 931 q 593 870 507 931 q 679 693 679 810 q 504 486 679 539 z "},"4":{"ha":846,"x_min":56,"x_max":790,"o":"m 790 181 l 671 181 l 671 133 q 685 53 671 79 q 740 28 699 28 l 740 0 l 476 0 l 476 28 q 532 53 518 28 q 546 133 546 79 l 546 181 l 56 181 l 56 264 q 194 370 124 307 q 337 516 265 433 q 465 704 408 599 q 546 917 521 810 l 671 917 l 671 264 l 790 264 l 790 181 m 129 264 l 546 264 l 546 767 q 376 476 497 614 q 129 264 256 338 z "},"5":{"ha":806,"x_min":49,"x_max":750,"o":"m 457 624 q 558 610 510 624 q 651 565 606 596 q 723 474 696 535 q 750 329 750 413 q 638 76 750 167 q 372 -14 525 -14 q 241 2 301 -14 q 131 56 181 18 q 65 153 81 93 q 67 300 49 213 l 192 272 q 206 100 150 158 q 371 42 261 42 q 558 120 490 42 q 625 333 625 199 q 575 506 625 444 q 425 568 525 568 q 165 431 274 568 l 103 417 l 150 917 l 693 917 l 697 861 l 711 694 l 683 693 q 649 804 676 775 q 567 833 621 833 l 194 833 l 165 500 q 457 624 279 624 z "},"6":{"ha":819,"x_min":56,"x_max":764,"o":"m 181 451 q 350 546 250 517 q 542 563 450 575 q 699 475 633 550 q 764 274 764 400 q 746 174 764 222 q 690 82 728 125 q 583 13 651 39 q 424 -14 514 -14 q 271 12 336 -14 q 165 80 206 38 q 99 184 125 122 q 65 311 74 246 q 56 454 56 376 q 75 626 56 546 q 136 778 94 707 q 254 890 178 849 q 435 931 331 931 q 662 849 585 931 q 728 664 739 767 l 603 692 q 432 875 622 875 q 240 773 299 875 q 181 478 181 671 l 181 451 m 421 42 q 585 110 532 42 q 639 272 639 178 q 575 456 639 393 q 404 503 511 518 q 182 397 297 489 q 197 261 185 319 q 233 150 208 203 q 306 69 258 97 q 421 42 353 42 z "},"7":{"ha":794,"x_min":56,"x_max":739,"o":"m 74 917 l 739 917 l 739 847 q 458 458 531 651 q 385 0 385 264 l 260 0 q 344 445 260 242 q 643 833 429 649 l 200 833 q 118 806 146 833 q 83 700 90 778 l 56 701 l 69 860 l 74 917 z "},"8":{"ha":829,"x_min":56,"x_max":774,"o":"m 544 500 q 714 390 654 451 q 774 244 774 329 q 742 119 774 172 q 657 39 711 67 q 543 -1 603 11 q 415 -14 483 -14 q 158 45 261 -14 q 56 215 56 104 q 288 472 56 386 q 147 569 196 515 q 97 701 97 622 q 195 875 97 819 q 429 931 293 931 q 644 875 556 931 q 732 721 732 819 q 674 584 732 640 q 544 500 617 528 m 222 739 q 272 628 222 671 q 411 553 322 585 q 486 525 483 526 q 635 717 635 596 q 582 831 635 788 q 424 875 529 875 q 275 838 328 875 q 222 739 222 800 m 408 42 q 584 86 519 42 q 649 218 649 131 q 411 425 649 344 l 342 450 q 197 355 242 404 q 153 233 153 306 q 222 94 153 147 q 408 42 290 42 z "},"9":{"ha":819,"x_min":56,"x_max":764,"o":"m 396 931 q 549 905 483 931 q 654 837 614 879 q 720 733 694 794 q 755 606 746 671 q 764 463 764 540 q 744 290 764 371 q 683 139 725 210 q 565 27 642 68 q 385 -14 489 -14 q 158 68 235 -14 q 92 253 81 150 l 217 225 q 388 42 197 42 q 580 144 521 42 q 639 439 639 246 l 639 465 q 469 371 569 400 q 278 354 369 342 q 121 442 186 367 q 56 643 56 517 q 74 743 56 694 q 130 835 92 792 q 237 904 168 878 q 396 931 306 931 m 181 644 q 244 461 181 524 q 415 413 308 399 q 638 519 522 428 q 623 656 635 597 q 586 767 611 714 q 514 847 561 819 q 399 875 467 875 q 234 807 288 875 q 181 644 181 739 z "}," ":{"ha":333,"x_min":0,"x_max":0,"o":""},"!":{"ha":292,"x_min":56,"x_max":236,"o":"m 118 306 q 104 608 118 447 q 90 811 90 769 q 91 854 90 840 q 94 886 92 868 q 102 912 96 904 q 119 925 108 919 q 146 931 129 931 q 192 905 183 931 q 201 811 201 879 q 188 608 201 769 q 174 306 174 447 l 118 306 m 211 13 q 199 -1 211 13 q 146 -14 186 -14 q 81 13 106 -14 q 56 78 56 39 q 81 140 56 114 q 146 167 106 167 q 210 140 185 167 q 236 78 236 114 q 211 13 236 39 z "},"\"":{"ha":431,"x_min":56,"x_max":375,"o":"m 97 663 q 74 828 93 743 q 56 940 56 914 q 118 1014 56 1014 q 181 940 181 1014 q 162 828 181 914 q 139 663 143 743 l 97 663 m 292 663 q 269 828 288 743 q 250 940 250 914 q 313 1014 250 1014 q 375 940 375 1014 q 356 828 375 914 q 333 663 338 743 l 292 663 z "},"#":{"ha":1086,"x_min":56,"x_max":1031,"o":"m 1031 639 l 800 639 l 693 278 l 914 278 l 914 222 l 678 222 l 588 -83 l 528 -83 l 618 222 l 331 222 l 240 -83 l 181 -83 l 271 222 l 56 222 l 56 278 l 286 278 l 393 639 l 172 639 l 172 694 l 408 694 l 499 1000 l 558 1000 l 468 694 l 756 694 l 846 1000 l 906 1000 l 815 694 l 1031 694 l 1031 639 m 633 278 l 740 639 l 453 639 l 346 278 l 633 278 z "},"$":{"ha":721,"x_min":46,"x_max":665,"o":"m 665 290 q 599 144 665 194 q 426 85 533 94 l 440 -108 l 385 -111 l 371 83 q 264 92 313 83 q 169 122 215 101 q 97 175 122 142 q 58 259 71 208 q 65 379 46 310 l 190 351 q 368 139 128 144 l 349 406 q 252 433 283 424 q 178 460 221 442 q 116 497 135 478 q 83 544 97 515 q 69 613 69 574 q 322 804 69 792 l 308 997 l 363 1001 l 376 806 q 486 790 436 803 q 578 747 536 776 q 632 674 619 718 q 628 565 644 629 l 503 593 q 495 706 536 669 q 381 749 454 743 l 397 514 q 507 481 467 496 q 588 441 547 467 q 647 378 629 415 q 665 290 665 342 m 194 649 q 201 601 194 619 q 232 569 208 583 q 274 549 256 556 q 340 529 292 543 l 325 749 q 226 716 258 744 q 194 649 194 688 m 422 142 q 510 183 479 151 q 540 261 540 215 q 510 342 540 318 q 406 389 479 365 l 422 142 z "},"%":{"ha":1217,"x_min":56,"x_max":1161,"o":"m 356 918 q 442 908 408 904 q 506 927 475 913 q 558 963 536 942 q 608 1000 579 983 q 667 1027 638 1017 q 745 1032 697 1038 q 853 1000 793 1026 l 424 -83 l 364 -83 l 793 1000 q 717 971 756 1000 q 649 913 679 942 q 560 868 619 883 q 422 881 501 853 q 506 682 506 810 q 447 508 506 582 q 279 433 388 433 q 113 508 171 433 q 56 682 56 582 q 113 856 56 782 q 279 931 171 931 q 356 918 322 931 m 281 489 q 328 501 308 489 q 358 528 347 513 q 374 572 368 543 q 380 624 379 601 q 381 682 381 646 q 380 740 381 719 q 374 791 379 761 q 358 836 368 821 q 329 863 349 851 q 281 875 310 875 q 232 863 251 875 q 203 836 213 851 q 188 791 193 821 q 181 740 182 761 q 181 682 181 719 q 181 624 181 644 q 188 573 182 603 q 203 528 193 543 q 232 501 213 513 q 281 489 251 489 m 769 409 q 798 446 769 409 q 935 483 826 483 q 1102 409 1043 483 q 1161 235 1161 335 q 1102 60 1161 135 q 935 -14 1043 -14 q 769 60 826 -14 q 711 235 711 135 q 769 409 711 335 m 936 42 q 983 53 964 42 q 1013 81 1003 65 q 1029 125 1024 96 q 1035 176 1035 154 q 1036 235 1036 199 q 1035 293 1036 272 q 1029 344 1035 314 q 1014 389 1024 374 q 985 416 1004 404 q 936 428 965 428 q 888 416 907 428 q 858 389 868 404 q 843 344 849 374 q 837 293 838 314 q 836 235 836 272 q 837 176 836 197 q 843 126 838 156 q 858 81 849 96 q 888 53 868 65 q 936 42 907 42 z "},"&":{"ha":1006,"x_min":56,"x_max":950,"o":"m 950 560 q 912 470 950 507 q 822 416 874 433 q 696 385 771 399 q 771 229 771 324 q 679 50 771 114 q 438 -14 588 -14 q 160 65 265 -14 q 56 279 56 144 q 269 539 56 465 q 125 725 125 586 q 207 876 125 822 q 408 931 289 931 q 524 915 471 931 q 618 865 576 899 q 669 776 660 831 q 656 644 679 722 l 531 672 q 542 824 578 774 q 421 875 507 875 q 296 834 342 875 q 250 722 250 793 q 467 583 250 567 l 467 528 q 254 449 328 506 q 181 288 181 392 q 250 112 181 182 q 454 42 319 42 q 642 94 569 42 q 715 239 715 147 q 692 324 715 288 q 640 375 669 361 q 593 368 625 372 q 506 355 535 360 q 440 340 478 350 q 387 315 403 329 q 371 282 371 301 q 387 247 371 261 q 426 233 403 233 q 462 249 451 233 q 457 292 472 265 l 582 319 q 555 217 596 257 q 442 178 514 178 q 349 213 382 178 q 315 292 315 247 q 375 400 315 358 q 519 458 435 442 q 690 485 604 474 q 835 515 775 496 q 894 569 894 535 q 878 604 894 590 q 839 618 863 618 q 803 602 814 618 q 808 560 793 586 l 683 532 q 710 634 669 594 q 824 674 751 674 q 917 639 883 674 q 950 560 950 604 z "},"'":{"ha":236,"x_min":56,"x_max":181,"o":"m 97 663 q 74 828 93 743 q 56 940 56 914 q 118 1014 56 1014 q 181 940 181 1014 q 162 828 181 914 q 139 663 143 743 l 97 663 z "},"(":{"ha":469,"x_min":56,"x_max":414,"o":"m 56 417 q 142 758 56 624 q 386 1000 228 893 l 414 965 q 181 417 181 739 q 246 113 181 260 q 414 -132 311 -33 l 386 -167 q 56 417 56 57 z "},")":{"ha":469,"x_min":56,"x_max":414,"o":"m 414 417 q 83 -167 414 57 l 56 -132 q 224 113 158 -33 q 289 417 289 260 q 56 965 289 739 l 83 1000 q 328 758 242 893 q 414 417 414 624 z "},"*":{"ha":544,"x_min":53,"x_max":492,"o":"m 465 726 q 487 696 482 717 q 481 654 492 675 q 447 626 468 632 q 410 631 425 619 q 378 661 394 639 q 338 712 363 683 q 279 761 314 740 q 305 654 282 708 q 328 583 328 600 q 312 549 328 564 q 272 533 296 533 q 232 549 247 533 q 217 583 217 564 q 240 655 217 600 q 265 763 263 710 q 206 713 231 742 q 166 661 182 683 q 135 631 150 639 q 98 627 119 621 q 64 653 76 633 q 58 697 53 676 q 79 726 63 717 q 152 741 93 733 q 258 774 211 749 q 152 806 211 799 q 79 821 93 814 q 58 851 63 831 q 64 894 53 871 q 98 920 76 914 q 135 917 119 926 q 166 886 150 908 q 206 835 182 864 q 265 785 231 806 q 240 892 263 838 q 217 964 217 947 q 232 999 217 983 q 272 1014 247 1014 q 312 999 296 1014 q 328 964 328 983 q 305 893 328 947 q 279 786 282 839 q 338 835 314 807 q 378 886 363 864 q 410 917 394 908 q 447 922 425 928 q 481 893 468 915 q 487 851 492 872 q 465 821 482 831 q 392 806 451 814 q 285 774 332 799 q 392 741 332 749 q 465 726 451 733 z "},"+":{"ha":633,"x_min":56,"x_max":578,"o":"m 439 389 l 578 389 l 578 306 l 439 306 q 347 317 407 306 q 358 225 358 257 l 358 86 l 275 86 l 275 225 q 286 317 275 257 q 194 306 226 306 l 56 306 l 56 389 l 194 389 q 286 378 226 389 q 275 469 275 438 l 275 608 l 358 608 l 358 469 q 347 378 358 438 q 439 389 407 389 z "},",":{"ha":299,"x_min":56,"x_max":243,"o":"m 56 -157 q 181 0 181 -97 q 139 -14 165 -14 q 78 13 100 -14 q 56 78 56 39 q 81 140 56 114 q 146 167 106 167 q 216 134 189 167 q 243 39 243 101 q 194 -97 243 -33 q 63 -185 144 -160 l 56 -157 z "},"-":{"ha":578,"x_min":56,"x_max":522,"o":"m 111 389 l 522 389 q 520 347 522 361 q 506 319 518 333 q 467 306 493 306 l 56 306 q 58 347 56 333 q 72 375 60 361 q 111 389 85 389 z "},".":{"ha":292,"x_min":56,"x_max":236,"o":"m 211 13 q 199 -1 211 13 q 146 -14 186 -14 q 81 13 106 -14 q 56 78 56 39 q 81 140 56 114 q 146 167 106 167 q 210 140 185 167 q 236 78 236 114 q 211 13 236 39 z "},"/":{"ha":600,"x_min":56,"x_max":544,"o":"m 544 1000 l 115 -83 l 56 -83 l 485 1000 l 544 1000 z "},":":{"ha":292,"x_min":56,"x_max":236,"o":"m 211 513 q 199 499 211 513 q 146 486 186 486 q 81 513 106 486 q 56 578 56 539 q 81 640 56 614 q 146 667 106 667 q 210 640 185 667 q 236 578 236 614 q 211 513 236 539 m 211 13 q 199 -1 211 13 q 146 -14 186 -14 q 81 13 106 -14 q 56 78 56 39 q 81 140 56 114 q 146 167 106 167 q 210 140 185 167 q 236 78 236 114 q 211 13 236 39 z "},";":{"ha":299,"x_min":56,"x_max":243,"o":"m 211 513 q 199 499 211 513 q 146 486 186 486 q 81 513 106 486 q 56 578 56 539 q 81 640 56 614 q 146 667 106 667 q 210 640 185 667 q 236 578 236 614 q 211 513 236 539 m 56 -157 q 181 0 181 -97 q 139 -14 165 -14 q 78 13 100 -14 q 56 78 56 39 q 81 140 56 114 q 146 167 106 167 q 216 134 189 167 q 243 39 243 101 q 194 -97 243 -33 q 63 -185 144 -160 l 56 -157 z "},"<":{"ha":633,"x_min":56,"x_max":578,"o":"m 578 83 l 56 306 l 56 389 l 578 611 l 578 521 l 267 389 q 139 354 189 354 l 139 340 q 267 306 189 340 l 578 174 l 578 83 z "},"=":{"ha":633,"x_min":56,"x_max":578,"o":"m 56 500 l 578 500 l 578 417 l 56 417 l 56 500 m 56 278 l 578 278 l 578 194 l 56 194 l 56 278 z "},">":{"ha":633,"x_min":56,"x_max":578,"o":"m 56 83 l 56 174 l 367 306 q 494 340 444 340 l 494 354 q 367 389 444 354 l 56 521 l 56 611 l 578 389 l 578 306 l 56 83 z "},"?":{"ha":679,"x_min":46,"x_max":624,"o":"m 624 736 q 579 612 624 658 q 456 526 535 565 q 418 508 425 511 q 389 492 411 504 q 363 474 367 479 q 345 454 358 468 q 331 428 332 440 q 324 398 329 417 q 320 357 319 379 q 324 306 321 335 l 268 306 q 256 385 257 350 q 265 447 254 421 q 285 491 276 474 q 320 526 294 508 q 358 552 346 544 q 401 576 369 560 q 499 732 499 628 q 346 875 499 875 q 297 870 321 875 q 244 851 272 865 q 200 813 215 838 q 178 747 185 788 q 190 649 171 707 l 65 621 q 59 749 46 694 q 99 838 72 803 q 171 893 125 872 q 262 922 217 914 q 358 931 307 931 q 549 879 475 931 q 624 736 624 828 m 368 13 q 356 -1 368 13 q 303 -14 343 -14 q 238 13 263 -14 q 213 78 213 39 q 238 140 213 114 q 303 167 263 167 q 367 140 342 167 q 393 78 393 114 q 368 13 393 39 z "},"@":{"ha":1208,"x_min":56,"x_max":1153,"o":"m 279 389 q 370 608 290 522 q 576 694 450 694 q 801 533 739 694 l 815 533 l 817 578 q 826 635 818 614 q 853 666 835 657 q 887 678 871 675 q 931 681 903 681 l 906 289 q 968 101 894 101 q 1097 375 1097 101 q 978 736 1097 597 q 629 875 858 875 q 252 728 393 875 q 111 347 111 582 q 144 163 111 251 q 241 1 178 74 q 409 -116 304 -72 q 646 -160 514 -160 q 1125 42 949 -160 l 1153 -8 q 646 -215 961 -215 q 431 -183 529 -215 q 264 -97 332 -151 q 148 31 196 -42 q 78 184 100 104 q 56 347 56 264 q 213 768 56 606 q 629 931 369 931 q 1017 776 882 931 q 1153 375 1153 621 q 944 46 1153 46 q 839 96 879 46 q 806 217 799 146 l 792 217 q 697 76 764 125 q 535 28 631 28 q 340 125 413 28 q 279 389 267 222 m 404 389 q 433 171 389 258 q 576 83 478 83 q 792 361 758 83 q 760 556 806 474 q 618 639 715 639 q 499 597 547 639 q 431 504 450 556 q 404 389 411 453 z "},"A":{"ha":1058,"x_min":28,"x_max":1031,"o":"m 900 125 q 1031 28 936 28 l 1031 0 l 675 0 l 675 28 q 773 53 756 28 q 767 125 790 78 l 654 418 l 329 418 l 217 125 q 210 53 193 78 q 308 28 228 28 l 308 0 l 28 0 l 28 28 q 158 125 122 28 l 425 818 q 424 872 436 856 q 358 889 411 889 l 358 917 l 596 917 l 900 125 m 351 474 l 633 474 l 492 839 l 351 474 m 417 796 l 415 792 l 417 793 q 417 796 417 794 z "},"B":{"ha":864,"x_min":56,"x_max":808,"o":"m 633 492 q 808 244 808 435 q 793 153 808 193 q 758 88 778 114 q 700 45 738 63 q 634 19 663 28 q 557 6 606 10 q 483 1 508 1 q 411 0 458 0 l 56 0 l 56 28 q 111 53 97 28 q 125 133 125 79 l 125 783 q 111 863 125 838 q 56 889 97 889 l 56 917 l 383 917 q 478 915 446 917 q 567 908 511 914 q 653 889 622 903 q 717 851 683 875 q 765 788 750 828 q 781 694 781 749 q 633 492 781 543 m 250 861 l 250 517 l 397 517 q 597 549 539 517 q 656 689 656 582 q 597 828 656 796 q 397 861 539 861 l 250 861 m 425 56 q 621 101 558 56 q 683 258 683 147 q 621 415 683 369 q 425 461 558 461 l 250 461 l 250 56 l 425 56 z "},"C":{"ha":892,"x_min":56,"x_max":842,"o":"m 56 458 q 169 806 56 682 q 486 931 283 931 q 744 840 647 931 q 836 597 842 749 l 711 625 q 656 807 721 739 q 486 875 592 875 q 263 763 346 875 q 181 458 181 651 q 257 152 181 263 q 472 42 333 42 q 654 112 588 42 q 711 306 721 182 l 836 333 q 743 79 842 172 q 472 -14 644 -14 q 163 110 271 -14 q 56 458 56 233 z "},"D":{"ha":933,"x_min":56,"x_max":878,"o":"m 425 917 q 533 908 481 917 q 651 871 585 900 q 764 794 717 842 q 844 660 811 747 q 878 458 878 574 q 844 256 878 343 q 764 122 811 169 q 651 46 717 75 q 533 8 585 17 q 425 0 481 0 l 56 0 l 56 28 q 111 53 97 28 q 125 133 125 79 l 125 783 q 111 863 125 838 q 56 889 97 889 l 56 917 l 425 917 m 397 56 q 656 151 560 56 q 753 458 753 247 q 656 765 753 669 q 397 861 560 861 l 250 861 l 250 56 l 397 56 z "},"E":{"ha":781,"x_min":56,"x_max":725,"o":"m 699 197 l 725 193 l 706 28 l 701 0 l 56 0 l 56 28 q 111 53 97 28 q 125 133 125 79 l 125 783 q 111 863 125 838 q 56 889 97 889 l 56 917 l 688 917 l 692 889 l 711 724 l 685 719 q 644 831 674 801 q 561 861 615 861 l 250 861 l 250 493 l 442 493 q 522 507 496 493 q 547 563 547 521 l 575 563 l 575 368 l 547 368 q 522 424 547 410 q 442 438 496 438 l 250 438 l 250 56 l 575 56 q 658 85 629 56 q 699 197 688 115 z "},"F":{"ha":781,"x_min":56,"x_max":725,"o":"m 699 896 l 725 689 l 697 685 q 654 824 685 788 q 569 861 624 861 l 250 861 l 250 451 l 497 451 q 577 465 551 451 q 603 521 603 479 l 631 521 l 631 326 l 603 326 q 577 382 603 368 q 497 396 551 396 l 250 396 l 250 133 q 264 53 250 79 q 319 28 278 28 l 319 0 l 56 0 l 56 28 q 111 53 97 28 q 125 133 125 79 l 125 783 q 111 863 125 838 q 56 889 97 889 l 56 917 l 696 917 l 699 896 z "},"G":{"ha":999,"x_min":56,"x_max":971,"o":"m 971 414 l 967 386 q 892 370 910 393 q 874 292 874 347 l 874 118 q 493 -14 711 -14 q 169 113 283 -14 q 56 458 56 240 q 178 802 56 674 q 507 931 300 931 q 783 840 682 931 q 878 597 883 750 l 753 625 q 694 808 763 740 q 507 875 626 875 q 265 770 350 875 q 181 458 181 665 q 265 148 181 254 q 493 42 349 42 q 749 104 628 42 l 749 306 q 706 390 749 360 q 546 433 664 421 l 549 461 l 971 414 z "},"H":{"ha":1000,"x_min":56,"x_max":944,"o":"m 944 889 q 889 863 903 889 q 875 783 875 838 l 875 133 q 889 53 875 79 q 944 28 903 28 l 944 0 l 681 0 l 681 28 q 736 53 722 28 q 750 133 750 79 l 750 478 l 250 478 l 250 133 q 264 53 250 79 q 319 28 278 28 l 319 0 l 56 0 l 56 28 q 111 53 97 28 q 125 133 125 79 l 125 783 q 111 863 125 838 q 56 889 97 889 l 56 917 l 319 917 l 319 889 q 264 863 278 889 q 250 783 250 838 l 250 533 l 750 533 l 750 783 q 736 863 750 838 q 681 889 722 889 l 681 917 l 944 917 l 944 889 z "},"I":{"ha":375,"x_min":56,"x_max":319,"o":"m 56 0 l 56 28 q 111 53 97 28 q 125 133 125 79 l 125 783 q 111 863 125 838 q 56 889 97 889 l 56 917 l 319 917 l 319 889 q 264 863 278 889 q 250 783 250 838 l 250 133 q 264 53 250 79 q 319 28 278 28 l 319 0 l 56 0 z "},"J":{"ha":358,"x_min":14,"x_max":303,"o":"m 303 917 l 303 889 q 247 863 261 889 q 233 783 233 838 l 233 0 q 28 -306 233 -258 l 14 -250 q 108 0 108 -218 l 108 783 q 94 863 108 838 q 39 889 81 889 l 39 917 l 303 917 z "},"K":{"ha":892,"x_min":56,"x_max":878,"o":"m 704 235 q 778 70 746 113 q 878 28 810 28 l 878 0 q 680 35 731 0 q 586 196 629 71 q 563 267 576 224 q 541 333 549 310 q 520 386 533 356 q 492 432 507 417 q 456 463 478 447 q 403 485 433 479 q 333 492 374 492 l 335 493 l 250 407 l 250 133 q 264 53 250 79 q 319 28 278 28 l 319 0 l 56 0 l 56 28 q 111 53 97 28 q 125 133 125 79 l 125 783 q 111 863 125 838 q 56 889 97 889 l 56 917 l 319 917 l 319 889 q 264 863 278 889 q 250 783 250 838 l 250 486 l 582 822 q 622 874 625 858 q 538 889 618 889 l 538 917 l 835 917 l 835 889 q 658 822 724 889 l 394 554 l 394 542 q 584 471 518 546 q 704 235 650 396 z "},"L":{"ha":767,"x_min":56,"x_max":725,"o":"m 699 197 l 725 193 l 706 28 l 701 0 l 56 0 l 56 28 q 111 53 97 28 q 125 133 125 79 l 125 783 q 111 863 125 838 q 56 889 97 889 l 56 917 l 319 917 l 319 889 q 264 863 278 889 q 250 783 250 838 l 250 56 l 575 56 q 658 85 629 56 q 699 197 688 115 z "},"M":{"ha":1294,"x_min":56,"x_max":1239,"o":"m 1239 890 q 1183 863 1197 889 q 1169 783 1169 838 l 1169 133 q 1183 53 1169 79 q 1239 28 1197 28 l 1239 0 l 975 0 l 975 28 q 1031 53 1017 28 q 1044 133 1044 79 l 1044 778 l 690 0 l 551 0 l 181 778 l 181 133 q 194 53 181 79 q 250 28 208 28 l 250 0 l 56 0 l 56 28 q 111 53 97 28 q 125 133 125 79 l 125 783 q 111 863 125 838 q 56 889 97 889 l 56 917 l 139 917 q 242 894 208 917 q 319 778 275 871 l 658 64 l 985 778 q 1156 917 1047 913 l 1239 918 l 1239 890 z "},"N":{"ha":1013,"x_min":56,"x_max":957,"o":"m 56 0 l 56 28 q 111 53 97 28 q 125 133 125 79 l 125 783 q 111 863 125 838 q 56 889 97 889 l 56 917 l 139 917 q 230 891 193 914 q 315 806 267 868 l 832 140 l 832 783 q 818 863 832 838 q 763 889 804 889 l 763 917 l 957 917 l 957 889 q 901 863 915 889 q 888 783 888 838 l 888 0 q 788 22 826 0 q 697 111 749 44 l 181 776 l 181 133 q 194 53 181 79 q 250 28 208 28 l 250 0 l 56 0 z "},"O":{"ha":986,"x_min":56,"x_max":931,"o":"m 174 119 q 115 185 174 119 q 56 458 56 251 q 174 798 56 665 q 493 931 293 931 q 812 798 693 931 q 931 458 931 665 q 812 119 931 251 q 493 -14 693 -14 q 174 119 293 -14 m 183 421 q 304 128 207 228 q 558 47 401 28 q 761 185 696 64 q 803 496 826 307 q 682 789 779 689 q 428 869 585 889 q 225 731 290 853 q 183 421 160 610 z "},"P":{"ha":864,"x_min":56,"x_max":808,"o":"m 397 917 q 469 916 443 917 q 545 910 496 915 q 625 893 594 904 q 694 860 656 882 q 755 808 733 839 q 792 728 776 776 q 808 617 808 679 q 792 506 808 554 q 755 426 776 457 q 694 372 733 394 q 626 340 656 350 q 546 324 596 329 q 470 317 496 318 q 397 317 444 317 l 250 317 l 250 133 q 264 53 250 79 q 319 28 278 28 l 319 0 l 56 0 l 56 28 q 111 53 97 28 q 125 133 125 79 l 125 783 q 111 863 125 838 q 56 889 97 889 l 56 917 l 397 917 m 411 372 q 617 425 550 372 q 683 617 683 478 q 617 808 683 756 q 411 861 550 861 l 250 861 l 250 372 l 411 372 z "},"Q":{"ha":986,"x_min":56,"x_max":931,"o":"m 738 -69 l 863 -42 q 834 -208 885 -132 q 690 -285 783 -285 q 578 -259 625 -285 q 489 -160 531 -233 q 470 -128 478 -139 q 447 -97 463 -117 q 411 -66 431 -76 q 371 -56 392 -56 q 236 -137 299 -56 l 190 -112 q 379 -1 268 -8 q 142 159 228 35 q 56 458 56 283 q 174 798 56 665 q 493 931 293 931 q 812 798 693 931 q 931 458 931 665 q 812 119 931 251 q 493 -14 693 -14 l 488 -14 q 618 -133 563 -42 q 635 -162 624 -143 q 652 -190 646 -181 q 668 -210 658 -199 q 688 -225 678 -221 q 713 -229 699 -229 q 763 -181 756 -229 q 738 -69 769 -133 m 183 421 q 304 128 207 228 q 558 47 401 28 q 761 185 696 64 q 803 496 826 307 q 682 789 779 689 q 428 869 585 889 q 225 731 290 853 q 183 421 160 610 z "},"R":{"ha":892,"x_min":56,"x_max":878,"o":"m 686 267 q 767 77 721 126 q 878 28 814 28 l 878 0 q 783 3 818 0 q 710 19 749 7 q 649 55 672 31 q 605 122 626 79 q 567 228 583 164 q 469 433 528 383 q 268 483 411 483 l 250 483 l 250 133 q 264 53 250 79 q 319 28 278 28 l 319 0 l 56 0 l 56 28 q 111 53 97 28 q 125 133 125 79 l 125 783 q 111 863 125 838 q 56 889 97 889 l 56 917 l 383 917 q 439 916 418 917 q 500 911 460 915 q 566 899 540 907 q 625 876 592 892 q 678 838 658 860 q 711 780 697 815 q 725 700 725 744 q 535 492 725 524 q 686 267 644 435 m 250 539 l 397 539 q 600 700 600 539 q 397 861 600 861 l 250 861 l 250 539 z "},"S":{"ha":847,"x_min":53,"x_max":806,"o":"m 88 688 q 188 870 88 810 q 440 931 289 931 q 581 915 517 931 q 697 861 644 899 q 765 764 750 824 q 757 617 779 704 l 632 644 q 624 817 683 760 q 439 875 565 875 q 213 717 213 875 q 226 663 213 688 q 258 621 240 638 q 311 588 276 604 q 372 562 346 571 q 443 539 399 553 q 686 446 626 482 q 806 244 806 376 q 777 120 806 172 q 697 40 749 68 q 586 -1 646 11 q 454 -14 526 -14 q 346 -6 397 -14 q 242 19 294 1 q 153 65 190 36 q 88 135 117 93 q 56 235 60 178 q 68 368 53 293 l 193 340 q 181 196 171 253 q 236 104 190 139 q 336 56 282 69 q 457 42 390 42 q 681 218 681 42 q 625 333 681 294 q 443 411 569 371 q 403 424 429 415 q 319 450 347 440 q 247 478 292 460 q 181 513 203 496 q 133 556 158 531 q 98 615 108 582 q 88 688 88 647 z "},"T":{"ha":881,"x_min":42,"x_max":839,"o":"m 819 889 l 839 724 l 813 719 q 772 831 801 801 q 689 861 743 861 l 503 861 l 503 133 q 517 53 503 79 q 572 28 531 28 l 572 0 l 308 0 l 308 28 q 364 53 350 28 q 378 133 378 79 l 378 861 l 192 861 q 108 831 138 861 q 68 719 79 801 l 42 724 l 61 889 l 65 917 l 815 917 l 819 889 z "},"U":{"ha":958,"x_min":42,"x_max":917,"o":"m 917 917 l 917 889 q 861 863 875 889 q 847 783 847 838 l 846 465 q 828 260 843 343 q 774 112 813 176 q 667 17 736 47 q 493 -14 597 -14 q 301 16 376 -14 q 184 110 225 46 q 127 258 143 175 q 111 465 111 340 l 111 783 q 97 863 111 838 q 42 889 83 889 l 42 917 l 306 917 l 306 889 q 250 863 264 889 q 236 783 236 838 l 235 465 q 294 138 235 235 q 507 42 354 42 q 725 145 663 42 q 792 465 788 249 l 793 783 q 779 863 793 838 q 724 889 765 889 l 724 917 l 917 917 z "},"V":{"ha":1031,"x_min":14,"x_max":1017,"o":"m 1017 917 l 1017 889 q 886 792 922 889 l 582 0 l 449 0 l 144 792 q 14 889 108 889 l 14 917 l 369 917 l 369 889 q 272 864 289 889 q 278 792 254 839 l 553 78 l 828 792 q 834 864 851 839 q 736 889 817 889 l 736 917 l 1017 917 z "},"W":{"ha":1665,"x_min":56,"x_max":1610,"o":"m 1610 917 l 1610 889 q 1531 865 1560 889 q 1483 790 1501 840 l 1218 0 l 1088 0 l 832 825 l 575 0 l 444 0 l 181 790 q 56 889 147 889 l 56 917 l 410 917 l 410 889 q 310 863 329 889 q 313 790 290 838 l 544 90 l 803 917 l 933 917 l 1190 90 l 1425 790 q 1429 863 1447 838 q 1329 889 1411 889 l 1329 917 l 1610 917 z "},"X":{"ha":965,"x_min":28,"x_max":938,"o":"m 938 889 q 806 807 861 889 l 560 457 l 806 108 q 938 28 861 28 l 938 0 l 568 0 l 568 28 q 644 32 618 28 q 674 49 669 36 q 674 73 679 61 q 651 110 668 85 l 440 411 l 228 110 q 206 73 211 85 q 205 49 200 61 q 235 32 210 36 q 311 28 261 28 l 311 0 l 28 0 l 28 28 q 160 110 104 28 l 406 460 l 160 808 q 28 889 104 889 l 28 917 l 397 917 l 397 889 q 322 885 347 889 q 291 868 296 881 q 292 844 286 856 q 314 807 297 832 l 525 506 l 738 807 q 760 844 754 832 q 760 868 765 856 q 730 885 756 881 q 654 889 704 889 l 654 917 l 938 917 l 938 889 z "},"Y":{"ha":936,"x_min":14,"x_max":922,"o":"m 922 917 l 922 889 q 779 801 831 889 l 531 369 l 531 133 q 544 53 531 79 q 600 28 558 28 l 600 0 l 336 0 l 336 28 q 392 53 378 28 q 406 133 406 79 l 406 369 l 157 801 q 14 889 106 889 l 14 917 l 375 917 l 375 889 q 283 867 294 889 q 303 801 271 844 l 508 442 l 713 800 q 731 867 743 844 q 639 889 719 889 l 639 917 l 922 917 z "},"Z":{"ha":833,"x_min":56,"x_max":778,"o":"m 751 197 l 778 193 l 758 28 l 754 0 l 56 0 l 56 42 l 604 861 l 206 861 q 122 831 151 861 q 82 719 93 801 l 56 724 l 75 889 l 79 917 l 764 917 l 764 875 l 215 56 l 628 56 q 711 85 682 56 q 751 197 740 115 z "},"[":{"ha":400,"x_min":56,"x_max":344,"o":"m 56 -167 l 56 1000 l 344 1000 l 344 944 l 181 944 l 181 -111 l 344 -111 l 344 -167 l 56 -167 z "},"\\":{"ha":600,"x_min":56,"x_max":544,"o":"m 56 1000 l 115 1000 l 544 -83 l 485 -83 l 56 1000 z "},"]":{"ha":400,"x_min":56,"x_max":344,"o":"m 344 -167 l 56 -167 l 56 -111 l 219 -111 l 219 944 l 56 944 l 56 1000 l 344 1000 l 344 -167 z "},"^":{"ha":639,"x_min":56,"x_max":583,"o":"m 583 478 l 494 478 l 363 789 q 326 917 329 868 l 314 917 q 279 789 314 869 l 146 478 l 56 478 l 279 1000 l 363 1000 l 583 478 z "},"_":{"ha":1008,"x_min":56,"x_max":953,"o":"m 111 -83 l 953 -83 q 951 -125 953 -111 q 936 -153 949 -139 q 897 -167 924 -167 l 56 -167 q 58 -125 56 -139 q 72 -97 60 -111 q 111 -83 85 -83 z "},"`":{"ha":356,"x_min":56,"x_max":300,"o":"m 300 819 l 258 792 q 56 1000 56 844 l 194 972 q 300 819 194 861 z "},"a":{"ha":768,"x_min":56,"x_max":740,"o":"m 671 147 q 740 83 671 33 l 740 56 q 701 15 729 29 q 639 0 672 0 q 574 22 603 0 q 546 96 546 43 l 546 119 l 532 119 q 414 22 490 58 q 254 -14 338 -14 q 110 28 164 -14 q 56 157 56 71 q 77 246 56 206 q 140 313 99 286 q 226 360 182 340 q 333 392 269 379 q 440 413 396 406 q 544 426 483 419 q 508 600 540 547 q 388 653 476 653 q 246 598 289 653 q 235 457 203 543 l 110 429 q 156 628 78 547 q 394 708 233 708 q 608 629 544 708 q 671 367 671 550 l 671 147 m 546 283 l 546 372 q 285 303 389 357 q 181 158 181 250 q 292 42 181 42 q 463 114 379 42 q 546 267 546 186 l 546 283 z "},"b":{"ha":861,"x_min":28,"x_max":806,"o":"m 714 611 q 760 563 714 611 q 806 347 806 514 q 714 83 806 181 q 479 -14 622 -14 q 330 31 396 -14 q 236 147 264 75 l 222 147 l 222 83 q 210 35 222 54 q 174 10 197 17 q 135 1 150 3 q 97 0 121 0 l 97 867 q 83 947 97 921 q 28 972 69 972 l 28 1000 l 111 1000 q 165 996 143 1000 q 204 972 186 992 q 222 917 222 953 l 222 547 l 236 547 q 330 664 264 619 q 479 708 396 708 q 714 611 622 708 m 613 128 q 640 171 613 128 q 667 347 667 214 q 613 567 667 481 q 451 653 558 653 q 290 567 344 653 q 236 347 236 481 q 290 128 236 214 q 451 42 344 42 q 613 128 558 42 z "},"c":{"ha":781,"x_min":56,"x_max":731,"o":"m 143 90 q 99 142 143 90 q 56 347 56 194 q 143 604 56 500 q 403 708 231 708 q 633 623 550 708 q 711 403 717 538 l 586 431 q 546 590 597 526 q 403 653 494 653 q 235 568 290 653 q 181 347 181 483 q 235 126 181 211 q 403 42 290 42 q 553 108 496 42 q 600 278 610 174 l 725 306 q 642 75 731 164 q 403 -14 553 -14 q 143 90 231 -14 z "},"d":{"ha":875,"x_min":56,"x_max":833,"o":"m 147 83 q 101 132 147 83 q 56 347 56 181 q 147 611 56 514 q 382 708 239 708 q 531 664 465 708 q 625 547 597 619 l 639 547 l 639 867 q 625 947 639 921 q 569 972 611 972 l 569 1000 l 653 1000 q 706 996 685 1000 q 746 972 728 992 q 764 917 764 953 l 764 133 q 778 53 764 79 q 833 28 792 28 l 833 0 l 750 0 q 639 83 639 4 l 639 147 l 625 147 q 531 31 597 75 q 382 -14 465 -14 q 147 83 239 -14 m 249 567 q 222 524 249 567 q 194 347 194 481 q 249 128 194 214 q 410 42 303 42 q 571 128 517 42 q 625 347 625 214 q 571 567 625 481 q 410 653 517 653 q 249 567 303 653 z "},"e":{"ha":764,"x_min":56,"x_max":711,"o":"m 575 225 l 700 253 q 635 68 711 150 q 418 -14 560 -14 q 144 80 232 -14 q 56 329 56 174 q 160 606 56 503 q 431 708 265 708 q 633 653 558 708 q 708 504 708 597 q 652 381 708 428 q 513 320 596 333 q 341 313 429 307 q 181 342 253 318 l 181 319 q 244 115 181 188 q 404 42 307 42 q 575 225 594 42 m 431 653 q 265 584 326 653 q 186 400 203 515 q 488 385 392 353 q 583 519 583 418 q 544 616 583 579 q 431 653 506 653 z "},"f":{"ha":563,"x_min":56,"x_max":567,"o":"m 533 790 l 408 818 q 435 916 442 874 q 376 958 428 958 q 335 949 353 958 q 307 919 318 940 q 290 878 296 897 q 281 822 283 858 q 278 762 279 785 q 278 694 278 739 l 474 694 q 472 667 474 676 q 461 648 471 657 q 432 639 451 639 l 278 639 l 278 133 q 292 53 278 79 q 347 28 306 28 l 347 0 l 83 0 l 83 28 q 139 53 125 28 q 153 133 153 79 l 153 639 l 56 639 l 56 694 l 153 694 l 153 756 q 209 955 153 896 q 371 1014 265 1014 q 527 947 488 1014 q 533 790 567 881 z "},"g":{"ha":808,"x_min":46,"x_max":803,"o":"m 792 603 l 681 575 q 649 653 696 653 q 589 622 611 653 q 649 458 649 556 q 572 277 649 346 q 357 208 494 208 q 217 233 275 208 q 176 165 176 192 q 220 126 176 132 q 383 132 264 121 q 633 103 544 146 q 721 -57 721 60 q 626 -233 721 -175 q 386 -292 531 -292 q 277 -283 328 -292 q 178 -256 226 -275 q 101 -204 129 -236 q 60 -124 74 -172 q 65 -10 46 -75 l 190 -37 q 178 -122 171 -87 q 203 -179 186 -157 q 253 -214 219 -201 q 318 -231 286 -226 q 388 -236 350 -236 q 542 -197 488 -236 q 596 -79 596 -157 q 545 11 596 -8 q 383 21 494 31 q 156 32 219 8 q 93 119 93 56 q 179 251 93 196 q 65 458 65 317 q 142 640 65 571 q 357 708 219 708 q 561 647 485 708 q 699 708 615 708 q 781 674 760 708 q 792 603 803 640 m 417 272 q 509 356 481 289 q 518 499 538 422 q 439 620 500 576 q 297 644 378 664 q 205 561 233 628 q 196 418 176 494 q 275 297 214 340 q 417 272 336 253 z "},"h":{"ha":863,"x_min":56,"x_max":807,"o":"m 738 133 q 751 53 738 79 q 807 28 765 28 l 807 0 l 543 0 l 543 28 q 599 53 585 28 q 613 133 613 79 l 613 457 q 581 604 613 556 q 478 653 550 653 q 347 590 400 653 q 272 440 293 528 q 250 250 250 351 l 250 133 q 264 53 250 79 q 319 28 278 28 l 319 0 l 56 0 l 56 28 q 111 53 97 28 q 125 133 125 79 l 125 867 q 111 947 125 921 q 56 972 97 972 l 56 1000 l 139 1000 q 192 996 171 1000 q 232 972 214 992 q 250 917 250 953 l 250 478 l 264 478 q 346 649 285 589 q 506 708 407 708 q 738 443 738 708 l 738 133 z "},"i":{"ha":375,"x_min":56,"x_max":319,"o":"m 228 808 q 218 797 228 808 q 178 786 207 786 q 127 808 149 786 q 106 860 106 829 q 127 909 106 888 q 178 931 149 931 q 228 909 206 931 q 250 860 250 888 q 228 808 250 829 m 250 615 l 250 133 q 264 53 250 79 q 319 28 278 28 l 319 0 l 56 0 l 56 28 q 111 53 97 28 q 125 133 125 79 l 125 561 q 111 641 125 615 q 56 667 97 667 l 56 694 l 139 694 q 197 690 176 694 q 234 668 218 686 q 250 615 250 650 z "},"j":{"ha":331,"x_min":14,"x_max":233,"o":"m 212 808 q 201 797 212 808 q 161 786 190 786 q 110 808 132 786 q 89 860 89 829 q 110 909 89 888 q 161 931 132 931 q 211 909 189 931 q 233 860 233 888 q 212 808 233 829 m 122 694 q 176 690 154 694 q 215 667 197 686 q 233 615 233 649 l 233 0 q 28 -306 233 -258 l 14 -250 q 108 0 108 -218 l 108 561 q 94 641 108 615 q 39 667 81 667 l 39 694 l 122 694 z "},"k":{"ha":842,"x_min":56,"x_max":814,"o":"m 640 235 q 714 70 682 113 q 814 28 746 28 l 814 0 q 616 35 667 0 q 522 196 565 71 q 443 344 482 308 q 335 381 404 381 l 250 310 l 250 133 q 264 53 250 79 q 319 28 278 28 l 319 0 l 56 0 l 56 28 q 111 53 97 28 q 125 133 125 79 l 125 867 q 111 947 125 921 q 56 972 97 972 l 56 1000 l 139 1000 q 192 996 171 1000 q 232 972 214 992 q 250 917 250 953 l 250 382 l 522 610 q 567 651 565 644 q 557 661 568 658 q 486 667 542 667 l 486 694 l 779 694 l 779 667 q 607 608 676 667 l 410 443 l 410 431 q 551 384 496 431 q 640 235 606 338 z "},"l":{"ha":361,"x_min":56,"x_max":319,"o":"m 250 917 l 250 133 q 264 53 250 79 q 319 28 278 28 l 319 0 l 56 0 l 56 28 q 111 53 97 28 q 125 133 125 79 l 125 867 q 111 947 125 921 q 56 972 97 972 l 56 1000 l 139 1000 q 192 996 171 1000 q 232 972 214 992 q 250 917 250 953 z "},"m":{"ha":1239,"x_min":56,"x_max":1183,"o":"m 1114 133 q 1128 53 1114 79 q 1183 28 1142 28 l 1183 0 l 919 0 l 919 28 q 975 53 961 28 q 989 133 989 79 l 989 513 q 896 653 989 653 q 744 534 806 653 q 682 250 682 415 l 682 133 q 696 53 682 79 q 751 28 710 28 l 751 0 l 488 0 l 488 28 q 543 53 529 28 q 557 133 557 79 l 557 513 q 464 653 557 653 q 312 534 374 653 q 250 250 250 415 l 250 133 q 264 53 250 79 q 319 28 278 28 l 319 0 l 56 0 l 56 28 q 111 53 97 28 q 125 133 125 79 l 125 561 q 111 641 125 615 q 56 667 97 667 l 56 694 l 139 694 q 192 691 171 694 q 232 672 214 688 q 250 629 250 657 l 250 478 l 264 478 q 349 653 296 599 q 492 708 403 708 q 634 654 586 708 q 682 478 682 600 l 696 478 q 781 653 728 599 q 924 708 835 708 q 1066 654 1018 708 q 1114 478 1114 600 l 1114 133 z "},"n":{"ha":863,"x_min":56,"x_max":807,"o":"m 738 133 q 751 53 738 79 q 807 28 765 28 l 807 0 l 543 0 l 543 28 q 599 53 585 28 q 613 133 613 79 l 613 457 q 581 604 613 556 q 478 653 550 653 q 347 590 400 653 q 272 440 293 528 q 250 250 250 351 l 250 133 q 264 53 250 79 q 319 28 278 28 l 319 0 l 56 0 l 56 28 q 111 53 97 28 q 125 133 125 79 l 125 561 q 111 641 125 615 q 56 667 97 667 l 56 694 l 139 694 q 192 691 171 694 q 232 672 214 688 q 250 629 250 657 l 250 478 l 264 478 q 346 649 285 589 q 506 708 407 708 q 738 443 738 708 l 738 133 z "},"o":{"ha":806,"x_min":56,"x_max":750,"o":"m 147 92 q 101 144 147 92 q 56 347 56 197 q 147 603 56 497 q 403 708 239 708 q 658 603 567 708 q 750 347 750 497 q 658 92 750 197 q 403 -14 567 -14 q 147 92 239 -14 m 182 319 q 263 108 199 185 q 440 44 328 31 q 597 149 553 58 q 624 375 640 239 q 542 587 607 510 q 365 650 478 664 q 209 546 253 636 q 182 319 165 456 z "},"p":{"ha":889,"x_min":56,"x_max":833,"o":"m 742 611 q 788 563 742 611 q 833 347 833 514 q 742 83 833 181 q 507 -14 650 -14 q 358 31 424 -14 q 264 147 292 75 l 250 147 l 250 -172 q 264 -252 250 -226 q 319 -278 278 -278 l 319 -306 l 56 -306 l 56 -278 q 111 -252 97 -278 q 125 -172 125 -226 l 125 561 q 111 641 125 615 q 56 667 97 667 l 56 694 l 139 694 q 192 690 171 694 q 232 667 214 686 q 250 611 250 647 l 250 547 l 264 547 q 358 664 292 619 q 507 708 424 708 q 742 611 650 708 m 640 128 q 667 171 640 128 q 694 347 694 214 q 640 567 694 481 q 479 653 586 653 q 318 567 372 653 q 264 347 264 481 q 318 128 264 214 q 479 42 372 42 q 640 128 586 42 z "},"q":{"ha":889,"x_min":56,"x_max":833,"o":"m 147 83 q 101 132 147 83 q 56 347 56 181 q 147 611 56 514 q 382 708 239 708 q 531 664 465 708 q 625 547 597 619 l 639 547 l 639 611 q 669 678 639 663 q 750 694 699 694 l 833 694 l 833 667 q 778 641 792 667 q 764 561 764 615 l 764 -172 q 778 -252 764 -226 q 833 -278 792 -278 l 833 -306 l 569 -306 l 569 -278 q 625 -252 611 -278 q 639 -172 639 -226 l 639 147 l 625 147 q 531 31 597 75 q 382 -14 465 -14 q 147 83 239 -14 m 249 567 q 222 524 249 567 q 194 347 194 481 q 249 128 194 214 q 410 42 303 42 q 571 128 517 42 q 625 347 625 214 q 571 567 625 481 q 410 653 517 653 q 249 567 303 653 z "},"r":{"ha":706,"x_min":56,"x_max":685,"o":"m 506 708 q 650 631 615 708 q 640 429 685 554 l 515 457 q 546 603 556 554 q 478 653 536 653 q 315 527 381 653 q 250 250 250 401 l 250 133 q 264 53 250 79 q 319 28 278 28 l 319 0 l 56 0 l 56 28 q 111 53 97 28 q 125 133 125 79 l 125 561 q 111 641 125 615 q 56 667 97 667 l 56 694 l 139 694 q 192 691 171 694 q 232 672 214 688 q 250 629 250 657 l 250 478 l 264 478 q 348 641 289 574 q 506 708 407 708 z "},"s":{"ha":693,"x_min":32,"x_max":651,"o":"m 56 515 q 133 661 56 614 q 342 708 211 708 q 458 696 404 708 q 558 656 513 683 q 617 581 603 628 q 614 468 631 535 l 489 496 q 501 573 506 543 q 467 621 496 603 q 408 646 439 639 q 340 653 376 653 q 220 623 260 653 q 181 551 181 593 q 182 526 181 538 q 189 504 183 514 q 199 488 194 494 q 215 475 203 482 q 233 464 226 468 q 257 453 239 460 q 284 444 275 447 q 318 435 293 442 q 356 424 343 428 q 453 397 421 407 q 531 367 486 388 q 598 326 576 347 q 635 272 619 306 q 651 193 651 238 q 571 36 651 86 q 365 -14 490 -14 q 256 -6 306 -14 q 159 23 207 3 q 85 76 111 43 q 45 161 58 110 q 51 282 32 213 l 176 254 q 367 42 111 42 q 484 76 442 42 q 526 164 526 110 q 465 264 526 233 q 356 303 443 275 q 138 375 186 347 q 56 515 56 421 z "},"t":{"ha":507,"x_min":56,"x_max":465,"o":"m 382 90 l 465 63 q 322 -14 432 -14 q 139 203 139 -14 l 139 639 l 56 639 l 56 694 q 137 719 107 703 q 188 783 167 735 q 208 917 208 832 l 264 917 l 264 694 l 432 694 q 431 667 432 676 q 419 648 429 657 q 390 639 410 639 l 264 639 l 264 236 q 278 85 264 129 q 335 42 293 42 q 382 90 378 42 z "},"u":{"ha":863,"x_min":56,"x_max":807,"o":"m 807 667 q 751 641 765 667 q 738 561 738 615 l 738 133 q 751 53 738 79 q 807 28 765 28 l 807 0 l 724 0 q 670 3 692 0 q 631 22 649 7 q 613 65 613 38 l 613 217 l 599 217 q 517 46 578 106 q 357 -14 456 -14 q 125 251 125 -14 l 125 561 q 111 641 125 615 q 56 667 97 667 l 56 694 l 319 694 l 319 667 q 264 641 278 667 q 250 561 250 615 l 250 238 q 281 90 250 139 q 385 42 313 42 q 516 104 463 42 q 591 255 569 167 q 613 444 613 343 l 613 561 q 599 641 613 615 q 543 667 585 667 l 543 694 l 807 694 l 807 667 z "},"v":{"ha":861,"x_min":14,"x_max":847,"o":"m 847 694 l 847 667 q 717 569 753 667 l 497 0 l 364 0 l 144 569 q 14 667 108 667 l 14 694 l 369 694 l 369 667 q 272 642 289 667 q 278 569 254 617 l 468 78 l 657 569 q 663 642 681 617 q 565 667 646 667 l 565 694 l 847 694 z "},"w":{"ha":1233,"x_min":14,"x_max":1219,"o":"m 1219 694 l 1219 667 q 1089 568 1119 667 l 908 0 l 776 0 l 610 490 l 454 0 l 322 0 l 144 567 q 98 642 128 618 q 14 667 68 667 l 14 694 l 372 694 l 372 667 q 272 641 292 667 q 274 568 253 615 l 425 92 l 615 694 l 674 694 l 878 89 l 1031 568 q 1032 641 1051 615 q 932 667 1013 667 l 932 694 l 1219 694 z "},"x":{"ha":857,"x_min":28,"x_max":829,"o":"m 829 667 q 682 586 740 667 l 507 343 l 681 107 q 829 28 742 28 l 829 0 l 469 0 l 469 28 q 558 47 550 28 q 529 107 567 67 l 385 304 l 242 108 q 222 79 228 89 q 213 58 215 69 q 219 40 211 46 q 248 31 228 35 q 303 28 268 28 l 303 0 l 28 0 l 28 28 q 175 108 117 28 l 350 351 l 176 588 q 28 667 115 667 l 28 694 l 388 694 l 388 667 q 299 647 307 667 q 328 588 290 628 l 472 390 l 615 586 q 635 615 629 606 q 644 637 642 625 q 638 654 646 649 q 609 663 629 660 q 554 667 589 667 l 554 694 l 829 694 l 829 667 z "},"y":{"ha":863,"x_min":14,"x_max":849,"o":"m 849 694 l 849 667 q 717 571 756 667 l 496 1 l 497 0 l 496 0 l 474 -57 q 443 -133 453 -110 q 414 -192 433 -157 q 376 -240 394 -226 q 330 -266 358 -254 q 267 -278 301 -278 q 125 -208 168 -278 q 124 -28 82 -139 l 249 -56 q 265 -222 165 -222 q 346 -181 311 -222 q 414 -57 381 -140 l 436 0 l 364 0 l 144 569 q 14 667 108 667 l 14 694 l 369 694 l 369 667 q 272 642 289 667 q 278 569 254 617 l 467 79 l 656 569 q 664 642 681 617 q 565 667 647 667 l 565 694 l 849 694 z "},"z":{"ha":722,"x_min":56,"x_max":667,"o":"m 489 639 l 206 639 q 122 609 151 639 q 82 497 93 579 l 56 501 l 75 667 l 79 694 l 653 694 l 653 653 l 219 56 l 517 56 q 600 85 571 56 q 640 197 629 115 l 667 193 l 647 28 l 643 0 l 56 0 l 56 42 l 489 639 z "},"{":{"ha":457,"x_min":56,"x_max":401,"o":"m 56 389 l 56 444 q 186 470 146 444 q 226 544 226 496 q 218 660 226 592 q 207 774 210 726 q 211 871 204 821 q 238 949 218 921 q 299 993 258 978 q 401 1000 340 1008 l 401 944 q 343 934 364 949 q 319 886 322 919 q 320 822 317 853 q 332 739 324 790 q 343 660 340 688 q 308 488 351 551 q 167 424 264 424 l 167 410 q 308 345 264 410 q 343 174 351 281 q 332 94 340 146 q 320 12 324 43 q 319 -53 317 -19 q 343 -101 322 -86 q 401 -111 364 -115 l 401 -167 q 299 -160 340 -175 q 238 -116 258 -144 q 211 -37 218 -87 q 207 60 204 13 q 218 174 210 107 q 226 290 226 242 q 186 363 226 338 q 56 389 146 389 z "},"|":{"ha":194,"x_min":56,"x_max":139,"o":"m 56 1000 l 139 1000 l 139 -208 l 56 -208 l 56 1000 z "},"}":{"ha":457,"x_min":56,"x_max":401,"o":"m 401 389 q 271 363 311 389 q 231 290 231 338 q 239 174 231 242 q 250 60 247 107 q 246 -37 253 13 q 219 -116 239 -87 q 158 -160 199 -144 q 56 -167 117 -175 l 56 -111 q 114 -101 93 -115 q 138 -53 135 -86 q 137 12 140 -19 q 125 94 133 43 q 114 174 117 146 q 149 345 106 281 q 290 410 193 410 l 290 424 q 149 488 193 424 q 114 660 106 551 q 125 739 117 688 q 137 822 133 790 q 138 886 140 853 q 114 934 135 919 q 56 944 93 949 l 56 1000 q 158 993 117 1008 q 219 949 199 978 q 246 871 239 921 q 250 774 253 821 q 239 660 247 726 q 231 544 231 592 q 271 470 231 496 q 401 444 311 444 l 401 389 z "},"~":{"ha":633,"x_min":42,"x_max":592,"o":"m 469 236 q 357 271 417 236 q 244 340 297 306 q 150 375 190 375 q 119 264 75 375 l 64 292 q 72 415 42 372 q 164 458 103 458 q 276 424 217 458 q 390 354 336 389 q 483 319 443 319 q 514 431 558 319 l 569 403 q 561 279 592 322 q 469 236 531 236 z "},"¡":{"ha":292,"x_min":56,"x_max":236,"o":"m 81 682 q 93 695 81 682 q 146 708 106 708 q 211 682 186 708 q 236 617 236 656 q 210 554 236 581 q 146 528 185 528 q 81 554 106 528 q 56 617 56 581 q 81 682 56 656 m 118 389 l 174 389 q 188 86 174 247 q 201 -117 201 -75 q 199 -185 201 -164 q 185 -221 197 -206 q 146 -236 172 -236 q 99 -211 108 -236 q 90 -117 90 -186 q 104 86 90 -75 q 118 389 118 247 z "},"¢":{"ha":781,"x_min":56,"x_max":731,"o":"m 725 403 q 658 189 731 275 q 458 88 585 103 l 472 -108 l 417 -111 l 403 83 q 143 188 231 83 q 56 444 56 292 q 131 686 56 585 q 353 803 206 788 l 339 997 l 394 1000 l 408 806 q 635 719 553 804 q 711 500 717 633 l 586 528 q 549 685 597 622 q 413 750 500 747 l 454 144 q 568 224 526 163 q 600 375 610 286 l 725 403 m 181 444 q 234 225 181 310 q 399 139 288 140 l 357 746 q 224 647 268 728 q 181 444 181 565 z "},"£":{"ha":708,"x_min":56,"x_max":653,"o":"m 625 224 l 653 222 l 639 56 l 635 0 l 56 0 l 56 83 q 153 153 117 104 q 199 242 190 201 q 208 322 208 282 q 193 407 208 365 l 56 407 l 56 463 l 169 463 q 138 522 161 478 q 103 588 114 565 q 81 649 92 611 q 69 722 69 688 q 145 877 69 824 q 349 931 221 931 q 448 922 403 931 q 536 893 493 914 q 603 838 579 872 q 637 749 626 803 q 628 621 647 694 l 503 649 q 518 747 522 707 q 502 813 514 788 q 465 851 490 838 q 415 870 439 865 q 361 875 390 875 q 194 735 194 875 q 213 652 194 696 q 261 552 231 608 q 306 463 292 496 l 546 463 l 546 407 l 324 407 q 333 338 333 376 q 278 178 333 239 q 144 97 222 118 l 144 83 l 508 83 q 590 113 563 83 q 625 224 618 142 z "},"¤":{"ha":740,"x_min":56,"x_max":685,"o":"m 625 443 q 571 282 625 349 l 685 168 l 644 129 l 532 242 q 371 189 467 189 q 210 243 275 189 l 96 129 l 56 168 l 169 282 q 117 443 117 353 q 169 604 117 533 l 56 718 l 94 758 l 210 643 q 371 697 275 697 q 533 644 465 697 l 646 758 l 685 718 l 572 606 q 625 443 625 535 m 394 246 q 513 314 475 256 q 540 464 551 372 q 478 603 529 556 q 347 640 426 650 q 228 572 267 631 q 201 422 190 514 q 264 283 213 331 q 394 246 315 236 z "},"¥":{"ha":1019,"x_min":56,"x_max":964,"o":"m 964 917 l 964 889 q 821 801 872 889 l 610 435 l 836 435 l 836 379 l 578 379 l 572 369 l 572 310 l 836 310 l 836 254 l 572 254 l 572 133 q 586 53 572 79 q 642 28 600 28 l 642 0 l 378 0 l 378 28 q 433 53 419 28 q 447 133 447 79 l 447 254 l 203 254 l 203 310 l 447 310 l 447 369 l 442 379 l 203 379 l 203 435 l 410 435 l 199 801 q 56 889 147 889 l 56 917 l 417 917 l 417 889 q 324 867 336 889 q 344 801 313 844 l 550 442 l 754 800 q 773 867 785 844 q 681 889 761 889 l 681 917 l 964 917 z "},"¦":{"ha":194,"x_min":56,"x_max":139,"o":"m 56 569 l 56 1000 l 139 1000 l 139 569 l 56 569 m 56 -208 l 56 222 l 139 222 l 139 -208 l 56 -208 z "},"§":{"ha":721,"x_min":46,"x_max":665,"o":"m 529 251 q 631 181 596 224 q 665 69 665 139 q 585 -87 665 -37 q 379 -137 504 -137 q 270 -129 319 -137 q 173 -101 221 -121 q 99 -47 125 -81 q 59 38 72 -14 q 65 158 46 89 l 190 131 q 381 -82 125 -82 q 498 -48 456 -82 q 540 40 540 -14 q 503 129 540 104 q 369 179 465 154 q 151 251 200 224 q 69 392 69 297 q 218 568 69 526 q 106 633 142 594 q 69 738 69 671 q 147 883 69 836 q 356 931 225 931 q 472 918 418 931 q 572 878 526 906 q 631 803 617 850 q 628 690 644 757 l 503 718 q 515 795 519 765 q 481 843 510 825 q 422 868 453 861 q 354 875 390 875 q 234 845 274 875 q 194 774 194 815 q 226 696 194 717 q 354 650 258 675 q 369 646 364 647 q 467 619 435 629 q 545 590 500 610 q 612 549 590 569 q 649 494 633 528 q 665 415 665 460 q 529 251 665 285 m 194 421 q 226 349 194 368 q 353 304 258 329 q 358 303 356 304 q 363 302 360 303 q 369 300 367 301 q 499 308 457 276 q 540 404 540 340 q 537 434 540 421 q 529 456 533 447 q 514 474 525 465 q 496 488 503 483 q 470 498 489 492 q 442 507 451 504 q 407 516 432 510 q 369 525 382 522 q 238 511 281 547 q 194 421 194 475 z "},"¨":{"ha":472,"x_min":56,"x_max":417,"o":"m 178 845 q 168 834 178 845 q 128 824 157 824 q 77 845 99 824 q 56 897 56 867 q 77 947 56 925 q 128 968 99 968 q 178 947 156 968 q 200 897 200 925 q 178 845 200 867 m 395 845 q 384 834 395 845 q 344 824 374 824 q 294 845 315 824 q 272 897 272 867 q 294 947 272 925 q 344 968 315 968 q 394 947 372 968 q 417 897 417 925 q 395 845 417 867 z "},"©":{"ha":1206,"x_min":56,"x_max":1150,"o":"m 1003 -51 q 929 -133 1003 -51 q 603 -215 856 -215 q 203 -51 350 -215 q 56 358 56 113 q 203 767 56 604 q 603 931 350 931 q 1003 767 856 931 q 1150 358 1150 604 q 1003 -51 1150 113 m 603 -160 q 965 -13 835 -160 q 1094 358 1094 133 q 964 728 1094 582 q 603 875 833 875 q 242 728 372 875 q 111 358 111 581 q 242 -13 111 133 q 603 -160 372 -160 m 356 101 q 312 153 356 101 q 268 358 268 206 q 356 615 268 511 q 615 719 443 719 q 846 634 763 719 q 924 414 929 549 l 799 442 q 758 601 810 538 q 615 664 707 664 q 448 579 503 664 q 393 358 393 494 q 448 138 393 222 q 615 53 503 53 q 765 119 708 53 q 813 289 822 185 l 938 317 q 854 86 943 175 q 615 -3 765 -3 q 356 101 443 -3 z "},"«":{"ha":725,"x_min":56,"x_max":686,"o":"m 218 660 l 343 660 q 314 450 367 546 q 139 354 261 354 l 139 340 q 314 244 261 340 q 343 35 367 149 l 218 35 q 232 117 228 82 q 231 192 236 151 q 209 259 226 233 q 153 302 192 285 q 56 319 114 319 l 56 375 q 153 392 114 375 q 209 435 192 410 q 231 502 226 461 q 232 578 236 543 q 218 660 228 613 m 538 660 l 663 660 q 633 450 686 546 q 458 354 581 354 l 458 340 q 633 244 581 340 q 663 35 686 149 l 538 35 q 551 117 547 82 q 551 192 556 151 q 528 259 546 233 q 472 302 511 285 q 375 319 433 319 l 375 375 q 472 392 433 375 q 528 435 511 410 q 551 502 546 461 q 551 578 556 543 q 538 660 547 613 z "},"¬":{"ha":633,"x_min":56,"x_max":578,"o":"m 56 389 l 578 389 l 578 138 l 494 138 l 494 306 l 56 306 l 56 389 z "},"®":{"ha":735,"x_min":56,"x_max":679,"o":"m 136 923 q 176 968 136 923 q 368 1014 217 1014 q 599 923 519 1014 q 679 704 679 832 q 599 486 679 578 q 368 394 518 394 q 136 486 217 394 q 56 704 56 578 q 136 923 56 832 m 176 883 q 143 846 176 883 q 111 704 111 808 q 176 525 111 600 q 368 450 240 450 q 529 499 467 450 q 470 502 485 481 q 449 579 456 524 q 449 585 449 583 q 448 589 449 586 q 447 594 447 592 q 413 678 439 657 q 331 700 386 700 l 322 700 l 322 614 q 329 574 322 586 q 357 561 336 561 l 357 547 l 232 547 l 232 561 q 260 574 253 561 q 267 614 267 586 l 267 814 q 260 854 267 842 q 232 867 253 867 l 232 881 l 353 881 q 385 880 372 881 q 420 874 397 879 q 457 861 443 869 q 482 834 471 853 q 493 790 493 815 q 442 711 493 731 q 501 594 489 682 q 544 532 511 528 q 604 599 578 536 q 624 700 624 644 l 624 701 l 624 703 l 624 704 q 559 883 624 808 q 368 958 494 958 q 176 883 240 958 m 371 728 q 423 744 408 728 q 438 790 438 760 q 423 837 438 821 q 371 853 408 853 l 322 853 l 322 728 l 331 728 l 344 728 l 371 728 z "},"¯":{"ha":510,"x_min":56,"x_max":454,"o":"m 56 924 l 454 924 l 454 868 l 56 868 l 56 924 z "},"°":{"ha":614,"x_min":56,"x_max":558,"o":"m 489 585 q 454 549 489 585 q 307 513 419 513 q 125 585 194 513 q 56 764 56 657 q 125 942 56 869 q 307 1014 194 1014 q 489 942 419 1014 q 558 764 558 869 q 489 585 558 657 m 185 644 q 209 620 185 644 q 307 596 232 596 q 428 644 382 596 q 475 764 475 692 q 428 883 475 835 q 307 931 382 931 q 185 883 232 931 q 139 764 139 835 q 185 644 139 692 z "},"±":{"ha":633,"x_min":56,"x_max":578,"o":"m 578 343 l 439 343 q 347 354 407 343 q 358 263 358 294 l 358 132 l 578 132 l 578 49 l 56 49 l 56 132 l 275 132 l 275 263 q 286 354 275 294 q 194 343 226 343 l 56 343 l 56 426 l 194 426 q 286 415 226 426 q 275 507 275 475 l 275 646 l 358 646 l 358 507 q 347 415 358 475 q 439 426 407 426 l 578 426 l 578 343 z "},"´":{"ha":356,"x_min":56,"x_max":300,"o":"m 56 819 q 161 972 161 861 l 300 1000 q 97 792 300 844 l 56 819 z "},"¶":{"ha":707,"x_min":56,"x_max":651,"o":"m 332 1000 l 388 889 l 401 889 l 401 1000 l 485 1000 l 485 -208 l 401 -208 l 401 528 l 388 528 l 332 417 q 242 430 286 417 q 153 473 197 443 q 83 564 110 503 q 56 708 56 625 q 83 853 56 792 q 153 944 110 914 q 242 987 197 974 q 332 1000 286 1000 m 568 1000 l 651 1000 l 651 -208 l 568 -208 l 568 1000 z "},"·":{"ha":292,"x_min":56,"x_max":236,"o":"m 211 283 q 199 270 211 283 q 146 257 186 257 q 81 283 106 257 q 56 349 56 310 q 81 411 56 385 q 146 438 106 438 q 210 411 185 438 q 236 349 236 385 q 211 283 236 310 z "},"¸":{"ha":413,"x_min":43,"x_max":357,"o":"m 249 -83 q 325 -109 293 -83 q 357 -187 357 -135 q 310 -285 357 -251 q 196 -318 264 -318 q 87 -283 131 -318 q 60 -185 43 -249 l 143 -210 q 148 -249 131 -236 q 190 -262 165 -262 q 251 -244 229 -262 q 274 -189 274 -225 q 219 -139 274 -139 q 129 -161 167 -139 l 101 -153 l 131 0 l 214 0 l 153 -106 l 167 -106 q 249 -83 203 -83 z "},"»":{"ha":725,"x_min":39,"x_max":669,"o":"m 188 660 q 174 578 178 613 q 174 502 169 543 q 197 435 179 461 q 253 392 214 410 q 350 375 292 375 l 350 319 q 253 302 292 319 q 197 259 214 285 q 174 192 179 233 q 174 117 169 151 q 188 35 178 82 l 63 35 q 92 244 39 149 q 267 340 144 340 l 267 354 q 92 450 144 354 q 63 660 39 546 l 188 660 m 507 660 q 493 578 497 613 q 494 502 489 543 q 516 435 499 461 q 572 392 533 410 q 669 375 611 375 l 669 319 q 572 302 611 319 q 516 259 533 285 q 494 192 499 233 q 493 117 489 151 q 507 35 497 82 l 382 35 q 411 244 358 149 q 586 340 464 340 l 586 354 q 411 450 464 354 q 382 660 358 546 l 507 660 z "},"¿":{"ha":679,"x_min":56,"x_max":633,"o":"m 311 682 q 324 695 311 682 q 376 708 336 708 q 442 682 417 708 q 467 617 467 656 q 442 554 467 581 q 376 528 417 528 q 312 554 338 528 q 286 617 286 581 q 311 682 286 656 m 56 -42 q 100 83 56 36 q 224 168 144 129 q 261 187 254 183 q 290 203 268 190 q 317 221 313 215 q 334 240 321 226 q 349 266 347 254 q 355 297 350 278 q 359 338 360 315 q 356 389 358 360 l 411 389 q 424 309 422 344 q 414 247 425 274 q 394 203 403 221 q 359 168 385 186 q 322 142 333 150 q 278 118 310 135 q 181 -37 181 67 q 333 -181 181 -181 q 383 -176 358 -181 q 435 -157 407 -171 q 479 -118 464 -143 q 501 -53 494 -93 q 489 46 508 -12 l 614 74 q 620 -54 633 0 q 581 -143 607 -108 q 508 -199 554 -178 q 417 -228 463 -219 q 321 -236 372 -236 q 130 -185 204 -236 q 56 -42 56 -133 z "},"À":{"ha":1058,"x_min":28,"x_max":1031,"o":"m 578 1014 q 375 1222 375 1067 l 514 1194 q 619 1042 514 1083 l 578 1014 m 900 125 q 1031 28 936 28 l 1031 0 l 675 0 l 675 28 q 773 53 756 28 q 767 125 790 78 l 654 418 l 329 418 l 217 125 q 210 53 193 78 q 308 28 228 28 l 308 0 l 28 0 l 28 28 q 158 125 122 28 l 425 818 q 424 872 436 856 q 358 889 411 889 l 358 917 l 596 917 l 900 125 m 351 474 l 633 474 l 492 839 l 351 474 m 417 796 l 415 792 l 417 793 q 417 796 417 794 z "},"Á":{"ha":1058,"x_min":28,"x_max":1031,"o":"m 647 1222 q 444 1014 647 1067 l 403 1042 q 508 1194 508 1083 l 647 1222 m 900 125 q 1031 28 936 28 l 1031 0 l 675 0 l 675 28 q 773 53 756 28 q 767 125 790 78 l 654 418 l 329 418 l 217 125 q 210 53 193 78 q 308 28 228 28 l 308 0 l 28 0 l 28 28 q 158 125 122 28 l 425 818 q 424 872 436 856 q 358 889 411 889 l 358 917 l 596 917 l 900 125 m 351 474 l 633 474 l 492 839 l 351 474 m 417 796 l 415 792 l 417 793 q 417 796 417 794 z "},"Â":{"ha":1058,"x_min":28,"x_max":1031,"o":"m 518 1139 q 456 1058 497 1090 q 365 1014 415 1025 l 338 1083 q 423 1137 394 1103 q 463 1222 451 1171 l 588 1222 q 627 1137 599 1171 q 713 1083 656 1103 l 685 1014 q 594 1058 635 1025 q 532 1139 553 1090 l 518 1139 m 900 125 q 1031 28 936 28 l 1031 0 l 675 0 l 675 28 q 773 53 756 28 q 767 125 790 78 l 654 418 l 329 418 l 217 125 q 210 53 193 78 q 308 28 228 28 l 308 0 l 28 0 l 28 28 q 158 125 122 28 l 425 818 q 424 872 436 856 q 358 889 411 889 l 358 917 l 596 917 l 900 125 m 351 474 l 633 474 l 492 839 l 351 474 m 417 796 l 415 792 l 417 793 q 417 796 417 794 z "},"Ã":{"ha":1058,"x_min":28,"x_max":1031,"o":"m 390 1028 l 307 1056 q 316 1174 285 1126 q 407 1222 347 1222 q 487 1203 450 1222 q 545 1160 524 1183 q 590 1117 567 1136 q 635 1097 614 1097 q 660 1208 700 1097 l 743 1181 q 734 1062 765 1110 q 643 1014 703 1014 q 563 1033 600 1014 q 505 1076 526 1053 q 460 1119 483 1100 q 415 1139 436 1139 q 390 1028 350 1139 m 900 125 q 1031 28 936 28 l 1031 0 l 675 0 l 675 28 q 773 53 756 28 q 767 125 790 78 l 654 418 l 329 418 l 217 125 q 210 53 193 78 q 308 28 228 28 l 308 0 l 28 0 l 28 28 q 158 125 122 28 l 425 818 q 424 872 436 856 q 358 889 411 889 l 358 917 l 596 917 l 900 125 m 351 474 l 633 474 l 492 839 l 351 474 m 417 796 l 415 792 l 417 793 q 417 796 417 794 z "},"Ä":{"ha":1058,"x_min":28,"x_max":1031,"o":"m 467 1067 q 457 1057 467 1067 q 417 1046 446 1046 q 366 1067 388 1046 q 344 1119 344 1089 q 366 1169 344 1147 q 417 1190 388 1190 q 467 1169 444 1190 q 489 1119 489 1147 q 467 1067 489 1089 m 684 1067 q 673 1057 684 1067 q 633 1046 663 1046 q 583 1067 604 1046 q 561 1119 561 1089 q 583 1169 561 1147 q 633 1190 604 1190 q 683 1169 661 1190 q 706 1119 706 1147 q 684 1067 706 1089 m 900 125 q 1031 28 936 28 l 1031 0 l 675 0 l 675 28 q 773 53 756 28 q 767 125 790 78 l 654 418 l 329 418 l 217 125 q 210 53 193 78 q 308 28 228 28 l 308 0 l 28 0 l 28 28 q 158 125 122 28 l 425 818 q 424 872 436 856 q 358 889 411 889 l 358 917 l 596 917 l 900 125 m 351 474 l 633 474 l 492 839 l 351 474 m 417 796 l 415 792 l 417 793 q 417 796 417 794 z "},"Å":{"ha":1058,"x_min":28,"x_max":1031,"o":"m 623 1043 q 606 1028 623 1043 q 525 1014 589 1014 q 427 1043 461 1014 q 393 1118 393 1072 q 427 1192 393 1163 q 525 1222 461 1222 q 622 1192 588 1222 q 657 1118 657 1163 q 623 1043 657 1072 m 574 1118 q 574 1142 574 1118 q 525 1167 574 1167 q 476 1118 476 1167 q 525 1069 476 1069 q 574 1118 574 1069 m 900 125 q 1031 28 936 28 l 1031 0 l 675 0 l 675 28 q 773 53 756 28 q 767 125 790 78 l 654 418 l 329 418 l 217 125 q 210 53 193 78 q 308 28 228 28 l 308 0 l 28 0 l 28 28 q 158 125 122 28 l 425 818 q 424 872 436 856 q 358 889 411 889 l 358 917 l 596 917 l 900 125 m 351 474 l 633 474 l 492 839 l 351 474 m 417 796 l 415 792 l 417 793 q 417 796 417 794 z "},"Æ":{"ha":1310,"x_min":28,"x_max":1254,"o":"m 1228 197 l 1254 193 l 1235 28 l 1231 0 l 585 0 l 585 28 q 640 53 626 28 q 654 133 654 79 l 654 349 l 340 349 l 222 118 q 206 51 193 75 q 300 28 219 28 l 300 0 l 28 0 l 28 28 q 158 118 111 28 l 510 799 q 526 865 539 842 q 432 889 513 889 l 432 917 l 1217 917 l 1221 889 l 1240 724 l 1214 719 q 1174 831 1203 801 q 1090 861 1144 861 l 779 861 l 779 493 l 971 493 q 1051 507 1025 493 q 1076 563 1076 521 l 1104 563 l 1104 368 l 1076 368 q 1051 424 1076 410 q 971 438 1025 438 l 779 438 l 779 56 l 1104 56 q 1188 85 1158 56 q 1228 197 1217 115 m 369 404 l 654 404 l 654 861 l 571 861 q 571 796 597 847 l 369 404 z "},"Ç":{"ha":892,"x_min":56,"x_max":842,"o":"m 711 306 l 836 333 q 755 90 842 182 q 515 -12 668 -1 l 461 -106 l 475 -106 q 557 -83 511 -83 q 633 -109 601 -83 q 665 -187 665 -135 q 619 -285 665 -251 q 504 -318 572 -318 q 395 -283 439 -318 q 368 -185 351 -249 l 451 -210 q 456 -249 439 -236 q 499 -262 474 -262 q 560 -244 538 -262 q 582 -189 582 -225 q 528 -139 582 -139 q 438 -161 475 -139 l 410 -153 l 436 -12 q 153 120 251 -3 q 56 458 56 243 q 169 806 56 682 q 486 931 283 931 q 744 840 647 931 q 836 597 842 749 l 711 625 q 656 807 721 739 q 486 875 592 875 q 263 763 346 875 q 181 458 181 651 q 257 152 181 263 q 472 42 333 42 q 654 112 588 42 q 711 306 721 182 z "},"È":{"ha":781,"x_min":56,"x_max":725,"o":"m 457 1014 q 254 1222 254 1067 l 393 1194 q 499 1042 393 1083 l 457 1014 m 699 197 l 725 193 l 706 28 l 701 0 l 56 0 l 56 28 q 111 53 97 28 q 125 133 125 79 l 125 783 q 111 863 125 838 q 56 889 97 889 l 56 917 l 688 917 l 692 889 l 711 724 l 685 719 q 644 831 674 801 q 561 861 615 861 l 250 861 l 250 493 l 442 493 q 522 507 496 493 q 547 563 547 521 l 575 563 l 575 368 l 547 368 q 522 424 547 410 q 442 438 496 438 l 250 438 l 250 56 l 575 56 q 658 85 629 56 q 699 197 688 115 z "},"É":{"ha":781,"x_min":56,"x_max":725,"o":"m 526 1222 q 324 1014 526 1067 l 282 1042 q 388 1194 388 1083 l 526 1222 m 699 197 l 725 193 l 706 28 l 701 0 l 56 0 l 56 28 q 111 53 97 28 q 125 133 125 79 l 125 783 q 111 863 125 838 q 56 889 97 889 l 56 917 l 688 917 l 692 889 l 711 724 l 685 719 q 644 831 674 801 q 561 861 615 861 l 250 861 l 250 493 l 442 493 q 522 507 496 493 q 547 563 547 521 l 575 563 l 575 368 l 547 368 q 522 424 547 410 q 442 438 496 438 l 250 438 l 250 56 l 575 56 q 658 85 629 56 q 699 197 688 115 z "},"Ê":{"ha":781,"x_min":56,"x_max":725,"o":"m 397 1139 q 335 1058 376 1090 q 244 1014 294 1025 l 217 1083 q 302 1137 274 1103 q 342 1222 331 1171 l 467 1222 q 506 1137 478 1171 q 592 1083 535 1103 l 564 1014 q 473 1058 514 1025 q 411 1139 432 1090 l 397 1139 m 699 197 l 725 193 l 706 28 l 701 0 l 56 0 l 56 28 q 111 53 97 28 q 125 133 125 79 l 125 783 q 111 863 125 838 q 56 889 97 889 l 56 917 l 688 917 l 692 889 l 711 724 l 685 719 q 644 831 674 801 q 561 861 615 861 l 250 861 l 250 493 l 442 493 q 522 507 496 493 q 547 563 547 521 l 575 563 l 575 368 l 547 368 q 522 424 547 410 q 442 438 496 438 l 250 438 l 250 56 l 575 56 q 658 85 629 56 q 699 197 688 115 z "},"Ë":{"ha":781,"x_min":56,"x_max":725,"o":"m 347 1067 q 336 1057 347 1067 q 296 1046 325 1046 q 245 1067 267 1046 q 224 1119 224 1089 q 245 1169 224 1147 q 296 1190 267 1190 q 346 1169 324 1190 q 368 1119 368 1147 q 347 1067 368 1089 m 563 1067 q 552 1057 563 1067 q 513 1046 542 1046 q 462 1067 483 1046 q 440 1119 440 1089 q 462 1169 440 1147 q 513 1190 483 1190 q 563 1169 540 1190 q 585 1119 585 1147 q 563 1067 585 1089 m 699 197 l 725 193 l 706 28 l 701 0 l 56 0 l 56 28 q 111 53 97 28 q 125 133 125 79 l 125 783 q 111 863 125 838 q 56 889 97 889 l 56 917 l 688 917 l 692 889 l 711 724 l 685 719 q 644 831 674 801 q 561 861 615 861 l 250 861 l 250 493 l 442 493 q 522 507 496 493 q 547 563 547 521 l 575 563 l 575 368 l 547 368 q 522 424 547 410 q 442 438 496 438 l 250 438 l 250 56 l 575 56 q 658 85 629 56 q 699 197 688 115 z "},"Ì":{"ha":375,"x_min":38,"x_max":319,"o":"m 282 1042 l 240 1014 q 38 1222 38 1067 l 176 1194 q 282 1042 176 1083 m 56 0 l 56 28 q 111 53 97 28 q 125 133 125 79 l 125 783 q 111 863 125 838 q 56 889 97 889 l 56 917 l 319 917 l 319 889 q 264 863 278 889 q 250 783 250 838 l 250 133 q 264 53 250 79 q 319 28 278 28 l 319 0 l 56 0 z "},"Í":{"ha":375,"x_min":56,"x_max":319,"o":"m 65 1042 q 171 1194 171 1083 l 310 1222 q 107 1014 310 1067 l 65 1042 m 56 0 l 56 28 q 111 53 97 28 q 125 133 125 79 l 125 783 q 111 863 125 838 q 56 889 97 889 l 56 917 l 319 917 l 319 889 q 264 863 278 889 q 250 783 250 838 l 250 133 q 264 53 250 79 q 319 28 278 28 l 319 0 l 56 0 z "},"Î":{"ha":375,"x_min":0,"x_max":375,"o":"m 375 1083 l 347 1014 q 256 1058 297 1025 q 194 1139 215 1090 l 181 1139 q 119 1058 160 1090 q 28 1014 78 1025 l 0 1083 q 85 1137 57 1103 q 125 1222 114 1171 l 250 1222 q 290 1137 261 1171 q 375 1083 318 1103 m 56 0 l 56 28 q 111 53 97 28 q 125 133 125 79 l 125 783 q 111 863 125 838 q 56 889 97 889 l 56 917 l 319 917 l 319 889 q 264 863 278 889 q 250 783 250 838 l 250 133 q 264 53 250 79 q 319 28 278 28 l 319 0 l 56 0 z "},"Ï":{"ha":375,"x_min":7,"x_max":368,"o":"m 130 1067 q 119 1057 130 1067 q 79 1046 108 1046 q 28 1067 50 1046 q 7 1119 7 1089 q 28 1169 7 1147 q 79 1190 50 1190 q 129 1169 107 1190 q 151 1119 151 1147 q 130 1067 151 1089 m 347 1067 q 336 1057 347 1067 q 296 1046 325 1046 q 245 1067 267 1046 q 224 1119 224 1089 q 245 1169 224 1147 q 296 1190 267 1190 q 346 1169 324 1190 q 368 1119 368 1147 q 347 1067 368 1089 m 56 0 l 56 28 q 111 53 97 28 q 125 133 125 79 l 125 783 q 111 863 125 838 q 56 889 97 889 l 56 917 l 319 917 l 319 889 q 264 863 278 889 q 250 783 250 838 l 250 133 q 264 53 250 79 q 319 28 278 28 l 319 0 l 56 0 z "},"Ð":{"ha":933,"x_min":42,"x_max":878,"o":"m 425 917 q 533 908 481 917 q 651 871 585 900 q 764 794 717 842 q 844 660 811 747 q 878 458 878 574 q 844 256 878 343 q 764 122 811 169 q 651 46 717 75 q 533 8 585 17 q 425 0 481 0 l 56 0 l 56 28 q 111 53 97 28 q 125 133 125 79 l 125 431 l 42 431 l 42 486 l 125 486 l 125 783 q 111 863 125 838 q 56 889 97 889 l 56 917 l 425 917 m 397 56 q 656 151 560 56 q 753 458 753 247 q 656 765 753 669 q 397 861 560 861 l 250 861 l 250 486 l 458 486 l 458 431 l 250 431 l 250 56 l 397 56 z "},"Ñ":{"ha":1013,"x_min":56,"x_max":957,"o":"m 625 1014 q 545 1033 582 1014 q 487 1076 508 1053 q 442 1119 465 1100 q 397 1139 418 1139 q 372 1028 332 1139 l 289 1056 q 298 1174 267 1126 q 389 1222 329 1222 q 469 1203 432 1222 q 527 1160 506 1183 q 572 1117 549 1136 q 617 1097 596 1097 q 642 1208 682 1097 l 725 1181 q 716 1062 747 1110 q 625 1014 685 1014 m 56 0 l 56 28 q 111 53 97 28 q 125 133 125 79 l 125 783 q 111 863 125 838 q 56 889 97 889 l 56 917 l 139 917 q 230 891 193 914 q 315 806 267 868 l 832 140 l 832 783 q 818 863 832 838 q 763 889 804 889 l 763 917 l 957 917 l 957 889 q 901 863 915 889 q 888 783 888 838 l 888 0 q 788 22 826 0 q 697 111 749 44 l 181 776 l 181 133 q 194 53 181 79 q 250 28 208 28 l 250 0 l 56 0 z "},"Ò":{"ha":986,"x_min":56,"x_max":931,"o":"m 588 1042 l 546 1014 q 343 1222 343 1067 l 482 1194 q 588 1042 482 1083 m 174 119 q 115 185 174 119 q 56 458 56 251 q 174 798 56 665 q 493 931 293 931 q 812 798 693 931 q 931 458 931 665 q 812 119 931 251 q 493 -14 693 -14 q 174 119 293 -14 m 183 421 q 304 128 207 228 q 558 47 401 28 q 761 185 696 64 q 803 496 826 307 q 682 789 779 689 q 428 869 585 889 q 225 731 290 853 q 183 421 160 610 z "},"Ó":{"ha":986,"x_min":56,"x_max":931,"o":"m 371 1042 q 476 1194 476 1083 l 615 1222 q 413 1014 615 1067 l 371 1042 m 174 119 q 115 185 174 119 q 56 458 56 251 q 174 798 56 665 q 493 931 293 931 q 812 798 693 931 q 931 458 931 665 q 812 119 931 251 q 493 -14 693 -14 q 174 119 293 -14 m 183 421 q 304 128 207 228 q 558 47 401 28 q 761 185 696 64 q 803 496 826 307 q 682 789 779 689 q 428 869 585 889 q 225 731 290 853 q 183 421 160 610 z "},"Ô":{"ha":986,"x_min":56,"x_max":931,"o":"m 681 1083 l 653 1014 q 562 1058 603 1025 q 500 1139 521 1090 l 486 1139 q 424 1058 465 1090 q 333 1014 383 1025 l 306 1083 q 391 1137 363 1103 q 431 1222 419 1171 l 556 1222 q 595 1137 567 1171 q 681 1083 624 1103 m 174 119 q 115 185 174 119 q 56 458 56 251 q 174 798 56 665 q 493 931 293 931 q 812 798 693 931 q 931 458 931 665 q 812 119 931 251 q 493 -14 693 -14 q 174 119 293 -14 m 183 421 q 304 128 207 228 q 558 47 401 28 q 761 185 696 64 q 803 496 826 307 q 682 789 779 689 q 428 869 585 889 q 225 731 290 853 q 183 421 160 610 z "},"Õ":{"ha":986,"x_min":56,"x_max":931,"o":"m 611 1014 q 531 1033 568 1014 q 473 1076 494 1053 q 428 1119 451 1100 q 383 1139 404 1139 q 358 1028 318 1139 l 275 1056 q 284 1174 253 1126 q 375 1222 315 1222 q 455 1203 418 1222 q 513 1160 492 1183 q 558 1117 535 1136 q 603 1097 582 1097 q 628 1208 668 1097 l 711 1181 q 702 1062 733 1110 q 611 1014 671 1014 m 174 119 q 115 185 174 119 q 56 458 56 251 q 174 798 56 665 q 493 931 293 931 q 812 798 693 931 q 931 458 931 665 q 812 119 931 251 q 493 -14 693 -14 q 174 119 293 -14 m 183 421 q 304 128 207 228 q 558 47 401 28 q 761 185 696 64 q 803 496 826 307 q 682 789 779 689 q 428 869 585 889 q 225 731 290 853 q 183 421 160 610 z "},"Ö":{"ha":986,"x_min":56,"x_max":931,"o":"m 435 1067 q 425 1057 435 1067 q 385 1046 414 1046 q 334 1067 356 1046 q 313 1119 313 1089 q 334 1169 313 1147 q 385 1190 356 1190 q 435 1169 413 1190 q 457 1119 457 1147 q 435 1067 457 1089 m 652 1067 q 641 1057 652 1067 q 601 1046 631 1046 q 551 1067 572 1046 q 529 1119 529 1089 q 551 1169 529 1147 q 601 1190 572 1190 q 651 1169 629 1190 q 674 1119 674 1147 q 652 1067 674 1089 m 174 119 q 115 185 174 119 q 56 458 56 251 q 174 798 56 665 q 493 931 293 931 q 812 798 693 931 q 931 458 931 665 q 812 119 931 251 q 493 -14 693 -14 q 174 119 293 -14 m 183 421 q 304 128 207 228 q 558 47 401 28 q 761 185 696 64 q 803 496 826 307 q 682 789 779 689 q 428 869 585 889 q 225 731 290 853 q 183 421 160 610 z "},"×":{"ha":539,"x_min":56,"x_max":483,"o":"m 313 347 q 385 290 367 310 l 483 192 l 425 132 l 326 231 q 269 303 304 253 q 213 231 235 253 l 114 132 l 56 192 l 154 290 q 226 347 172 310 q 154 404 181 376 l 56 501 l 114 561 l 213 463 q 269 390 235 440 q 326 463 304 440 l 425 561 l 483 501 l 385 404 q 313 347 358 376 z "},"Ø":{"ha":986,"x_min":56,"x_max":931,"o":"m 693 888 q 868 719 806 832 q 931 458 931 606 q 812 119 931 251 q 493 -14 693 -14 q 344 8 418 -14 l 308 -83 l 249 -83 l 293 29 q 118 198 181 85 q 56 458 56 311 q 174 798 56 665 q 493 931 293 931 q 642 908 568 931 l 678 1000 l 738 1000 l 693 888 m 183 421 q 325 108 208 206 l 614 840 q 428 869 536 882 q 225 731 290 853 q 183 421 160 610 m 558 47 q 761 185 696 64 q 803 496 826 307 q 661 808 778 711 l 372 76 q 558 47 450 35 z "},"Ù":{"ha":958,"x_min":42,"x_max":917,"o":"m 560 1014 q 357 1222 357 1067 l 496 1194 q 601 1042 496 1083 l 560 1014 m 917 917 l 917 889 q 861 863 875 889 q 847 783 847 838 l 846 465 q 828 260 843 343 q 774 112 813 176 q 667 17 736 47 q 493 -14 597 -14 q 301 16 376 -14 q 184 110 225 46 q 127 258 143 175 q 111 465 111 340 l 111 783 q 97 863 111 838 q 42 889 83 889 l 42 917 l 306 917 l 306 889 q 250 863 264 889 q 236 783 236 838 l 235 465 q 294 138 235 235 q 507 42 354 42 q 725 145 663 42 q 792 465 788 249 l 793 783 q 779 863 793 838 q 724 889 765 889 l 724 917 l 917 917 z "},"Ú":{"ha":958,"x_min":42,"x_max":917,"o":"m 629 1222 q 426 1014 629 1067 l 385 1042 q 490 1194 490 1083 l 629 1222 m 917 917 l 917 889 q 861 863 875 889 q 847 783 847 838 l 846 465 q 828 260 843 343 q 774 112 813 176 q 667 17 736 47 q 493 -14 597 -14 q 301 16 376 -14 q 184 110 225 46 q 127 258 143 175 q 111 465 111 340 l 111 783 q 97 863 111 838 q 42 889 83 889 l 42 917 l 306 917 l 306 889 q 250 863 264 889 q 236 783 236 838 l 235 465 q 294 138 235 235 q 507 42 354 42 q 725 145 663 42 q 792 465 788 249 l 793 783 q 779 863 793 838 q 724 889 765 889 l 724 917 l 917 917 z "},"Û":{"ha":958,"x_min":42,"x_max":917,"o":"m 500 1139 q 438 1058 479 1090 q 347 1014 397 1025 l 319 1083 q 405 1137 376 1103 q 444 1222 433 1171 l 569 1222 q 609 1137 581 1171 q 694 1083 638 1103 l 667 1014 q 576 1058 617 1025 q 514 1139 535 1090 l 500 1139 m 917 917 l 917 889 q 861 863 875 889 q 847 783 847 838 l 846 465 q 828 260 843 343 q 774 112 813 176 q 667 17 736 47 q 493 -14 597 -14 q 301 16 376 -14 q 184 110 225 46 q 127 258 143 175 q 111 465 111 340 l 111 783 q 97 863 111 838 q 42 889 83 889 l 42 917 l 306 917 l 306 889 q 250 863 264 889 q 236 783 236 838 l 235 465 q 294 138 235 235 q 507 42 354 42 q 725 145 663 42 q 792 465 788 249 l 793 783 q 779 863 793 838 q 724 889 765 889 l 724 917 l 917 917 z "},"Ü":{"ha":958,"x_min":42,"x_max":917,"o":"m 449 1067 q 439 1057 449 1067 q 399 1046 428 1046 q 348 1067 369 1046 q 326 1119 326 1089 q 348 1169 326 1147 q 399 1190 369 1190 q 449 1169 426 1190 q 471 1119 471 1147 q 449 1067 471 1089 m 666 1067 q 655 1057 666 1067 q 615 1046 644 1046 q 565 1067 586 1046 q 543 1119 543 1089 q 565 1169 543 1147 q 615 1190 586 1190 q 665 1169 643 1190 q 688 1119 688 1147 q 666 1067 688 1089 m 917 917 l 917 889 q 861 863 875 889 q 847 783 847 838 l 846 465 q 828 260 843 343 q 774 112 813 176 q 667 17 736 47 q 493 -14 597 -14 q 301 16 376 -14 q 184 110 225 46 q 127 258 143 175 q 111 465 111 340 l 111 783 q 97 863 111 838 q 42 889 83 889 l 42 917 l 306 917 l 306 889 q 250 863 264 889 q 236 783 236 838 l 235 465 q 294 138 235 235 q 507 42 354 42 q 725 145 663 42 q 792 465 788 249 l 793 783 q 779 863 793 838 q 724 889 765 889 l 724 917 l 917 917 z "},"Ý":{"ha":936,"x_min":14,"x_max":922,"o":"m 592 1222 q 389 1014 592 1067 l 347 1042 q 453 1194 453 1083 l 592 1222 m 922 917 l 922 889 q 779 801 831 889 l 531 369 l 531 133 q 544 53 531 79 q 600 28 558 28 l 600 0 l 336 0 l 336 28 q 392 53 378 28 q 406 133 406 79 l 406 369 l 157 801 q 14 889 106 889 l 14 917 l 375 917 l 375 889 q 283 867 294 889 q 303 801 271 844 l 508 442 l 713 800 q 731 867 743 844 q 639 889 719 889 l 639 917 l 922 917 z "},"Þ":{"ha":864,"x_min":56,"x_max":808,"o":"m 397 778 q 469 777 443 778 q 545 771 496 776 q 625 754 594 765 q 694 722 656 743 q 755 669 733 700 q 792 589 776 638 q 808 478 808 540 q 792 367 808 415 q 755 287 776 318 q 694 233 733 256 q 626 201 656 211 q 546 185 596 190 q 470 178 496 179 q 397 178 444 178 l 250 178 l 250 133 q 264 53 250 79 q 319 28 278 28 l 319 0 l 56 0 l 56 28 q 111 53 97 28 q 125 133 125 79 l 125 783 q 111 863 125 838 q 56 889 97 889 l 56 917 l 319 917 l 319 889 q 264 863 278 889 q 250 783 250 838 l 250 778 l 397 778 m 411 233 q 617 286 550 233 q 683 478 683 339 q 617 669 683 617 q 411 722 550 722 l 250 722 l 250 233 l 411 233 z "},"ß":{"ha":808,"x_min":56,"x_max":781,"o":"m 125 611 q 147 771 125 706 q 211 869 169 836 q 301 917 253 903 q 414 931 350 931 q 596 869 522 931 q 669 665 669 808 q 599 663 628 665 q 540 651 569 660 q 496 623 511 642 q 481 574 481 604 q 503 502 481 533 q 558 452 525 471 q 631 409 592 433 q 703 360 669 385 q 758 290 736 335 q 781 188 781 246 q 714 43 781 100 q 546 -14 647 -14 q 361 58 429 -14 q 333 272 293 131 l 458 244 q 440 92 417 143 q 543 42 463 42 q 628 73 601 42 q 656 147 656 104 q 633 222 656 189 q 578 274 611 254 q 506 319 544 294 q 433 366 467 343 q 378 430 400 389 q 356 522 356 471 q 544 700 356 672 q 517 834 544 793 q 415 875 490 875 q 288 820 326 875 q 250 639 250 765 l 250 83 q 139 0 250 4 l 56 0 l 56 28 q 111 53 97 28 q 125 133 125 79 l 125 611 z "},"à":{"ha":768,"x_min":56,"x_max":740,"o":"m 443 792 q 240 1000 240 844 l 379 972 q 485 819 379 861 l 443 792 m 671 147 q 740 83 671 33 l 740 56 q 701 15 729 29 q 639 0 672 0 q 574 22 603 0 q 546 96 546 43 l 546 119 l 532 119 q 414 22 490 58 q 254 -14 338 -14 q 110 28 164 -14 q 56 157 56 71 q 77 246 56 206 q 140 313 99 286 q 226 360 182 340 q 333 392 269 379 q 440 413 396 406 q 544 426 483 419 q 508 600 540 547 q 388 653 476 653 q 246 598 289 653 q 235 457 203 543 l 110 429 q 156 628 78 547 q 394 708 233 708 q 608 629 544 708 q 671 367 671 550 l 671 147 m 546 283 l 546 372 q 285 303 389 357 q 181 158 181 250 q 292 42 181 42 q 463 114 379 42 q 546 267 546 186 l 546 283 z "},"á":{"ha":768,"x_min":56,"x_max":740,"o":"m 513 1000 q 310 792 513 844 l 268 819 q 374 972 374 861 l 513 1000 m 671 147 q 740 83 671 33 l 740 56 q 701 15 729 29 q 639 0 672 0 q 574 22 603 0 q 546 96 546 43 l 546 119 l 532 119 q 414 22 490 58 q 254 -14 338 -14 q 110 28 164 -14 q 56 157 56 71 q 77 246 56 206 q 140 313 99 286 q 226 360 182 340 q 333 392 269 379 q 440 413 396 406 q 544 426 483 419 q 508 600 540 547 q 388 653 476 653 q 246 598 289 653 q 235 457 203 543 l 110 429 q 156 628 78 547 q 394 708 233 708 q 608 629 544 708 q 671 367 671 550 l 671 147 m 546 283 l 546 372 q 285 303 389 357 q 181 158 181 250 q 292 42 181 42 q 463 114 379 42 q 546 267 546 186 l 546 283 z "},"â":{"ha":768,"x_min":56,"x_max":740,"o":"m 383 917 q 322 835 363 868 q 231 792 281 803 l 203 861 q 288 915 260 881 q 328 1000 317 949 l 453 1000 q 492 915 464 949 q 578 861 521 881 l 550 792 q 459 835 500 803 q 397 917 418 868 l 383 917 m 671 147 q 740 83 671 33 l 740 56 q 701 15 729 29 q 639 0 672 0 q 574 22 603 0 q 546 96 546 43 l 546 119 l 532 119 q 414 22 490 58 q 254 -14 338 -14 q 110 28 164 -14 q 56 157 56 71 q 77 246 56 206 q 140 313 99 286 q 226 360 182 340 q 333 392 269 379 q 440 413 396 406 q 544 426 483 419 q 508 600 540 547 q 388 653 476 653 q 246 598 289 653 q 235 457 203 543 l 110 429 q 156 628 78 547 q 394 708 233 708 q 608 629 544 708 q 671 367 671 550 l 671 147 m 546 283 l 546 372 q 285 303 389 357 q 181 158 181 250 q 292 42 181 42 q 463 114 379 42 q 546 267 546 186 l 546 283 z "},"ã":{"ha":768,"x_min":56,"x_max":740,"o":"m 256 806 l 172 833 q 181 952 150 904 q 272 1000 213 1000 q 352 981 315 1000 q 410 938 389 961 q 456 894 432 914 q 500 875 479 875 q 525 986 565 875 l 608 958 q 599 840 631 888 q 508 792 568 792 q 428 811 465 792 q 370 854 392 831 q 325 897 349 878 q 281 917 301 917 q 256 806 215 917 m 671 147 q 740 83 671 33 l 740 56 q 701 15 729 29 q 639 0 672 0 q 574 22 603 0 q 546 96 546 43 l 546 119 l 532 119 q 414 22 490 58 q 254 -14 338 -14 q 110 28 164 -14 q 56 157 56 71 q 77 246 56 206 q 140 313 99 286 q 226 360 182 340 q 333 392 269 379 q 440 413 396 406 q 544 426 483 419 q 508 600 540 547 q 388 653 476 653 q 246 598 289 653 q 235 457 203 543 l 110 429 q 156 628 78 547 q 394 708 233 708 q 608 629 544 708 q 671 367 671 550 l 671 147 m 546 283 l 546 372 q 285 303 389 357 q 181 158 181 250 q 292 42 181 42 q 463 114 379 42 q 546 267 546 186 l 546 283 z "},"ä":{"ha":768,"x_min":56,"x_max":740,"o":"m 333 845 q 322 834 333 845 q 282 824 311 824 q 231 845 253 824 q 210 897 210 867 q 231 947 210 925 q 282 968 253 968 q 332 947 310 968 q 354 897 354 925 q 333 845 354 867 m 549 845 q 539 834 549 845 q 499 824 528 824 q 448 845 469 824 q 426 897 426 867 q 448 947 426 925 q 499 968 469 968 q 549 947 526 968 q 571 897 571 925 q 549 845 571 867 m 671 147 q 740 83 671 33 l 740 56 q 701 15 729 29 q 639 0 672 0 q 574 22 603 0 q 546 96 546 43 l 546 119 l 532 119 q 414 22 490 58 q 254 -14 338 -14 q 110 28 164 -14 q 56 157 56 71 q 77 246 56 206 q 140 313 99 286 q 226 360 182 340 q 333 392 269 379 q 440 413 396 406 q 544 426 483 419 q 508 600 540 547 q 388 653 476 653 q 246 598 289 653 q 235 457 203 543 l 110 429 q 156 628 78 547 q 394 708 233 708 q 608 629 544 708 q 671 367 671 550 l 671 147 m 546 283 l 546 372 q 285 303 389 357 q 181 158 181 250 q 292 42 181 42 q 463 114 379 42 q 546 267 546 186 l 546 283 z "},"å":{"ha":768,"x_min":56,"x_max":740,"o":"m 488 821 q 471 806 488 821 q 390 792 454 792 q 292 821 326 792 q 258 896 258 850 q 292 970 258 940 q 390 1000 326 1000 q 488 970 453 1000 q 522 896 522 940 q 488 821 522 850 m 439 896 q 439 920 439 896 q 390 944 439 944 q 342 896 342 944 q 390 847 342 847 q 439 896 439 847 m 671 147 q 740 83 671 33 l 740 56 q 701 15 729 29 q 639 0 672 0 q 574 22 603 0 q 546 96 546 43 l 546 119 l 532 119 q 414 22 490 58 q 254 -14 338 -14 q 110 28 164 -14 q 56 157 56 71 q 77 246 56 206 q 140 313 99 286 q 226 360 182 340 q 333 392 269 379 q 440 413 396 406 q 544 426 483 419 q 508 600 540 547 q 388 653 476 653 q 246 598 289 653 q 235 457 203 543 l 110 429 q 156 628 78 547 q 394 708 233 708 q 608 629 544 708 q 671 367 671 550 l 671 147 m 546 283 l 546 372 q 285 303 389 357 q 181 158 181 250 q 292 42 181 42 q 463 114 379 42 q 546 267 546 186 l 546 283 z "},"æ":{"ha":1254,"x_min":56,"x_max":1201,"o":"m 1065 225 l 1190 253 q 1126 68 1201 150 q 908 -14 1050 -14 q 568 186 640 -14 q 453 34 533 82 q 268 -14 372 -14 q 112 28 168 -14 q 56 157 56 71 q 77 246 56 206 q 140 313 99 286 q 226 360 182 340 q 333 392 269 379 q 440 413 396 406 q 544 426 483 419 q 534 511 542 475 q 509 582 526 547 q 460 635 492 617 q 383 653 429 653 q 244 599 285 653 q 235 457 203 544 l 110 429 q 154 628 78 547 q 390 708 231 708 q 626 579 557 708 q 921 708 729 708 q 1124 653 1049 708 q 1199 504 1199 597 q 1142 381 1199 428 q 1003 320 1086 333 q 831 313 919 307 q 671 342 743 318 l 671 319 q 734 115 671 188 q 894 42 797 42 q 1065 225 1085 42 m 921 653 q 755 584 817 653 q 676 400 693 515 q 978 385 882 353 q 1074 519 1074 418 q 1035 616 1074 579 q 921 653 996 653 m 292 42 q 473 122 400 42 q 546 329 546 203 l 546 372 q 285 303 389 357 q 181 158 181 250 q 292 42 181 42 z "},"ç":{"ha":781,"x_min":56,"x_max":731,"o":"m 725 306 q 654 88 731 175 q 446 -11 578 1 l 392 -106 l 406 -106 q 488 -83 442 -83 q 564 -109 532 -83 q 596 -187 596 -135 q 549 -285 596 -251 q 435 -318 503 -318 q 326 -283 369 -318 q 299 -185 282 -249 l 382 -210 q 387 -249 369 -236 q 429 -262 404 -262 q 490 -244 468 -262 q 513 -189 513 -225 q 458 -139 513 -139 q 368 -161 406 -139 l 340 -153 l 367 -12 q 134 101 213 0 q 56 347 56 203 q 143 604 56 500 q 403 708 231 708 q 633 623 550 708 q 711 403 717 538 l 586 431 q 546 590 597 526 q 403 653 494 653 q 235 568 290 653 q 181 347 181 483 q 235 126 181 211 q 403 42 290 42 q 553 108 496 42 q 600 278 610 174 l 725 306 z "},"è":{"ha":764,"x_min":56,"x_max":711,"o":"m 504 792 q 301 1000 301 844 l 440 972 q 546 819 440 861 l 504 792 m 575 225 l 700 253 q 635 68 711 150 q 418 -14 560 -14 q 144 80 232 -14 q 56 329 56 174 q 160 606 56 503 q 431 708 265 708 q 633 653 558 708 q 708 504 708 597 q 652 381 708 428 q 513 320 596 333 q 341 313 429 307 q 181 342 253 318 l 181 319 q 244 115 181 188 q 404 42 307 42 q 575 225 594 42 m 431 653 q 265 584 326 653 q 186 400 203 515 q 488 385 392 353 q 583 519 583 418 q 544 616 583 579 q 431 653 506 653 z "},"é":{"ha":764,"x_min":56,"x_max":711,"o":"m 574 1000 q 371 792 574 844 l 329 819 q 435 972 435 861 l 574 1000 m 575 225 l 700 253 q 635 68 711 150 q 418 -14 560 -14 q 144 80 232 -14 q 56 329 56 174 q 160 606 56 503 q 431 708 265 708 q 633 653 558 708 q 708 504 708 597 q 652 381 708 428 q 513 320 596 333 q 341 313 429 307 q 181 342 253 318 l 181 319 q 244 115 181 188 q 404 42 307 42 q 575 225 594 42 m 431 653 q 265 584 326 653 q 186 400 203 515 q 488 385 392 353 q 583 519 583 418 q 544 616 583 579 q 431 653 506 653 z "},"ê":{"ha":764,"x_min":56,"x_max":711,"o":"m 444 917 q 383 835 424 868 q 292 792 342 803 l 264 861 q 349 915 321 881 q 389 1000 378 949 l 514 1000 q 553 915 525 949 q 639 861 582 881 l 611 792 q 520 835 561 803 q 458 917 479 868 l 444 917 m 575 225 l 700 253 q 635 68 711 150 q 418 -14 560 -14 q 144 80 232 -14 q 56 329 56 174 q 160 606 56 503 q 431 708 265 708 q 633 653 558 708 q 708 504 708 597 q 652 381 708 428 q 513 320 596 333 q 341 313 429 307 q 181 342 253 318 l 181 319 q 244 115 181 188 q 404 42 307 42 q 575 225 594 42 m 431 653 q 265 584 326 653 q 186 400 203 515 q 488 385 392 353 q 583 519 583 418 q 544 616 583 579 q 431 653 506 653 z "},"ë":{"ha":764,"x_min":56,"x_max":711,"o":"m 394 845 q 383 834 394 845 q 343 824 372 824 q 292 845 314 824 q 271 897 271 867 q 292 947 271 925 q 343 968 314 968 q 393 947 371 968 q 415 897 415 925 q 394 845 415 867 m 610 845 q 600 834 610 845 q 560 824 589 824 q 509 845 531 824 q 488 897 488 867 q 509 947 488 925 q 560 968 531 968 q 610 947 588 968 q 632 897 632 925 q 610 845 632 867 m 575 225 l 700 253 q 635 68 711 150 q 418 -14 560 -14 q 144 80 232 -14 q 56 329 56 174 q 160 606 56 503 q 431 708 265 708 q 633 653 558 708 q 708 504 708 597 q 652 381 708 428 q 513 320 596 333 q 341 313 429 307 q 181 342 253 318 l 181 319 q 244 115 181 188 q 404 42 307 42 q 575 225 594 42 m 431 653 q 265 584 326 653 q 186 400 203 515 q 488 385 392 353 q 583 519 583 418 q 544 616 583 579 q 431 653 506 653 z "},"ì":{"ha":375,"x_min":38,"x_max":319,"o":"m 282 819 l 240 792 q 38 1000 38 844 l 176 972 q 282 819 176 861 m 250 629 l 250 133 q 264 53 250 79 q 319 28 278 28 l 319 0 l 56 0 l 56 28 q 111 53 97 28 q 125 133 125 79 l 125 561 q 111 641 125 615 q 56 667 97 667 l 56 694 l 139 694 q 192 691 171 694 q 232 672 214 688 q 250 629 250 657 z "},"í":{"ha":375,"x_min":56,"x_max":319,"o":"m 65 819 q 171 972 171 861 l 310 1000 q 107 792 310 844 l 65 819 m 250 629 l 250 133 q 264 53 250 79 q 319 28 278 28 l 319 0 l 56 0 l 56 28 q 111 53 97 28 q 125 133 125 79 l 125 561 q 111 641 125 615 q 56 667 97 667 l 56 694 l 139 694 q 192 691 171 694 q 232 672 214 688 q 250 629 250 657 z "},"î":{"ha":375,"x_min":0,"x_max":375,"o":"m 375 861 l 347 792 q 256 835 297 803 q 194 917 215 868 l 181 917 q 119 835 160 868 q 28 792 78 803 l 0 861 q 85 915 57 881 q 125 1000 114 949 l 250 1000 q 290 915 261 949 q 375 861 318 881 m 250 629 l 250 133 q 264 53 250 79 q 319 28 278 28 l 319 0 l 56 0 l 56 28 q 111 53 97 28 q 125 133 125 79 l 125 561 q 111 641 125 615 q 56 667 97 667 l 56 694 l 139 694 q 192 691 171 694 q 232 672 214 688 q 250 629 250 657 z "},"ï":{"ha":375,"x_min":7,"x_max":368,"o":"m 130 845 q 119 834 130 845 q 79 824 108 824 q 28 845 50 824 q 7 897 7 867 q 28 947 7 925 q 79 968 50 968 q 129 947 107 968 q 151 897 151 925 q 130 845 151 867 m 347 845 q 336 834 347 845 q 296 824 325 824 q 245 845 267 824 q 224 897 224 867 q 245 947 224 925 q 296 968 267 968 q 346 947 324 968 q 368 897 368 925 q 347 845 368 867 m 250 629 l 250 133 q 264 53 250 79 q 319 28 278 28 l 319 0 l 56 0 l 56 28 q 111 53 97 28 q 125 133 125 79 l 125 561 q 111 641 125 615 q 56 667 97 667 l 56 694 l 139 694 q 192 691 171 694 q 232 672 214 688 q 250 629 250 657 z "},"ð":{"ha":803,"x_min":56,"x_max":747,"o":"m 571 882 q 747 375 747 726 q 653 86 747 186 q 407 -14 560 -14 q 158 86 260 -14 q 56 361 56 186 q 147 613 56 518 q 379 708 238 708 q 540 657 467 708 q 650 506 613 606 l 664 506 q 500 850 646 736 l 321 768 l 297 818 l 446 886 q 185 944 340 944 l 213 1000 q 521 921 399 1000 l 696 1000 l 719 950 l 571 882 m 444 44 q 560 101 517 53 q 617 219 604 150 q 621 374 631 288 q 540 585 604 507 q 369 650 476 664 q 253 593 297 642 q 197 476 210 544 q 193 321 183 407 q 274 109 210 188 q 444 44 338 31 z "},"ñ":{"ha":863,"x_min":56,"x_max":807,"o":"m 297 806 l 214 833 q 223 952 192 904 q 314 1000 254 1000 q 394 981 357 1000 q 452 938 431 961 q 497 894 474 914 q 542 875 521 875 q 567 986 607 875 l 650 958 q 641 840 672 888 q 550 792 610 792 q 470 811 507 792 q 412 854 433 831 q 367 897 390 878 q 322 917 343 917 q 297 806 257 917 m 738 133 q 751 53 738 79 q 807 28 765 28 l 807 0 l 543 0 l 543 28 q 599 53 585 28 q 613 133 613 79 l 613 457 q 581 604 613 556 q 478 653 550 653 q 347 590 400 653 q 272 440 293 528 q 250 250 250 351 l 250 133 q 264 53 250 79 q 319 28 278 28 l 319 0 l 56 0 l 56 28 q 111 53 97 28 q 125 133 125 79 l 125 561 q 111 641 125 615 q 56 667 97 667 l 56 694 l 139 694 q 192 691 171 694 q 232 672 214 688 q 250 629 250 657 l 250 478 l 264 478 q 346 649 285 589 q 506 708 407 708 q 738 443 738 708 l 738 133 z "},"ò":{"ha":806,"x_min":56,"x_max":750,"o":"m 497 819 l 456 792 q 253 1000 253 844 l 392 972 q 497 819 392 861 m 147 92 q 101 144 147 92 q 56 347 56 197 q 147 603 56 497 q 403 708 239 708 q 658 603 567 708 q 750 347 750 497 q 658 92 750 197 q 403 -14 567 -14 q 147 92 239 -14 m 182 319 q 263 108 199 185 q 440 44 328 31 q 597 149 553 58 q 624 375 640 239 q 542 587 607 510 q 365 650 478 664 q 209 546 253 636 q 182 319 165 456 z "},"ó":{"ha":806,"x_min":56,"x_max":750,"o":"m 281 819 q 386 972 386 861 l 525 1000 q 322 792 525 844 l 281 819 m 147 92 q 101 144 147 92 q 56 347 56 197 q 147 603 56 497 q 403 708 239 708 q 658 603 567 708 q 750 347 750 497 q 658 92 750 197 q 403 -14 567 -14 q 147 92 239 -14 m 182 319 q 263 108 199 185 q 440 44 328 31 q 597 149 553 58 q 624 375 640 239 q 542 587 607 510 q 365 650 478 664 q 209 546 253 636 q 182 319 165 456 z "},"ô":{"ha":806,"x_min":56,"x_max":750,"o":"m 590 861 l 563 792 q 472 835 513 803 q 410 917 431 868 l 396 917 q 334 835 375 868 q 243 792 293 803 l 215 861 q 301 915 272 881 q 340 1000 329 949 l 465 1000 q 505 915 476 949 q 590 861 533 881 m 147 92 q 101 144 147 92 q 56 347 56 197 q 147 603 56 497 q 403 708 239 708 q 658 603 567 708 q 750 347 750 497 q 658 92 750 197 q 403 -14 567 -14 q 147 92 239 -14 m 182 319 q 263 108 199 185 q 440 44 328 31 q 597 149 553 58 q 624 375 640 239 q 542 587 607 510 q 365 650 478 664 q 209 546 253 636 q 182 319 165 456 z "},"õ":{"ha":806,"x_min":56,"x_max":750,"o":"m 521 792 q 441 811 478 792 q 383 854 404 831 q 338 897 361 878 q 293 917 314 917 q 268 806 228 917 l 185 833 q 194 952 163 904 q 285 1000 225 1000 q 365 981 328 1000 q 423 938 401 961 q 468 894 444 914 q 513 875 492 875 q 538 986 578 875 l 621 958 q 612 840 643 888 q 521 792 581 792 m 147 92 q 101 144 147 92 q 56 347 56 197 q 147 603 56 497 q 403 708 239 708 q 658 603 567 708 q 750 347 750 497 q 658 92 750 197 q 403 -14 567 -14 q 147 92 239 -14 m 182 319 q 263 108 199 185 q 440 44 328 31 q 597 149 553 58 q 624 375 640 239 q 542 587 607 510 q 365 650 478 664 q 209 546 253 636 q 182 319 165 456 z "},"ö":{"ha":806,"x_min":56,"x_max":750,"o":"m 345 845 q 334 834 345 845 q 294 824 324 824 q 244 845 265 824 q 222 897 222 867 q 244 947 222 925 q 294 968 265 968 q 344 947 322 968 q 367 897 367 925 q 345 845 367 867 m 562 845 q 551 834 562 845 q 511 824 540 824 q 460 845 482 824 q 439 897 439 867 q 460 947 439 925 q 511 968 482 968 q 561 947 539 968 q 583 897 583 925 q 562 845 583 867 m 147 92 q 101 144 147 92 q 56 347 56 197 q 147 603 56 497 q 403 708 239 708 q 658 603 567 708 q 750 347 750 497 q 658 92 750 197 q 403 -14 567 -14 q 147 92 239 -14 m 182 319 q 263 108 199 185 q 440 44 328 31 q 597 149 553 58 q 624 375 640 239 q 542 587 607 510 q 365 650 478 664 q 209 546 253 636 q 182 319 165 456 z "},"÷":{"ha":633,"x_min":56,"x_max":578,"o":"m 317 458 q 264 479 283 458 q 244 532 244 500 q 265 582 244 561 q 317 603 285 603 q 369 582 349 603 q 389 532 389 561 q 369 479 389 500 q 317 458 349 458 m 56 389 l 578 389 l 578 306 l 56 306 l 56 389 m 317 92 q 264 113 283 92 q 244 165 244 133 q 265 215 244 194 q 317 236 285 236 q 369 215 349 236 q 389 165 389 194 q 369 113 389 133 q 317 92 349 92 z "},"ø":{"ha":806,"x_min":56,"x_max":750,"o":"m 563 675 q 701 543 653 632 q 750 347 750 454 q 658 92 750 197 q 403 -14 567 -14 q 296 0 349 -14 l 218 -194 l 158 -194 l 243 19 q 104 151 153 63 q 56 347 56 240 q 147 603 56 497 q 403 708 239 708 q 510 694 457 708 l 588 889 l 647 889 l 563 675 m 182 319 q 274 97 200 168 l 486 632 q 365 650 432 658 q 209 546 253 636 q 182 319 165 456 m 440 44 q 597 149 553 58 q 624 375 640 239 q 532 597 606 526 l 319 63 q 440 44 374 36 z "},"ù":{"ha":863,"x_min":56,"x_max":807,"o":"m 485 792 q 282 1000 282 844 l 421 972 q 526 819 421 861 l 485 792 m 807 667 q 751 641 765 667 q 738 561 738 615 l 738 133 q 751 53 738 79 q 807 28 765 28 l 807 0 l 724 0 q 670 3 692 0 q 631 22 649 7 q 613 65 613 38 l 613 217 l 599 217 q 517 46 578 106 q 357 -14 456 -14 q 125 251 125 -14 l 125 561 q 111 641 125 615 q 56 667 97 667 l 56 694 l 319 694 l 319 667 q 264 641 278 667 q 250 561 250 615 l 250 238 q 281 90 250 139 q 385 42 313 42 q 516 104 463 42 q 591 255 569 167 q 613 444 613 343 l 613 561 q 599 641 613 615 q 543 667 585 667 l 543 694 l 807 694 l 807 667 z "},"ú":{"ha":863,"x_min":56,"x_max":807,"o":"m 554 1000 q 351 792 554 844 l 310 819 q 415 972 415 861 l 554 1000 m 807 667 q 751 641 765 667 q 738 561 738 615 l 738 133 q 751 53 738 79 q 807 28 765 28 l 807 0 l 724 0 q 670 3 692 0 q 631 22 649 7 q 613 65 613 38 l 613 217 l 599 217 q 517 46 578 106 q 357 -14 456 -14 q 125 251 125 -14 l 125 561 q 111 641 125 615 q 56 667 97 667 l 56 694 l 319 694 l 319 667 q 264 641 278 667 q 250 561 250 615 l 250 238 q 281 90 250 139 q 385 42 313 42 q 516 104 463 42 q 591 255 569 167 q 613 444 613 343 l 613 561 q 599 641 613 615 q 543 667 585 667 l 543 694 l 807 694 l 807 667 z "},"û":{"ha":863,"x_min":56,"x_max":807,"o":"m 425 917 q 363 835 404 868 q 272 792 322 803 l 244 861 q 330 915 301 881 q 369 1000 358 949 l 494 1000 q 534 915 506 949 q 619 861 563 881 l 592 792 q 501 835 542 803 q 439 917 460 868 l 425 917 m 807 667 q 751 641 765 667 q 738 561 738 615 l 738 133 q 751 53 738 79 q 807 28 765 28 l 807 0 l 724 0 q 670 3 692 0 q 631 22 649 7 q 613 65 613 38 l 613 217 l 599 217 q 517 46 578 106 q 357 -14 456 -14 q 125 251 125 -14 l 125 561 q 111 641 125 615 q 56 667 97 667 l 56 694 l 319 694 l 319 667 q 264 641 278 667 q 250 561 250 615 l 250 238 q 281 90 250 139 q 385 42 313 42 q 516 104 463 42 q 591 255 569 167 q 613 444 613 343 l 613 561 q 599 641 613 615 q 543 667 585 667 l 543 694 l 807 694 l 807 667 z "},"ü":{"ha":863,"x_min":56,"x_max":807,"o":"m 374 845 q 364 834 374 845 q 324 824 353 824 q 273 845 294 824 q 251 897 251 867 q 273 947 251 925 q 324 968 294 968 q 374 947 351 968 q 396 897 396 925 q 374 845 396 867 m 591 845 q 580 834 591 845 q 540 824 569 824 q 490 845 511 824 q 468 897 468 867 q 490 947 468 925 q 540 968 511 968 q 590 947 568 968 q 613 897 613 925 q 591 845 613 867 m 807 667 q 751 641 765 667 q 738 561 738 615 l 738 133 q 751 53 738 79 q 807 28 765 28 l 807 0 l 724 0 q 670 3 692 0 q 631 22 649 7 q 613 65 613 38 l 613 217 l 599 217 q 517 46 578 106 q 357 -14 456 -14 q 125 251 125 -14 l 125 561 q 111 641 125 615 q 56 667 97 667 l 56 694 l 319 694 l 319 667 q 264 641 278 667 q 250 561 250 615 l 250 238 q 281 90 250 139 q 385 42 313 42 q 516 104 463 42 q 591 255 569 167 q 613 444 613 343 l 613 561 q 599 641 613 615 q 543 667 585 667 l 543 694 l 807 694 l 807 667 z "},"ý":{"ha":863,"x_min":14,"x_max":849,"o":"m 582 1000 q 379 792 582 844 l 338 819 q 443 972 443 861 l 582 1000 m 849 694 l 849 667 q 717 571 756 667 l 496 1 l 497 0 l 496 0 l 474 -57 q 443 -133 453 -110 q 414 -192 433 -157 q 376 -240 394 -226 q 330 -266 358 -254 q 267 -278 301 -278 q 125 -208 168 -278 q 124 -28 82 -139 l 249 -56 q 265 -222 165 -222 q 346 -181 311 -222 q 414 -57 381 -140 l 436 0 l 364 0 l 144 569 q 14 667 108 667 l 14 694 l 369 694 l 369 667 q 272 642 289 667 q 278 569 254 617 l 467 79 l 656 569 q 664 642 681 617 q 565 667 647 667 l 565 694 l 849 694 z "},"þ":{"ha":889,"x_min":56,"x_max":833,"o":"m 742 611 q 788 563 742 611 q 833 347 833 514 q 742 83 833 181 q 507 -14 650 -14 q 358 31 424 -14 q 264 147 292 75 l 250 147 l 250 -172 q 264 -252 250 -226 q 319 -278 278 -278 l 319 -306 l 56 -306 l 56 -278 q 111 -252 97 -278 q 125 -172 125 -226 l 125 867 q 111 947 125 921 q 56 972 97 972 l 56 1000 l 139 1000 q 192 996 171 1000 q 232 972 214 992 q 250 917 250 953 l 250 547 l 264 547 q 358 664 292 619 q 507 708 424 708 q 742 611 650 708 m 640 128 q 667 171 640 128 q 694 347 694 214 q 640 567 694 481 q 479 653 586 653 q 318 567 372 653 q 264 347 264 481 q 318 128 264 214 q 479 42 372 42 q 640 128 586 42 z "},"ÿ":{"ha":863,"x_min":14,"x_max":849,"o":"m 402 845 q 391 834 402 845 q 351 824 381 824 q 301 845 322 824 q 279 897 279 867 q 301 947 279 925 q 351 968 322 968 q 401 947 379 968 q 424 897 424 925 q 402 845 424 867 m 619 845 q 608 834 619 845 q 568 824 597 824 q 517 845 539 824 q 496 897 496 867 q 517 947 496 925 q 568 968 539 968 q 618 947 596 968 q 640 897 640 925 q 619 845 640 867 m 849 694 l 849 667 q 717 571 756 667 l 496 1 l 497 0 l 496 0 l 474 -57 q 443 -133 453 -110 q 414 -192 433 -157 q 376 -240 394 -226 q 330 -266 358 -254 q 267 -278 301 -278 q 125 -208 168 -278 q 124 -28 82 -139 l 249 -56 q 265 -222 165 -222 q 346 -181 311 -222 q 414 -57 381 -140 l 436 0 l 364 0 l 144 569 q 14 667 108 667 l 14 694 l 369 694 l 369 667 q 272 642 289 667 q 278 569 254 617 l 467 79 l 656 569 q 664 642 681 617 q 565 667 647 667 l 565 694 l 849 694 z "},"Ā":{"ha":1058,"x_min":28,"x_max":1031,"o":"m 724 1146 l 724 1090 l 325 1090 l 325 1146 l 724 1146 m 900 125 q 1031 28 936 28 l 1031 0 l 675 0 l 675 28 q 773 53 756 28 q 767 125 790 78 l 654 418 l 329 418 l 217 125 q 210 53 193 78 q 308 28 228 28 l 308 0 l 28 0 l 28 28 q 158 125 122 28 l 425 818 q 424 872 436 856 q 358 889 411 889 l 358 917 l 596 917 l 900 125 m 351 474 l 633 474 l 492 839 l 351 474 m 417 796 l 415 792 l 417 793 q 417 796 417 794 z "},"ā":{"ha":768,"x_min":56,"x_max":740,"o":"m 589 924 l 589 868 l 190 868 l 190 924 l 589 924 m 671 147 q 740 83 671 33 l 740 56 q 701 15 729 29 q 639 0 672 0 q 574 22 603 0 q 546 96 546 43 l 546 119 l 532 119 q 414 22 490 58 q 254 -14 338 -14 q 110 28 164 -14 q 56 157 56 71 q 77 246 56 206 q 140 313 99 286 q 226 360 182 340 q 333 392 269 379 q 440 413 396 406 q 544 426 483 419 q 508 600 540 547 q 388 653 476 653 q 246 598 289 653 q 235 457 203 543 l 110 429 q 156 628 78 547 q 394 708 233 708 q 608 629 544 708 q 671 367 671 550 l 671 147 m 546 283 l 546 372 q 285 303 389 357 q 181 158 181 250 q 292 42 181 42 q 463 114 379 42 q 546 267 546 186 l 546 283 z "},"Ă":{"ha":1058,"x_min":28,"x_max":1031,"o":"m 532 1014 q 385 1076 432 1014 q 338 1222 338 1138 l 463 1222 q 485 1106 463 1142 q 560 1069 508 1069 q 634 1106 611 1069 q 657 1222 657 1142 l 713 1222 q 704 1148 713 1182 q 677 1082 696 1114 q 622 1032 658 1050 q 532 1014 585 1014 m 900 125 q 1031 28 936 28 l 1031 0 l 675 0 l 675 28 q 773 53 756 28 q 767 125 790 78 l 654 418 l 329 418 l 217 125 q 210 53 193 78 q 308 28 228 28 l 308 0 l 28 0 l 28 28 q 158 125 122 28 l 425 818 q 424 872 436 856 q 358 889 411 889 l 358 917 l 596 917 l 900 125 m 351 474 l 633 474 l 492 839 l 351 474 m 417 796 l 415 792 l 417 793 q 417 796 417 794 z "},"ă":{"ha":768,"x_min":56,"x_max":740,"o":"m 397 792 q 250 853 297 792 q 203 1000 203 915 l 328 1000 q 351 883 328 919 q 425 847 374 847 q 499 883 476 847 q 522 1000 522 919 l 578 1000 q 569 926 578 960 q 542 860 561 892 q 487 810 524 828 q 397 792 450 792 m 671 147 q 740 83 671 33 l 740 56 q 701 15 729 29 q 639 0 672 0 q 574 22 603 0 q 546 96 546 43 l 546 119 l 532 119 q 414 22 490 58 q 254 -14 338 -14 q 110 28 164 -14 q 56 157 56 71 q 77 246 56 206 q 140 313 99 286 q 226 360 182 340 q 333 392 269 379 q 440 413 396 406 q 544 426 483 419 q 508 600 540 547 q 388 653 476 653 q 246 598 289 653 q 235 457 203 543 l 110 429 q 156 628 78 547 q 394 708 233 708 q 608 629 544 708 q 671 367 671 550 l 671 147 m 546 283 l 546 372 q 285 303 389 357 q 181 158 181 250 q 292 42 181 42 q 463 114 379 42 q 546 267 546 186 l 546 283 z "},"Ą":{"ha":1058,"x_min":28,"x_max":1031,"o":"m 921 0 q 789 -156 789 -86 q 844 -224 789 -210 q 967 -192 899 -237 l 994 -247 q 867 -308 939 -297 q 743 -284 794 -318 q 692 -186 692 -250 q 851 -14 692 -87 l 851 0 l 675 0 l 675 28 q 773 53 756 28 q 767 125 790 78 l 654 418 l 329 418 l 217 125 q 210 53 193 78 q 308 28 228 28 l 308 0 l 28 0 l 28 28 q 158 125 122 28 l 425 818 q 424 872 436 856 q 358 889 411 889 l 358 917 l 596 917 l 900 125 q 1031 28 936 28 l 1031 0 l 921 0 m 351 474 l 633 474 l 492 839 l 351 474 m 417 796 l 415 792 l 417 793 q 417 796 417 794 z "},"ą":{"ha":796,"x_min":56,"x_max":779,"o":"m 751 -192 l 779 -247 q 651 -308 724 -297 q 528 -284 579 -318 q 476 -186 476 -250 q 636 -14 476 -87 l 636 0 q 573 23 600 1 q 546 96 546 44 l 546 119 l 532 119 q 414 22 490 58 q 254 -14 338 -14 q 110 28 164 -14 q 56 157 56 71 q 77 246 56 206 q 140 313 99 286 q 226 360 182 340 q 333 392 269 379 q 440 413 396 406 q 544 426 483 419 q 508 600 540 547 q 388 653 476 653 q 246 598 289 653 q 235 457 203 543 l 110 429 q 156 628 78 547 q 394 708 233 708 q 608 629 544 708 q 671 367 671 550 l 671 147 q 740 83 671 33 l 740 56 q 683 -14 726 21 q 607 -82 640 -49 q 574 -156 574 -115 q 628 -224 574 -210 q 751 -192 683 -237 m 546 283 l 546 372 q 285 303 389 357 q 181 158 181 250 q 292 42 181 42 q 463 114 379 42 q 546 267 546 186 l 546 283 z "},"Ć":{"ha":892,"x_min":56,"x_max":842,"o":"m 365 1042 q 471 1194 471 1083 l 610 1222 q 407 1014 610 1067 l 365 1042 m 56 458 q 169 806 56 682 q 486 931 283 931 q 744 840 647 931 q 836 597 842 749 l 711 625 q 656 807 721 739 q 486 875 592 875 q 263 763 346 875 q 181 458 181 651 q 257 152 181 263 q 472 42 333 42 q 654 112 588 42 q 711 306 721 182 l 836 333 q 743 79 842 172 q 472 -14 644 -14 q 163 110 271 -14 q 56 458 56 233 z "},"ć":{"ha":781,"x_min":56,"x_max":731,"o":"m 282 819 q 388 972 388 861 l 526 1000 q 324 792 526 844 l 282 819 m 143 90 q 99 142 143 90 q 56 347 56 194 q 143 604 56 500 q 403 708 231 708 q 633 623 550 708 q 711 403 717 538 l 586 431 q 546 590 597 526 q 403 653 494 653 q 235 568 290 653 q 181 347 181 483 q 235 126 181 211 q 403 42 290 42 q 553 108 496 42 q 600 278 610 174 l 725 306 q 642 75 731 164 q 403 -14 553 -14 q 143 90 231 -14 z "},"Ċ":{"ha":892,"x_min":56,"x_max":842,"o":"m 538 1067 q 527 1057 538 1067 q 488 1046 517 1046 q 437 1067 458 1046 q 415 1119 415 1089 q 437 1169 415 1147 q 488 1190 458 1190 q 538 1169 515 1190 q 560 1119 560 1147 q 538 1067 560 1089 m 56 458 q 169 806 56 682 q 486 931 283 931 q 744 840 647 931 q 836 597 842 749 l 711 625 q 656 807 721 739 q 486 875 592 875 q 263 763 346 875 q 181 458 181 651 q 257 152 181 263 q 472 42 333 42 q 654 112 588 42 q 711 306 721 182 l 836 333 q 743 79 842 172 q 472 -14 644 -14 q 163 110 271 -14 q 56 458 56 233 z "},"ċ":{"ha":781,"x_min":56,"x_max":731,"o":"m 455 845 q 444 834 455 845 q 404 824 433 824 q 353 845 375 824 q 332 897 332 867 q 353 947 332 925 q 404 968 375 968 q 454 947 432 968 q 476 897 476 925 q 455 845 476 867 m 143 90 q 99 142 143 90 q 56 347 56 194 q 143 604 56 500 q 403 708 231 708 q 633 623 550 708 q 711 403 717 538 l 586 431 q 546 590 597 526 q 403 653 494 653 q 235 568 290 653 q 181 347 181 483 q 235 126 181 211 q 403 42 290 42 q 553 108 496 42 q 600 278 610 174 l 725 306 q 642 75 731 164 q 403 -14 553 -14 q 143 90 231 -14 z "},"Č":{"ha":892,"x_min":56,"x_max":842,"o":"m 675 1154 q 590 1101 618 1135 q 550 1015 561 1067 l 425 1015 q 385 1101 414 1067 q 300 1154 357 1135 l 328 1224 q 419 1180 378 1213 q 481 1099 460 1147 l 494 1099 q 556 1180 515 1147 q 647 1224 597 1213 l 675 1154 m 56 458 q 169 806 56 682 q 486 931 283 931 q 744 840 647 931 q 836 597 842 749 l 711 625 q 656 807 721 739 q 486 875 592 875 q 263 763 346 875 q 181 458 181 651 q 257 152 181 263 q 472 42 333 42 q 654 112 588 42 q 711 306 721 182 l 836 333 q 743 79 842 172 q 472 -14 644 -14 q 163 110 271 -14 q 56 458 56 233 z "},"č":{"ha":781,"x_min":56,"x_max":731,"o":"m 592 932 q 506 878 535 913 q 467 793 478 844 l 342 793 q 302 878 331 844 q 217 932 274 913 l 244 1001 q 335 958 294 990 q 397 876 376 925 l 411 876 q 473 958 432 925 q 564 1001 514 990 l 592 932 m 143 90 q 99 142 143 90 q 56 347 56 194 q 143 604 56 500 q 403 708 231 708 q 633 623 550 708 q 711 403 717 538 l 586 431 q 546 590 597 526 q 403 653 494 653 q 235 568 290 653 q 181 347 181 483 q 235 126 181 211 q 403 42 290 42 q 553 108 496 42 q 600 278 610 174 l 725 306 q 642 75 731 164 q 403 -14 553 -14 q 143 90 231 -14 z "},"Ď":{"ha":933,"x_min":56,"x_max":878,"o":"m 321 1015 q 281 1101 310 1067 q 196 1154 253 1135 l 224 1224 q 315 1180 274 1213 q 376 1099 356 1147 l 390 1099 q 452 1180 411 1147 q 543 1224 493 1213 l 571 1154 q 485 1101 514 1135 q 446 1015 457 1067 l 321 1015 m 425 917 q 533 908 481 917 q 651 871 585 900 q 764 794 717 842 q 844 660 811 747 q 878 458 878 574 q 844 256 878 343 q 764 122 811 169 q 651 46 717 75 q 533 8 585 17 q 425 0 481 0 l 56 0 l 56 28 q 111 53 97 28 q 125 133 125 79 l 125 783 q 111 863 125 838 q 56 889 97 889 l 56 917 l 425 917 m 397 56 q 656 151 560 56 q 753 458 753 247 q 656 765 753 669 q 397 861 560 861 l 250 861 l 250 56 l 397 56 z "},"ď":{"ha":1014,"x_min":56,"x_max":986,"o":"m 903 663 q 880 828 899 743 q 861 940 861 914 q 924 1014 861 1014 q 986 940 986 1014 q 967 828 986 914 q 944 663 949 743 l 903 663 m 147 83 q 101 132 147 83 q 56 347 56 181 q 147 611 56 514 q 382 708 239 708 q 531 664 465 708 q 625 547 597 619 l 639 547 l 639 867 q 625 947 639 921 q 569 972 611 972 l 569 1000 l 653 1000 q 706 996 685 1000 q 746 972 728 992 q 764 917 764 953 l 764 133 q 778 53 764 79 q 833 28 792 28 l 833 0 l 750 0 q 639 83 639 4 l 639 147 l 625 147 q 531 31 597 75 q 382 -14 465 -14 q 147 83 239 -14 m 249 567 q 222 524 249 567 q 194 347 194 481 q 249 128 194 214 q 410 42 303 42 q 571 128 517 42 q 625 347 625 214 q 571 567 625 481 q 410 653 517 653 q 249 567 303 653 z "},"Đ":{"ha":933,"x_min":42,"x_max":878,"o":"m 425 917 q 533 908 481 917 q 651 871 585 900 q 764 794 717 842 q 844 660 811 747 q 878 458 878 574 q 844 256 878 343 q 764 122 811 169 q 651 46 717 75 q 533 8 585 17 q 425 0 481 0 l 56 0 l 56 28 q 111 53 97 28 q 125 133 125 79 l 125 431 l 42 431 l 42 486 l 125 486 l 125 783 q 111 863 125 838 q 56 889 97 889 l 56 917 l 425 917 m 397 56 q 656 151 560 56 q 753 458 753 247 q 656 765 753 669 q 397 861 560 861 l 250 861 l 250 486 l 458 486 l 458 431 l 250 431 l 250 56 l 397 56 z "},"đ":{"ha":875,"x_min":56,"x_max":847,"o":"m 847 757 l 764 757 l 764 133 q 778 53 764 79 q 833 28 792 28 l 833 0 l 750 0 q 639 83 639 4 l 639 147 l 625 147 q 531 31 597 75 q 382 -14 465 -14 q 147 83 239 -14 q 56 347 56 181 q 147 611 56 514 q 382 708 239 708 q 531 664 465 708 q 625 547 597 619 l 639 547 l 639 757 l 431 757 l 431 813 l 639 813 l 639 867 q 625 947 639 921 q 569 972 611 972 l 569 1000 l 653 1000 q 706 996 685 1000 q 746 972 728 992 q 764 917 764 953 l 764 813 l 847 813 l 847 757 m 249 128 q 276 85 249 128 q 410 42 303 42 q 571 128 517 42 q 625 347 625 214 q 571 567 625 481 q 410 653 517 653 q 249 567 303 653 q 194 347 194 481 q 249 128 194 214 z "},"Ē":{"ha":781,"x_min":56,"x_max":725,"o":"m 603 1146 l 603 1090 l 204 1090 l 204 1146 l 603 1146 m 699 197 l 725 193 l 706 28 l 701 0 l 56 0 l 56 28 q 111 53 97 28 q 125 133 125 79 l 125 783 q 111 863 125 838 q 56 889 97 889 l 56 917 l 688 917 l 692 889 l 711 724 l 685 719 q 644 831 674 801 q 561 861 615 861 l 250 861 l 250 493 l 442 493 q 522 507 496 493 q 547 563 547 521 l 575 563 l 575 368 l 547 368 q 522 424 547 410 q 442 438 496 438 l 250 438 l 250 56 l 575 56 q 658 85 629 56 q 699 197 688 115 z "},"ē":{"ha":764,"x_min":56,"x_max":711,"o":"m 650 924 l 650 868 l 251 868 l 251 924 l 650 924 m 575 225 l 700 253 q 635 68 711 150 q 418 -14 560 -14 q 144 80 232 -14 q 56 329 56 174 q 160 606 56 503 q 431 708 265 708 q 633 653 558 708 q 708 504 708 597 q 652 381 708 428 q 513 320 596 333 q 341 313 429 307 q 181 342 253 318 l 181 319 q 244 115 181 188 q 404 42 307 42 q 575 225 594 42 m 431 653 q 265 584 326 653 q 186 400 203 515 q 488 385 392 353 q 583 519 583 418 q 544 616 583 579 q 431 653 506 653 z "},"Ė":{"ha":781,"x_min":56,"x_max":725,"o":"m 455 1067 q 444 1057 455 1067 q 404 1046 433 1046 q 353 1067 375 1046 q 332 1119 332 1089 q 353 1169 332 1147 q 404 1190 375 1190 q 454 1169 432 1190 q 476 1119 476 1147 q 455 1067 476 1089 m 699 197 l 725 193 l 706 28 l 701 0 l 56 0 l 56 28 q 111 53 97 28 q 125 133 125 79 l 125 783 q 111 863 125 838 q 56 889 97 889 l 56 917 l 688 917 l 692 889 l 711 724 l 685 719 q 644 831 674 801 q 561 861 615 861 l 250 861 l 250 493 l 442 493 q 522 507 496 493 q 547 563 547 521 l 575 563 l 575 368 l 547 368 q 522 424 547 410 q 442 438 496 438 l 250 438 l 250 56 l 575 56 q 658 85 629 56 q 699 197 688 115 z "},"ė":{"ha":764,"x_min":56,"x_max":711,"o":"m 502 845 q 491 834 502 845 q 451 824 481 824 q 401 845 422 824 q 379 897 379 867 q 401 947 379 925 q 451 968 422 968 q 501 947 479 968 q 524 897 524 925 q 502 845 524 867 m 575 225 l 700 253 q 635 68 711 150 q 418 -14 560 -14 q 144 80 232 -14 q 56 329 56 174 q 160 606 56 503 q 431 708 265 708 q 633 653 558 708 q 708 504 708 597 q 652 381 708 428 q 513 320 596 333 q 341 313 429 307 q 181 342 253 318 l 181 319 q 244 115 181 188 q 404 42 307 42 q 575 225 594 42 m 431 653 q 265 584 326 653 q 186 400 203 515 q 488 385 392 353 q 583 519 583 418 q 544 616 583 579 q 431 653 506 653 z "},"Ę":{"ha":781,"x_min":56,"x_max":725,"o":"m 699 197 l 725 193 l 706 28 l 701 0 l 614 0 q 482 -156 482 -86 q 537 -224 482 -210 q 660 -192 592 -237 l 688 -247 q 560 -308 632 -297 q 436 -284 488 -318 q 385 -186 385 -250 q 544 -14 385 -87 l 544 0 l 56 0 l 56 28 q 111 53 97 28 q 125 133 125 79 l 125 783 q 111 863 125 838 q 56 889 97 889 l 56 917 l 688 917 l 692 889 l 711 724 l 685 719 q 644 831 674 801 q 561 861 615 861 l 250 861 l 250 493 l 442 493 q 522 507 496 493 q 547 563 547 521 l 575 563 l 575 368 l 547 368 q 522 424 547 410 q 442 438 496 438 l 250 438 l 250 56 l 575 56 q 658 85 629 56 q 699 197 688 115 z "},"ę":{"ha":764,"x_min":56,"x_max":708,"o":"m 575 225 l 700 253 q 661 100 708 172 q 519 0 614 28 q 388 -156 388 -86 q 442 -224 388 -210 q 565 -192 497 -237 l 593 -247 q 465 -308 538 -297 q 342 -284 393 -318 q 290 -186 290 -250 q 450 -14 290 -87 l 450 -12 q 418 -14 440 -14 q 144 80 232 -14 q 56 329 56 174 q 160 606 56 503 q 431 708 265 708 q 633 653 558 708 q 708 504 708 597 q 652 381 708 428 q 513 320 596 333 q 341 313 429 307 q 181 342 253 318 l 181 319 q 244 115 181 188 q 404 42 307 42 q 575 225 594 42 m 431 653 q 265 584 326 653 q 186 400 203 515 q 488 385 392 353 q 583 519 583 418 q 544 616 583 579 q 431 653 506 653 z "},"Ě":{"ha":781,"x_min":56,"x_max":725,"o":"m 342 1015 q 302 1101 331 1067 q 217 1154 274 1135 l 244 1224 q 335 1180 294 1213 q 397 1099 376 1147 l 411 1099 q 473 1180 432 1147 q 564 1224 514 1213 l 592 1154 q 506 1101 535 1135 q 467 1015 478 1067 l 342 1015 m 699 197 l 725 193 l 706 28 l 701 0 l 56 0 l 56 28 q 111 53 97 28 q 125 133 125 79 l 125 783 q 111 863 125 838 q 56 889 97 889 l 56 917 l 688 917 l 692 889 l 711 724 l 685 719 q 644 831 674 801 q 561 861 615 861 l 250 861 l 250 493 l 442 493 q 522 507 496 493 q 547 563 547 521 l 575 563 l 575 368 l 547 368 q 522 424 547 410 q 442 438 496 438 l 250 438 l 250 56 l 575 56 q 658 85 629 56 q 699 197 688 115 z "},"ě":{"ha":764,"x_min":56,"x_max":711,"o":"m 389 793 q 349 878 378 844 q 264 932 321 913 l 292 1001 q 383 958 342 990 q 444 876 424 925 l 458 876 q 520 958 479 925 q 611 1001 561 990 l 639 932 q 553 878 582 913 q 514 793 525 844 l 389 793 m 575 225 l 700 253 q 635 68 711 150 q 418 -14 560 -14 q 144 80 232 -14 q 56 329 56 174 q 160 606 56 503 q 431 708 265 708 q 633 653 558 708 q 708 504 708 597 q 652 381 708 428 q 513 320 596 333 q 341 313 429 307 q 181 342 253 318 l 181 319 q 244 115 181 188 q 404 42 307 42 q 575 225 594 42 m 431 653 q 265 584 326 653 q 186 400 203 515 q 488 385 392 353 q 583 519 583 418 q 544 616 583 579 q 431 653 506 653 z "},"Ğ":{"ha":999,"x_min":56,"x_max":971,"o":"m 514 1014 q 367 1076 414 1014 q 319 1222 319 1138 l 444 1222 q 467 1106 444 1142 q 542 1069 490 1069 q 616 1106 593 1069 q 639 1222 639 1142 l 694 1222 q 686 1148 694 1182 q 659 1082 678 1114 q 603 1032 640 1050 q 514 1014 567 1014 m 971 414 l 967 386 q 892 370 910 393 q 874 292 874 347 l 874 118 q 493 -14 711 -14 q 169 113 283 -14 q 56 458 56 240 q 178 802 56 674 q 507 931 300 931 q 783 840 682 931 q 878 597 883 750 l 753 625 q 694 808 763 740 q 507 875 626 875 q 265 770 350 875 q 181 458 181 665 q 265 148 181 254 q 493 42 349 42 q 749 104 628 42 l 749 306 q 706 390 749 360 q 546 433 664 421 l 549 461 l 971 414 z "},"ğ":{"ha":808,"x_min":46,"x_max":803,"o":"m 364 792 q 217 853 264 792 q 169 1000 169 915 l 294 1000 q 317 883 294 919 q 392 847 340 847 q 466 883 443 847 q 489 1000 489 919 l 544 1000 q 536 926 544 960 q 509 860 528 892 q 453 810 490 828 q 364 792 417 792 m 792 603 l 681 575 q 649 653 696 653 q 589 622 611 653 q 649 458 649 556 q 572 277 649 346 q 357 208 494 208 q 217 233 275 208 q 176 165 176 192 q 220 126 176 132 q 383 132 264 121 q 633 103 544 146 q 721 -57 721 60 q 626 -233 721 -175 q 386 -292 531 -292 q 277 -283 328 -292 q 178 -256 226 -275 q 101 -204 129 -236 q 60 -124 74 -172 q 65 -10 46 -75 l 190 -37 q 178 -122 171 -87 q 203 -179 186 -157 q 253 -214 219 -201 q 318 -231 286 -226 q 388 -236 350 -236 q 542 -197 488 -236 q 596 -79 596 -157 q 545 11 596 -8 q 383 21 494 31 q 156 32 219 8 q 93 119 93 56 q 179 251 93 196 q 65 458 65 317 q 142 640 65 571 q 357 708 219 708 q 561 647 485 708 q 699 708 615 708 q 781 674 760 708 q 792 603 803 640 m 417 272 q 509 356 481 289 q 518 499 538 422 q 439 620 500 576 q 297 644 378 664 q 205 561 233 628 q 196 418 176 494 q 275 297 214 340 q 417 272 336 253 z "},"Ġ":{"ha":999,"x_min":56,"x_max":971,"o":"m 558 1067 q 547 1057 558 1067 q 507 1046 536 1046 q 456 1067 478 1046 q 435 1119 435 1089 q 456 1169 435 1147 q 507 1190 478 1190 q 557 1169 535 1190 q 579 1119 579 1147 q 558 1067 579 1089 m 971 414 l 967 386 q 892 370 910 393 q 874 292 874 347 l 874 118 q 493 -14 711 -14 q 169 113 283 -14 q 56 458 56 240 q 178 802 56 674 q 507 931 300 931 q 783 840 682 931 q 878 597 883 750 l 753 625 q 694 808 763 740 q 507 875 626 875 q 265 770 350 875 q 181 458 181 665 q 265 148 181 254 q 493 42 349 42 q 749 104 628 42 l 749 306 q 706 390 749 360 q 546 433 664 421 l 549 461 l 971 414 z "},"ġ":{"ha":808,"x_min":46,"x_max":803,"o":"m 408 845 q 397 834 408 845 q 357 824 386 824 q 306 845 328 824 q 285 897 285 867 q 306 947 285 925 q 357 968 328 968 q 407 947 385 968 q 429 897 429 925 q 408 845 429 867 m 792 603 l 681 575 q 649 653 696 653 q 589 622 611 653 q 649 458 649 556 q 572 277 649 346 q 357 208 494 208 q 217 233 275 208 q 176 165 176 192 q 220 126 176 132 q 383 132 264 121 q 633 103 544 146 q 721 -57 721 60 q 626 -233 721 -175 q 386 -292 531 -292 q 277 -283 328 -292 q 178 -256 226 -275 q 101 -204 129 -236 q 60 -124 74 -172 q 65 -10 46 -75 l 190 -37 q 178 -122 171 -87 q 203 -179 186 -157 q 253 -214 219 -201 q 318 -231 286 -226 q 388 -236 350 -236 q 542 -197 488 -236 q 596 -79 596 -157 q 545 11 596 -8 q 383 21 494 31 q 156 32 219 8 q 93 119 93 56 q 179 251 93 196 q 65 458 65 317 q 142 640 65 571 q 357 708 219 708 q 561 647 485 708 q 699 708 615 708 q 781 674 760 708 q 792 603 803 640 m 417 272 q 509 356 481 289 q 518 499 538 422 q 439 620 500 576 q 297 644 378 664 q 205 561 233 628 q 196 418 176 494 q 275 297 214 340 q 417 272 336 253 z "},"Ģ":{"ha":999,"x_min":56,"x_max":971,"o":"m 971 414 l 967 386 q 892 370 910 393 q 874 292 874 347 l 874 118 q 493 -14 711 -14 q 169 113 283 -14 q 56 458 56 240 q 178 802 56 674 q 507 931 300 931 q 783 840 682 931 q 878 597 883 750 l 753 625 q 694 808 763 740 q 507 875 626 875 q 265 770 350 875 q 181 458 181 665 q 265 148 181 254 q 493 42 349 42 q 749 104 628 42 l 749 306 q 706 390 749 360 q 546 433 664 421 l 549 461 l 971 414 m 483 -111 q 558 -204 558 -111 q 528 -288 558 -256 q 432 -342 499 -321 l 426 -300 q 506 -240 499 -276 q 469 -251 492 -251 q 428 -231 443 -251 q 413 -181 413 -210 q 432 -131 413 -151 q 483 -111 451 -111 z "},"ģ":{"ha":808,"x_min":46,"x_max":803,"o":"m 358 813 q 283 906 283 813 q 315 992 283 953 q 410 1043 347 1031 l 415 1015 q 358 984 379 1004 q 336 942 336 964 q 372 953 350 953 q 414 932 399 953 q 429 882 429 911 q 410 833 429 853 q 358 813 390 813 m 792 603 l 681 575 q 649 653 696 653 q 589 622 611 653 q 649 458 649 556 q 572 277 649 346 q 357 208 494 208 q 217 233 275 208 q 176 165 176 192 q 220 126 176 132 q 383 132 264 121 q 633 103 544 146 q 721 -57 721 60 q 626 -233 721 -175 q 386 -292 531 -292 q 277 -283 328 -292 q 178 -256 226 -275 q 101 -204 129 -236 q 60 -124 74 -172 q 65 -10 46 -75 l 190 -37 q 178 -122 171 -87 q 203 -179 186 -157 q 253 -214 219 -201 q 318 -231 286 -226 q 388 -236 350 -236 q 542 -197 488 -236 q 596 -79 596 -157 q 545 11 596 -8 q 383 21 494 31 q 156 32 219 8 q 93 119 93 56 q 179 251 93 196 q 65 458 65 317 q 142 640 65 571 q 357 708 219 708 q 561 647 485 708 q 699 708 615 708 q 781 674 760 708 q 792 603 803 640 m 417 272 q 509 356 481 289 q 518 499 538 422 q 439 620 500 576 q 297 644 378 664 q 205 561 233 628 q 196 418 176 494 q 275 297 214 340 q 417 272 336 253 z "},"Ħ":{"ha":1000,"x_min":56,"x_max":944,"o":"m 944 889 q 889 863 903 889 q 875 783 875 838 l 875 743 l 944 743 l 944 688 l 875 688 l 875 133 q 889 53 875 79 q 944 28 903 28 l 944 0 l 681 0 l 681 28 q 736 53 722 28 q 750 133 750 79 l 750 478 l 250 478 l 250 133 q 264 53 250 79 q 319 28 278 28 l 319 0 l 56 0 l 56 28 q 111 53 97 28 q 125 133 125 79 l 125 688 l 56 688 l 56 743 l 125 743 l 125 783 q 111 863 125 838 q 56 889 97 889 l 56 917 l 319 917 l 319 889 q 264 863 278 889 q 250 783 250 838 l 250 743 l 750 743 l 750 783 q 736 863 750 838 q 681 889 722 889 l 681 917 l 944 917 l 944 889 m 750 533 l 750 688 l 250 688 l 250 533 l 750 533 z "},"ħ":{"ha":863,"x_min":28,"x_max":807,"o":"m 738 133 q 751 53 738 79 q 807 28 765 28 l 807 0 l 543 0 l 543 28 q 599 53 585 28 q 613 133 613 79 l 613 457 q 581 604 613 556 q 478 653 550 653 q 347 590 400 653 q 272 440 293 528 q 250 250 250 351 l 250 133 q 264 53 250 79 q 319 28 278 28 l 319 0 l 56 0 l 56 28 q 111 53 97 28 q 125 133 125 79 l 125 757 l 28 757 l 28 813 l 125 813 l 125 867 q 111 947 125 921 q 56 972 97 972 l 56 1000 l 139 1000 q 192 996 171 1000 q 232 972 214 992 q 250 917 250 953 l 250 813 l 444 813 l 444 757 l 250 757 l 250 478 l 264 478 q 346 649 285 589 q 506 708 407 708 q 738 443 738 708 l 738 133 z "},"Ī":{"ha":375,"x_min":-12,"x_max":386,"o":"m -12 1146 l 386 1146 l 386 1090 l -12 1090 l -12 1146 m 56 0 l 56 28 q 111 53 97 28 q 125 133 125 79 l 125 783 q 111 863 125 838 q 56 889 97 889 l 56 917 l 319 917 l 319 889 q 264 863 278 889 q 250 783 250 838 l 250 133 q 264 53 250 79 q 319 28 278 28 l 319 0 l 56 0 z "},"ī":{"ha":375,"x_min":-12,"x_max":386,"o":"m -12 924 l 386 924 l 386 868 l -12 868 l -12 924 m 250 629 l 250 133 q 264 53 250 79 q 319 28 278 28 l 319 0 l 56 0 l 56 28 q 111 53 97 28 q 125 133 125 79 l 125 561 q 111 641 125 615 q 56 667 97 667 l 56 694 l 139 694 q 192 691 171 694 q 232 672 214 688 q 250 629 250 657 z "},"Į":{"ha":375,"x_min":56,"x_max":393,"o":"m 365 -192 l 393 -247 q 265 -308 338 -297 q 142 -284 193 -318 q 90 -186 90 -250 q 250 -14 90 -87 l 250 0 l 56 0 l 56 28 q 111 53 97 28 q 125 133 125 79 l 125 783 q 111 863 125 838 q 56 889 97 889 l 56 917 l 319 917 l 319 889 q 264 863 278 889 q 250 783 250 838 l 250 133 q 264 53 250 79 q 319 28 278 28 l 319 0 q 188 -156 188 -86 q 242 -224 188 -210 q 365 -192 297 -237 z "},"į":{"ha":375,"x_min":56,"x_max":393,"o":"m 238 845 q 227 834 238 845 q 188 824 217 824 q 137 845 158 824 q 115 897 115 867 q 137 947 115 925 q 188 968 158 968 q 238 947 215 968 q 260 897 260 925 q 238 845 260 867 m 365 -192 l 393 -247 q 265 -308 338 -297 q 142 -284 193 -318 q 90 -186 90 -250 q 250 -14 90 -87 l 250 0 l 56 0 l 56 28 q 111 53 97 28 q 125 133 125 79 l 125 561 q 111 641 125 615 q 56 667 97 667 l 56 694 l 139 694 q 192 691 171 694 q 232 672 214 688 q 250 629 250 657 l 250 133 q 264 53 250 79 q 319 28 278 28 l 319 0 q 188 -156 188 -86 q 242 -224 188 -210 q 365 -192 297 -237 z "},"İ":{"ha":375,"x_min":56,"x_max":319,"o":"m 238 1067 q 227 1057 238 1067 q 188 1046 217 1046 q 137 1067 158 1046 q 115 1119 115 1089 q 137 1169 115 1147 q 188 1190 158 1190 q 238 1169 215 1190 q 260 1119 260 1147 q 238 1067 260 1089 m 56 0 l 56 28 q 111 53 97 28 q 125 133 125 79 l 125 783 q 111 863 125 838 q 56 889 97 889 l 56 917 l 319 917 l 319 889 q 264 863 278 889 q 250 783 250 838 l 250 133 q 264 53 250 79 q 319 28 278 28 l 319 0 l 56 0 z "},"ı":{"ha":375,"x_min":56,"x_max":319,"o":"m 250 629 l 250 133 q 264 53 250 79 q 319 28 278 28 l 319 0 l 56 0 l 56 28 q 111 53 97 28 q 125 133 125 79 l 125 561 q 111 641 125 615 q 56 667 97 667 l 56 694 l 139 694 q 192 691 171 694 q 232 672 214 688 q 250 629 250 657 z "},"Ķ":{"ha":892,"x_min":56,"x_max":878,"o":"m 704 235 q 778 70 746 113 q 878 28 810 28 l 878 0 q 680 35 731 0 q 586 196 629 71 q 563 267 576 224 q 541 333 549 310 q 520 386 533 356 q 492 432 507 417 q 456 463 478 447 q 403 485 433 479 q 333 492 374 492 l 335 493 l 250 407 l 250 133 q 264 53 250 79 q 319 28 278 28 l 319 0 l 56 0 l 56 28 q 111 53 97 28 q 125 133 125 79 l 125 783 q 111 863 125 838 q 56 889 97 889 l 56 917 l 319 917 l 319 889 q 264 863 278 889 q 250 783 250 838 l 250 486 l 582 822 q 622 874 625 858 q 538 889 618 889 l 538 917 l 835 917 l 835 889 q 658 822 724 889 l 394 554 l 394 542 q 584 471 518 546 q 704 235 650 396 m 457 -111 q 532 -204 532 -111 q 502 -288 532 -256 q 406 -342 472 -321 l 400 -300 q 479 -240 472 -276 q 443 -251 465 -251 q 401 -231 417 -251 q 386 -181 386 -210 q 406 -131 386 -151 q 457 -111 425 -111 z "},"ķ":{"ha":906,"x_min":56,"x_max":814,"o":"m 640 235 q 714 70 682 113 q 814 28 746 28 l 814 0 q 616 35 667 0 q 522 196 565 71 q 443 344 482 308 q 335 381 404 381 l 250 310 l 250 133 q 264 53 250 79 q 319 28 278 28 l 319 0 l 56 0 l 56 28 q 111 53 97 28 q 125 133 125 79 l 125 867 q 111 947 125 921 q 56 972 97 972 l 56 1000 l 139 1000 q 192 996 171 1000 q 232 972 214 992 q 250 917 250 953 l 250 382 l 522 610 q 567 651 565 644 q 557 661 568 658 q 486 667 542 667 l 486 694 l 779 694 l 779 667 q 607 608 676 667 l 410 443 l 410 431 q 551 384 496 431 q 640 235 606 338 m 450 -111 q 525 -204 525 -111 q 495 -288 525 -256 q 399 -342 465 -321 l 393 -300 q 472 -240 465 -276 q 436 -251 458 -251 q 394 -231 410 -251 q 379 -181 379 -210 q 399 -131 379 -151 q 450 -111 418 -111 z "},"Ĺ":{"ha":767,"x_min":56,"x_max":725,"o":"m 310 1222 q 107 1014 310 1067 l 65 1042 q 171 1194 171 1083 l 310 1222 m 699 197 l 725 193 l 706 28 l 701 0 l 56 0 l 56 28 q 111 53 97 28 q 125 133 125 79 l 125 783 q 111 863 125 838 q 56 889 97 889 l 56 917 l 319 917 l 319 889 q 264 863 278 889 q 250 783 250 838 l 250 56 l 575 56 q 658 85 629 56 q 699 197 688 115 z "},"ĺ":{"ha":361,"x_min":51,"x_max":319,"o":"m 51 1125 q 157 1278 157 1167 l 296 1306 q 93 1097 296 1150 l 51 1125 m 250 917 l 250 133 q 264 53 250 79 q 319 28 278 28 l 319 0 l 56 0 l 56 28 q 111 53 97 28 q 125 133 125 79 l 125 867 q 111 947 125 921 q 56 972 97 972 l 56 1000 l 139 1000 q 192 996 171 1000 q 232 972 214 992 q 250 917 250 953 z "},"Ļ":{"ha":767,"x_min":56,"x_max":725,"o":"m 699 197 l 725 193 l 706 28 l 701 0 l 56 0 l 56 28 q 111 53 97 28 q 125 133 125 79 l 125 783 q 111 863 125 838 q 56 889 97 889 l 56 917 l 319 917 l 319 889 q 264 863 278 889 q 250 783 250 838 l 250 56 l 575 56 q 658 85 629 56 q 699 197 688 115 m 388 -111 q 463 -204 463 -111 q 433 -288 463 -256 q 336 -342 403 -321 l 331 -300 q 410 -240 403 -276 q 374 -251 396 -251 q 332 -231 347 -251 q 317 -181 317 -210 q 336 -131 317 -151 q 388 -111 356 -111 z "},"ļ":{"ha":361,"x_min":56,"x_max":319,"o":"m 250 917 l 250 133 q 264 53 250 79 q 319 28 278 28 l 319 0 l 56 0 l 56 28 q 111 53 97 28 q 125 133 125 79 l 125 867 q 111 947 125 921 q 56 972 97 972 l 56 1000 l 139 1000 q 192 996 171 1000 q 232 972 214 992 q 250 917 250 953 m 128 -300 q 207 -240 200 -276 q 171 -251 193 -251 q 129 -231 144 -251 q 114 -181 114 -210 q 133 -131 114 -151 q 185 -111 153 -111 q 260 -204 260 -111 q 230 -288 260 -256 q 133 -342 200 -321 l 128 -300 z "},"Ľ":{"ha":767,"x_min":0,"x_max":725,"o":"m 125 1015 q 85 1101 114 1067 q 0 1154 57 1135 l 28 1224 q 119 1180 78 1213 q 181 1099 160 1147 l 194 1099 q 256 1180 215 1147 q 347 1224 297 1213 l 375 1154 q 290 1101 318 1135 q 250 1015 261 1067 l 125 1015 m 699 197 l 725 193 l 706 28 l 701 0 l 56 0 l 56 28 q 111 53 97 28 q 125 133 125 79 l 125 783 q 111 863 125 838 q 56 889 97 889 l 56 917 l 319 917 l 319 889 q 264 863 278 889 q 250 783 250 838 l 250 56 l 575 56 q 658 85 629 56 q 699 197 688 115 z "},"ľ":{"ha":361,"x_min":-14,"x_max":361,"o":"m 361 1238 q 276 1184 304 1218 q 236 1099 247 1150 l 111 1099 q 72 1184 100 1150 q -14 1238 43 1218 l 14 1307 q 105 1263 64 1296 q 167 1182 146 1231 l 181 1182 q 242 1263 201 1231 q 333 1307 283 1296 l 361 1238 m 250 917 l 250 133 q 264 53 250 79 q 319 28 278 28 l 319 0 l 56 0 l 56 28 q 111 53 97 28 q 125 133 125 79 l 125 867 q 111 947 125 921 q 56 972 97 972 l 56 1000 l 139 1000 q 192 996 171 1000 q 232 972 214 992 q 250 917 250 953 z "},"Ł":{"ha":781,"x_min":56,"x_max":725,"o":"m 699 197 l 725 193 l 706 28 l 701 0 l 56 0 l 56 28 q 111 53 97 28 q 125 133 125 79 l 125 553 l 56 535 l 56 592 l 125 610 l 125 783 q 111 863 125 838 q 56 889 97 889 l 56 917 l 319 917 l 319 889 q 264 863 278 889 q 250 783 250 838 l 250 640 l 461 694 l 461 638 l 250 583 l 250 56 l 575 56 q 658 85 629 56 q 699 197 688 115 z "},"ł":{"ha":375,"x_min":28,"x_max":347,"o":"m 347 635 l 250 604 l 250 133 q 264 53 250 79 q 319 28 278 28 l 319 0 l 56 0 l 56 28 q 111 53 97 28 q 125 133 125 79 l 125 565 l 28 535 l 28 594 l 125 625 l 125 867 q 111 947 125 921 q 56 972 97 972 l 56 1000 l 139 1000 q 192 996 171 1000 q 232 972 214 992 q 250 917 250 953 l 250 664 l 347 694 l 347 635 z "},"Ń":{"ha":1013,"x_min":56,"x_max":957,"o":"m 385 1042 q 490 1194 490 1083 l 629 1222 q 426 1014 629 1067 l 385 1042 m 56 0 l 56 28 q 111 53 97 28 q 125 133 125 79 l 125 783 q 111 863 125 838 q 56 889 97 889 l 56 917 l 139 917 q 230 891 193 914 q 315 806 267 868 l 832 140 l 832 783 q 818 863 832 838 q 763 889 804 889 l 763 917 l 957 917 l 957 889 q 901 863 915 889 q 888 783 888 838 l 888 0 q 788 22 826 0 q 697 111 749 44 l 181 776 l 181 133 q 194 53 181 79 q 250 28 208 28 l 250 0 l 56 0 z "},"ń":{"ha":863,"x_min":56,"x_max":807,"o":"m 554 1000 q 351 792 554 844 l 310 819 q 415 972 415 861 l 554 1000 m 738 133 q 751 53 738 79 q 807 28 765 28 l 807 0 l 543 0 l 543 28 q 599 53 585 28 q 613 133 613 79 l 613 457 q 581 604 613 556 q 478 653 550 653 q 347 590 400 653 q 272 440 293 528 q 250 250 250 351 l 250 133 q 264 53 250 79 q 319 28 278 28 l 319 0 l 56 0 l 56 28 q 111 53 97 28 q 125 133 125 79 l 125 561 q 111 641 125 615 q 56 667 97 667 l 56 694 l 139 694 q 192 691 171 694 q 232 672 214 688 q 250 629 250 657 l 250 478 l 264 478 q 346 649 285 589 q 506 708 407 708 q 738 443 738 708 l 738 133 z "},"Ņ":{"ha":1013,"x_min":56,"x_max":957,"o":"m 56 0 l 56 28 q 111 53 97 28 q 125 133 125 79 l 125 783 q 111 863 125 838 q 56 889 97 889 l 56 917 l 139 917 q 230 891 193 914 q 315 806 267 868 l 832 140 l 832 783 q 818 863 832 838 q 763 889 804 889 l 763 917 l 957 917 l 957 889 q 901 863 915 889 q 888 783 888 838 l 888 0 q 788 22 826 0 q 697 111 749 44 l 181 776 l 181 133 q 194 53 181 79 q 250 28 208 28 l 250 0 l 56 0 m 447 -300 q 526 -240 519 -276 q 490 -251 513 -251 q 449 -231 464 -251 q 433 -181 433 -210 q 453 -131 433 -151 q 504 -111 472 -111 q 579 -204 579 -111 q 549 -288 579 -256 q 453 -342 519 -321 l 447 -300 z "},"ņ":{"ha":863,"x_min":56,"x_max":807,"o":"m 738 133 q 751 53 738 79 q 807 28 765 28 l 807 0 l 543 0 l 543 28 q 599 53 585 28 q 613 133 613 79 l 613 457 q 581 604 613 556 q 478 653 550 653 q 347 590 400 653 q 272 440 293 528 q 250 250 250 351 l 250 133 q 264 53 250 79 q 319 28 278 28 l 319 0 l 56 0 l 56 28 q 111 53 97 28 q 125 133 125 79 l 125 561 q 111 641 125 615 q 56 667 97 667 l 56 694 l 139 694 q 192 691 171 694 q 232 672 214 688 q 250 629 250 657 l 250 478 l 264 478 q 346 649 285 589 q 506 708 407 708 q 738 443 738 708 l 738 133 m 429 -111 q 504 -204 504 -111 q 474 -288 504 -256 q 378 -342 444 -321 l 372 -300 q 451 -240 444 -276 q 415 -251 438 -251 q 374 -231 389 -251 q 358 -181 358 -210 q 378 -131 358 -151 q 429 -111 397 -111 z "},"Ň":{"ha":1013,"x_min":56,"x_max":957,"o":"m 694 1154 q 609 1101 638 1135 q 569 1015 581 1067 l 444 1015 q 405 1101 433 1067 q 319 1154 376 1135 l 347 1224 q 438 1180 397 1213 q 500 1099 479 1147 l 514 1099 q 576 1180 535 1147 q 667 1224 617 1213 l 694 1154 m 56 0 l 56 28 q 111 53 97 28 q 125 133 125 79 l 125 783 q 111 863 125 838 q 56 889 97 889 l 56 917 l 139 917 q 230 891 193 914 q 315 806 267 868 l 832 140 l 832 783 q 818 863 832 838 q 763 889 804 889 l 763 917 l 957 917 l 957 889 q 901 863 915 889 q 888 783 888 838 l 888 0 q 788 22 826 0 q 697 111 749 44 l 181 776 l 181 133 q 194 53 181 79 q 250 28 208 28 l 250 0 l 56 0 z "},"ň":{"ha":863,"x_min":56,"x_max":807,"o":"m 369 793 q 330 878 358 844 q 244 932 301 913 l 272 1001 q 363 958 322 990 q 425 876 404 925 l 439 876 q 501 958 460 925 q 592 1001 542 990 l 619 932 q 534 878 563 913 q 494 793 506 844 l 369 793 m 738 133 q 751 53 738 79 q 807 28 765 28 l 807 0 l 543 0 l 543 28 q 599 53 585 28 q 613 133 613 79 l 613 457 q 581 604 613 556 q 478 653 550 653 q 347 590 400 653 q 272 440 293 528 q 250 250 250 351 l 250 133 q 264 53 250 79 q 319 28 278 28 l 319 0 l 56 0 l 56 28 q 111 53 97 28 q 125 133 125 79 l 125 561 q 111 641 125 615 q 56 667 97 667 l 56 694 l 139 694 q 192 691 171 694 q 232 672 214 688 q 250 629 250 657 l 250 478 l 264 478 q 346 649 285 589 q 506 708 407 708 q 738 443 738 708 l 738 133 z "},"Ŋ":{"ha":1013,"x_min":56,"x_max":957,"o":"m 957 917 l 957 889 q 901 863 915 889 q 888 783 888 838 l 888 0 q 682 -292 888 -292 q 561 -264 625 -292 l 589 -208 q 674 -236 635 -236 q 756 -187 724 -236 q 784 -63 789 -137 q 729 72 779 11 q 697 111 707 97 l 181 776 l 181 133 q 194 53 181 79 q 250 28 208 28 l 250 0 l 56 0 l 56 28 q 111 53 97 28 q 125 133 125 79 l 125 783 q 111 863 125 838 q 56 889 97 889 l 56 917 l 139 917 q 230 891 193 914 q 315 806 267 868 l 832 140 l 832 783 q 818 863 832 838 q 763 889 804 889 l 763 917 l 957 917 z "},"ŋ":{"ha":793,"x_min":56,"x_max":738,"o":"m 506 708 q 738 443 738 708 l 738 0 q 532 -292 738 -292 q 411 -264 475 -292 l 439 -208 q 518 -236 483 -236 q 593 -176 574 -236 q 613 0 613 -115 l 613 457 q 581 604 613 556 q 478 653 550 653 q 347 590 400 653 q 272 440 293 528 q 250 250 250 351 l 250 133 q 264 53 250 79 q 319 28 278 28 l 319 0 l 56 0 l 56 28 q 111 53 97 28 q 125 133 125 79 l 125 561 q 111 641 125 615 q 56 667 97 667 l 56 694 l 139 694 q 192 691 171 694 q 232 672 214 688 q 250 629 250 657 l 250 478 l 264 478 q 346 649 285 589 q 506 708 407 708 z "},"Ō":{"ha":986,"x_min":56,"x_max":931,"o":"m 293 1146 l 692 1146 l 692 1090 l 293 1090 l 293 1146 m 174 119 q 115 185 174 119 q 56 458 56 251 q 174 798 56 665 q 493 931 293 931 q 812 798 693 931 q 931 458 931 665 q 812 119 931 251 q 493 -14 693 -14 q 174 119 293 -14 m 183 421 q 304 128 207 228 q 558 47 401 28 q 761 185 696 64 q 803 496 826 307 q 682 789 779 689 q 428 869 585 889 q 225 731 290 853 q 183 421 160 610 z "},"ō":{"ha":806,"x_min":56,"x_max":750,"o":"m 203 924 l 601 924 l 601 868 l 203 868 l 203 924 m 147 92 q 101 144 147 92 q 56 347 56 197 q 147 603 56 497 q 403 708 239 708 q 658 603 567 708 q 750 347 750 497 q 658 92 750 197 q 403 -14 567 -14 q 147 92 239 -14 m 182 319 q 263 108 199 185 q 440 44 328 31 q 597 149 553 58 q 624 375 640 239 q 542 587 607 510 q 365 650 478 664 q 209 546 253 636 q 182 319 165 456 z "},"Ő":{"ha":986,"x_min":56,"x_max":931,"o":"m 503 1069 q 608 1222 608 1111 l 747 1250 q 544 1042 747 1094 l 503 1069 m 294 1042 q 400 1194 400 1083 l 539 1222 q 336 1014 539 1067 l 294 1042 m 174 119 q 115 185 174 119 q 56 458 56 251 q 174 798 56 665 q 493 931 293 931 q 812 798 693 931 q 931 458 931 665 q 812 119 931 251 q 493 -14 693 -14 q 174 119 293 -14 m 183 421 q 304 128 207 228 q 558 47 401 28 q 761 185 696 64 q 803 496 826 307 q 682 789 779 689 q 428 869 585 889 q 225 731 290 853 q 183 421 160 610 z "},"ő":{"ha":806,"x_min":56,"x_max":750,"o":"m 413 847 q 518 1000 518 889 l 657 1028 q 454 819 657 872 l 413 847 m 204 819 q 310 972 310 861 l 449 1000 q 246 792 449 844 l 204 819 m 147 92 q 101 144 147 92 q 56 347 56 197 q 147 603 56 497 q 403 708 239 708 q 658 603 567 708 q 750 347 750 497 q 658 92 750 197 q 403 -14 567 -14 q 147 92 239 -14 m 182 319 q 263 108 199 185 q 440 44 328 31 q 597 149 553 58 q 624 375 640 239 q 542 587 607 510 q 365 650 478 664 q 209 546 253 636 q 182 319 165 456 z "},"Œ":{"ha":1465,"x_min":56,"x_max":1410,"o":"m 1383 197 l 1410 193 l 1390 28 l 1386 0 l 810 0 l 810 117 q 493 -14 690 -14 q 174 119 293 -14 q 56 458 56 251 q 174 798 56 665 q 493 931 293 931 q 810 800 690 931 l 810 917 l 1372 917 l 1376 889 l 1396 724 l 1369 719 q 1329 831 1358 801 q 1246 861 1300 861 l 935 861 l 935 493 l 1126 493 q 1206 507 1181 493 q 1232 563 1232 521 l 1260 563 l 1260 368 l 1232 368 q 1206 424 1232 410 q 1126 438 1181 438 l 935 438 l 935 56 l 1260 56 q 1343 85 1314 56 q 1383 197 1372 115 m 558 47 q 761 185 696 64 q 803 496 826 307 q 682 789 779 689 q 428 869 585 889 q 225 731 290 853 q 183 421 160 610 q 304 128 207 228 q 558 47 401 28 z "},"œ":{"ha":1338,"x_min":56,"x_max":1285,"o":"m 1149 225 l 1274 253 q 1209 68 1285 150 q 992 -14 1133 -14 q 683 122 772 -14 q 403 -14 585 -14 q 147 92 239 -14 q 56 347 56 197 q 147 603 56 497 q 403 708 239 708 q 693 557 599 708 q 823 669 742 629 q 1004 708 904 708 q 1207 653 1132 708 q 1282 504 1282 597 q 1226 381 1282 428 q 1086 320 1169 333 q 915 313 1003 307 q 754 342 826 318 l 754 319 q 817 115 754 188 q 978 42 881 42 q 1149 225 1168 42 m 263 108 q 295 69 263 108 q 440 44 328 31 q 597 149 553 58 q 624 375 640 239 q 542 587 607 510 q 365 650 478 664 q 209 546 253 636 q 182 319 165 456 q 263 108 199 185 m 1004 653 q 838 584 900 653 q 760 400 776 515 q 1061 385 965 353 q 1157 519 1157 418 q 1118 616 1157 579 q 1004 653 1079 653 z "},"Ŕ":{"ha":892,"x_min":56,"x_max":878,"o":"m 513 1222 q 310 1014 513 1067 l 268 1042 q 374 1194 374 1083 l 513 1222 m 686 267 q 767 77 721 126 q 878 28 814 28 l 878 0 q 783 3 818 0 q 710 19 749 7 q 649 55 672 31 q 605 122 626 79 q 567 228 583 164 q 469 433 528 383 q 268 483 411 483 l 250 483 l 250 133 q 264 53 250 79 q 319 28 278 28 l 319 0 l 56 0 l 56 28 q 111 53 97 28 q 125 133 125 79 l 125 783 q 111 863 125 838 q 56 889 97 889 l 56 917 l 383 917 q 439 916 418 917 q 500 911 460 915 q 566 899 540 907 q 625 876 592 892 q 678 838 658 860 q 711 780 697 815 q 725 700 725 744 q 535 492 725 524 q 686 267 644 435 m 250 539 l 397 539 q 600 700 600 539 q 397 861 600 861 l 250 861 l 250 539 z "},"ŕ":{"ha":706,"x_min":56,"x_max":685,"o":"m 479 1000 q 276 792 479 844 l 235 819 q 340 972 340 861 l 479 1000 m 506 708 q 650 631 615 708 q 640 429 685 554 l 515 457 q 546 603 556 554 q 478 653 536 653 q 315 527 381 653 q 250 250 250 401 l 250 133 q 264 53 250 79 q 319 28 278 28 l 319 0 l 56 0 l 56 28 q 111 53 97 28 q 125 133 125 79 l 125 561 q 111 641 125 615 q 56 667 97 667 l 56 694 l 139 694 q 192 691 171 694 q 232 672 214 688 q 250 629 250 657 l 250 478 l 264 478 q 348 641 289 574 q 506 708 407 708 z "},"Ŗ":{"ha":892,"x_min":56,"x_max":878,"o":"m 686 267 q 767 77 721 126 q 878 28 814 28 l 878 0 q 783 3 818 0 q 710 19 749 7 q 649 55 672 31 q 605 122 626 79 q 567 228 583 164 q 469 433 528 383 q 268 483 411 483 l 250 483 l 250 133 q 264 53 250 79 q 319 28 278 28 l 319 0 l 56 0 l 56 28 q 111 53 97 28 q 125 133 125 79 l 125 783 q 111 863 125 838 q 56 889 97 889 l 56 917 l 383 917 q 439 916 418 917 q 500 911 460 915 q 566 899 540 907 q 625 876 592 892 q 678 838 658 860 q 711 780 697 815 q 725 700 725 744 q 535 492 725 524 q 686 267 644 435 m 250 539 l 397 539 q 600 700 600 539 q 397 861 600 861 l 250 861 l 250 539 m 471 -111 q 546 -204 546 -111 q 516 -288 546 -256 q 419 -342 486 -321 l 414 -300 q 493 -240 486 -276 q 457 -251 479 -251 q 415 -231 431 -251 q 400 -181 400 -210 q 419 -131 400 -151 q 471 -111 439 -111 z "},"ŗ":{"ha":706,"x_min":56,"x_max":685,"o":"m 506 708 q 650 631 615 708 q 640 429 685 554 l 515 457 q 546 603 556 554 q 478 653 536 653 q 315 527 381 653 q 250 250 250 401 l 250 133 q 264 53 250 79 q 319 28 278 28 l 319 0 l 56 0 l 56 28 q 111 53 97 28 q 125 133 125 79 l 125 561 q 111 641 125 615 q 56 667 97 667 l 56 694 l 139 694 q 192 691 171 694 q 232 672 214 688 q 250 629 250 657 l 250 478 l 264 478 q 348 641 289 574 q 506 708 407 708 m 196 -111 q 271 -204 271 -111 q 241 -288 271 -256 q 144 -342 211 -321 l 139 -300 q 218 -240 211 -276 q 182 -251 204 -251 q 140 -231 156 -251 q 125 -181 125 -210 q 144 -131 125 -151 q 196 -111 164 -111 z "},"Ř":{"ha":892,"x_min":56,"x_max":878,"o":"m 328 1015 q 288 1101 317 1067 q 203 1154 260 1135 l 231 1224 q 322 1180 281 1213 q 383 1099 363 1147 l 397 1099 q 459 1180 418 1147 q 550 1224 500 1213 l 578 1154 q 492 1101 521 1135 q 453 1015 464 1067 l 328 1015 m 686 267 q 767 77 721 126 q 878 28 814 28 l 878 0 q 783 3 818 0 q 710 19 749 7 q 649 55 672 31 q 605 122 626 79 q 567 228 583 164 q 469 433 528 383 q 268 483 411 483 l 250 483 l 250 133 q 264 53 250 79 q 319 28 278 28 l 319 0 l 56 0 l 56 28 q 111 53 97 28 q 125 133 125 79 l 125 783 q 111 863 125 838 q 56 889 97 889 l 56 917 l 383 917 q 439 916 418 917 q 500 911 460 915 q 566 899 540 907 q 625 876 592 892 q 678 838 658 860 q 711 780 697 815 q 725 700 725 744 q 535 492 725 524 q 686 267 644 435 m 250 539 l 397 539 q 600 700 600 539 q 397 861 600 861 l 250 861 l 250 539 z "},"ř":{"ha":706,"x_min":56,"x_max":685,"o":"m 294 793 q 255 878 283 844 q 169 932 226 913 l 197 1001 q 288 958 247 990 q 350 876 329 925 l 364 876 q 426 958 385 925 q 517 1001 467 990 l 544 932 q 459 878 488 913 q 419 793 431 844 l 294 793 m 506 708 q 650 631 615 708 q 640 429 685 554 l 515 457 q 546 603 556 554 q 478 653 536 653 q 315 527 381 653 q 250 250 250 401 l 250 133 q 264 53 250 79 q 319 28 278 28 l 319 0 l 56 0 l 56 28 q 111 53 97 28 q 125 133 125 79 l 125 561 q 111 641 125 615 q 56 667 97 667 l 56 694 l 139 694 q 192 691 171 694 q 232 672 214 688 q 250 629 250 657 l 250 478 l 264 478 q 348 641 289 574 q 506 708 407 708 z "},"Ś":{"ha":847,"x_min":53,"x_max":806,"o":"m 322 1042 q 428 1194 428 1083 l 567 1222 q 364 1014 567 1067 l 322 1042 m 88 688 q 188 870 88 810 q 440 931 289 931 q 581 915 517 931 q 697 861 644 899 q 765 764 750 824 q 757 617 779 704 l 632 644 q 624 817 683 760 q 439 875 565 875 q 213 717 213 875 q 226 663 213 688 q 258 621 240 638 q 311 588 276 604 q 372 562 346 571 q 443 539 399 553 q 686 446 626 482 q 806 244 806 376 q 777 120 806 172 q 697 40 749 68 q 586 -1 646 11 q 454 -14 526 -14 q 346 -6 397 -14 q 242 19 294 1 q 153 65 190 36 q 88 135 117 93 q 56 235 60 178 q 68 368 53 293 l 193 340 q 181 196 171 253 q 236 104 190 139 q 336 56 282 69 q 457 42 390 42 q 681 218 681 42 q 625 333 681 294 q 443 411 569 371 q 403 424 429 415 q 319 450 347 440 q 247 478 292 460 q 181 513 203 496 q 133 556 158 531 q 98 615 108 582 q 88 688 88 647 z "},"ś":{"ha":693,"x_min":32,"x_max":651,"o":"m 225 819 q 331 972 331 861 l 469 1000 q 267 792 469 844 l 225 819 m 56 515 q 133 661 56 614 q 342 708 211 708 q 458 696 404 708 q 558 656 513 683 q 617 581 603 628 q 614 468 631 535 l 489 496 q 501 573 506 543 q 467 621 496 603 q 408 646 439 639 q 340 653 376 653 q 220 623 260 653 q 181 551 181 593 q 182 526 181 538 q 189 504 183 514 q 199 488 194 494 q 215 475 203 482 q 233 464 226 468 q 257 453 239 460 q 284 444 275 447 q 318 435 293 442 q 356 424 343 428 q 453 397 421 407 q 531 367 486 388 q 598 326 576 347 q 635 272 619 306 q 651 193 651 238 q 571 36 651 86 q 365 -14 490 -14 q 256 -6 306 -14 q 159 23 207 3 q 85 76 111 43 q 45 161 58 110 q 51 282 32 213 l 176 254 q 367 42 111 42 q 484 76 442 42 q 526 164 526 110 q 465 264 526 233 q 356 303 443 275 q 138 375 186 347 q 56 515 56 421 z "},"Ş":{"ha":847,"x_min":46,"x_max":806,"o":"m 806 244 q 778 122 806 174 q 703 42 751 71 q 597 1 654 14 q 469 -14 540 -12 l 417 -106 l 431 -106 q 513 -83 467 -83 q 589 -109 557 -83 q 621 -187 621 -135 q 574 -285 621 -251 q 460 -318 528 -318 q 351 -283 394 -318 q 324 -185 307 -249 l 407 -210 q 412 -249 394 -236 q 454 -262 429 -262 q 515 -244 493 -262 q 538 -189 538 -225 q 483 -139 538 -139 q 393 -161 431 -139 l 365 -153 l 392 -11 q 276 8 329 -6 q 174 51 224 22 q 97 122 125 79 q 58 226 69 164 q 68 368 46 288 l 193 340 q 181 196 171 253 q 236 104 190 139 q 336 56 282 69 q 457 42 390 42 q 681 218 681 42 q 625 333 681 294 q 443 411 569 371 q 403 424 429 415 q 319 450 347 440 q 247 478 292 460 q 181 513 203 496 q 133 556 158 531 q 98 615 108 582 q 88 688 88 647 q 188 870 88 810 q 440 931 289 931 q 581 915 517 931 q 697 861 644 899 q 765 764 750 824 q 757 617 779 704 l 632 644 q 624 817 683 760 q 439 875 565 875 q 213 717 213 875 q 226 663 213 688 q 258 621 240 638 q 311 588 276 604 q 372 562 346 571 q 443 539 399 553 q 686 446 626 482 q 806 244 806 376 z "},"ş":{"ha":693,"x_min":18,"x_max":651,"o":"m 651 193 q 574 38 651 88 q 374 -14 496 -11 l 321 -106 l 335 -106 q 417 -83 371 -83 q 493 -109 461 -83 q 525 -187 525 -135 q 478 -285 525 -251 q 364 -318 432 -318 q 255 -283 299 -318 q 228 -185 211 -249 l 311 -210 q 316 -249 299 -236 q 358 -262 333 -262 q 419 -244 397 -262 q 442 -189 442 -225 q 388 -139 442 -139 q 297 -161 335 -139 l 269 -153 l 297 -11 q 90 70 161 1 q 51 282 18 139 l 176 254 q 367 42 111 42 q 484 76 442 42 q 526 164 526 110 q 465 264 526 233 q 356 303 443 275 q 138 375 186 347 q 56 515 56 421 q 133 661 56 614 q 342 708 211 708 q 458 696 404 708 q 558 656 513 683 q 617 581 603 628 q 614 468 631 535 l 489 496 q 501 573 506 543 q 467 621 496 603 q 408 646 439 639 q 340 653 376 653 q 220 623 260 653 q 181 551 181 593 q 182 526 181 538 q 189 504 183 514 q 199 488 194 494 q 215 475 203 482 q 233 464 226 468 q 257 453 239 460 q 284 444 275 447 q 318 435 293 442 q 356 424 343 428 q 453 397 421 407 q 531 367 486 388 q 598 326 576 347 q 635 272 619 306 q 651 193 651 238 z "},"Š":{"ha":847,"x_min":53,"x_max":806,"o":"m 632 1154 q 547 1101 575 1135 q 507 1015 518 1067 l 382 1015 q 342 1101 371 1067 q 257 1154 314 1135 l 285 1224 q 376 1180 335 1213 q 438 1099 417 1147 l 451 1099 q 513 1180 472 1147 q 604 1224 554 1213 l 632 1154 m 88 688 q 188 870 88 810 q 440 931 289 931 q 581 915 517 931 q 697 861 644 899 q 765 764 750 824 q 757 617 779 704 l 632 644 q 624 817 683 760 q 439 875 565 875 q 213 717 213 875 q 226 663 213 688 q 258 621 240 638 q 311 588 276 604 q 372 562 346 571 q 443 539 399 553 q 686 446 626 482 q 806 244 806 376 q 777 120 806 172 q 697 40 749 68 q 586 -1 646 11 q 454 -14 526 -14 q 346 -6 397 -14 q 242 19 294 1 q 153 65 190 36 q 88 135 117 93 q 56 235 60 178 q 68 368 53 293 l 193 340 q 181 196 171 253 q 236 104 190 139 q 336 56 282 69 q 457 42 390 42 q 681 218 681 42 q 625 333 681 294 q 443 411 569 371 q 403 424 429 415 q 319 450 347 440 q 247 478 292 460 q 181 513 203 496 q 133 556 158 531 q 98 615 108 582 q 88 688 88 647 z "},"š":{"ha":693,"x_min":32,"x_max":651,"o":"m 535 932 q 449 878 478 913 q 410 793 421 844 l 285 793 q 245 878 274 844 q 160 932 217 913 l 188 1001 q 278 958 238 990 q 340 876 319 925 l 354 876 q 416 958 375 925 q 507 1001 457 990 l 535 932 m 56 515 q 133 661 56 614 q 342 708 211 708 q 458 696 404 708 q 558 656 513 683 q 617 581 603 628 q 614 468 631 535 l 489 496 q 501 573 506 543 q 467 621 496 603 q 408 646 439 639 q 340 653 376 653 q 220 623 260 653 q 181 551 181 593 q 182 526 181 538 q 189 504 183 514 q 199 488 194 494 q 215 475 203 482 q 233 464 226 468 q 257 453 239 460 q 284 444 275 447 q 318 435 293 442 q 356 424 343 428 q 453 397 421 407 q 531 367 486 388 q 598 326 576 347 q 635 272 619 306 q 651 193 651 238 q 571 36 651 86 q 365 -14 490 -14 q 256 -6 306 -14 q 159 23 207 3 q 85 76 111 43 q 45 161 58 110 q 51 282 32 213 l 176 254 q 367 42 111 42 q 484 76 442 42 q 526 164 526 110 q 465 264 526 233 q 356 303 443 275 q 138 375 186 347 q 56 515 56 421 z "},"Ţ":{"ha":881,"x_min":42,"x_max":839,"o":"m 819 889 l 839 724 l 813 719 q 772 831 801 801 q 689 861 743 861 l 503 861 l 503 133 q 517 53 503 79 q 572 28 531 28 l 572 0 l 475 0 l 414 -106 l 428 -106 q 510 -83 464 -83 q 586 -109 554 -83 q 618 -187 618 -135 q 572 -285 618 -251 q 457 -318 525 -318 q 348 -283 392 -318 q 321 -185 304 -249 l 404 -210 q 409 -249 392 -236 q 451 -262 426 -262 q 513 -244 490 -262 q 535 -189 535 -225 q 481 -139 535 -139 q 390 -161 428 -139 l 363 -153 l 392 0 l 308 0 l 308 28 q 364 53 350 28 q 378 133 378 79 l 378 861 l 192 861 q 108 831 138 861 q 68 719 79 801 l 42 724 l 61 889 l 65 917 l 815 917 l 819 889 z "},"ţ":{"ha":507,"x_min":56,"x_max":494,"o":"m 386 -83 q 463 -109 431 -83 q 494 -187 494 -135 q 448 -285 494 -251 q 333 -318 401 -318 q 224 -283 268 -318 q 197 -185 181 -249 l 281 -210 q 285 -249 268 -236 q 328 -262 303 -262 q 389 -244 367 -262 q 411 -189 411 -225 q 357 -139 411 -139 q 267 -161 304 -139 l 239 -153 l 267 -8 q 139 203 139 21 l 139 639 l 56 639 l 56 694 q 137 719 107 703 q 188 783 167 735 q 208 917 208 832 l 264 917 l 264 694 l 432 694 q 431 667 432 676 q 419 648 429 657 q 390 639 410 639 l 264 639 l 264 236 q 278 85 264 129 q 335 42 293 42 q 382 90 378 42 l 465 63 q 344 -12 433 -7 l 290 -106 l 304 -106 q 386 -83 340 -83 z "},"Ť":{"ha":881,"x_min":42,"x_max":839,"o":"m 378 1015 q 338 1101 367 1067 q 253 1154 310 1135 l 281 1224 q 372 1180 331 1213 q 433 1099 413 1147 l 447 1099 q 509 1180 468 1147 q 600 1224 550 1213 l 628 1154 q 542 1101 571 1135 q 503 1015 514 1067 l 378 1015 m 819 889 l 839 724 l 813 719 q 772 831 801 801 q 689 861 743 861 l 503 861 l 503 133 q 517 53 503 79 q 572 28 531 28 l 572 0 l 308 0 l 308 28 q 364 53 350 28 q 378 133 378 79 l 378 861 l 192 861 q 108 831 138 861 q 68 719 79 801 l 42 724 l 61 889 l 65 917 l 815 917 l 819 889 z "},"ť":{"ha":507,"x_min":56,"x_max":465,"o":"m 410 778 l 382 778 q 354 871 375 821 q 333 951 333 921 q 396 1014 333 1014 q 458 951 458 1014 q 438 871 458 921 q 410 778 417 821 m 382 90 l 465 63 q 322 -14 432 -14 q 139 203 139 -14 l 139 639 l 56 639 l 56 694 q 137 719 107 703 q 188 783 167 735 q 208 917 208 832 l 264 917 l 264 694 l 432 694 q 431 667 432 676 q 419 648 429 657 q 390 639 410 639 l 264 639 l 264 236 q 278 85 264 129 q 335 42 293 42 q 382 90 378 42 z "},"Ŧ":{"ha":881,"x_min":42,"x_max":839,"o":"m 819 889 l 839 724 l 813 719 q 772 831 801 801 q 689 861 743 861 l 503 861 l 503 486 l 649 486 l 649 431 l 503 431 l 503 133 q 517 53 503 79 q 572 28 531 28 l 572 0 l 308 0 l 308 28 q 364 53 350 28 q 378 133 378 79 l 378 431 l 232 431 l 232 486 l 378 486 l 378 861 l 192 861 q 108 831 138 861 q 68 719 79 801 l 42 724 l 61 889 l 65 917 l 815 917 l 819 889 z "},"ŧ":{"ha":507,"x_min":56,"x_max":465,"o":"m 382 90 l 465 63 q 322 -14 432 -14 q 139 203 139 -14 l 139 389 l 56 389 l 56 444 l 139 444 l 139 639 l 56 639 l 56 694 q 137 719 107 703 q 188 783 167 735 q 208 917 208 832 l 264 917 l 264 694 l 432 694 q 431 667 432 676 q 419 648 429 657 q 390 639 410 639 l 264 639 l 264 444 l 431 444 l 431 389 l 264 389 l 264 236 q 278 85 264 129 q 335 42 293 42 q 382 90 378 42 z "},"Ū":{"ha":958,"x_min":42,"x_max":917,"o":"m 706 1146 l 706 1090 l 307 1090 l 307 1146 l 706 1146 m 917 917 l 917 889 q 861 863 875 889 q 847 783 847 838 l 846 465 q 828 260 843 343 q 774 112 813 176 q 667 17 736 47 q 493 -14 597 -14 q 301 16 376 -14 q 184 110 225 46 q 127 258 143 175 q 111 465 111 340 l 111 783 q 97 863 111 838 q 42 889 83 889 l 42 917 l 306 917 l 306 889 q 250 863 264 889 q 236 783 236 838 l 235 465 q 294 138 235 235 q 507 42 354 42 q 725 145 663 42 q 792 465 788 249 l 793 783 q 779 863 793 838 q 724 889 765 889 l 724 917 l 917 917 z "},"ū":{"ha":863,"x_min":56,"x_max":807,"o":"m 631 924 l 631 868 l 232 868 l 232 924 l 631 924 m 807 667 q 751 641 765 667 q 738 561 738 615 l 738 133 q 751 53 738 79 q 807 28 765 28 l 807 0 l 724 0 q 670 3 692 0 q 631 22 649 7 q 613 65 613 38 l 613 217 l 599 217 q 517 46 578 106 q 357 -14 456 -14 q 125 251 125 -14 l 125 561 q 111 641 125 615 q 56 667 97 667 l 56 694 l 319 694 l 319 667 q 264 641 278 667 q 250 561 250 615 l 250 238 q 281 90 250 139 q 385 42 313 42 q 516 104 463 42 q 591 255 569 167 q 613 444 613 343 l 613 561 q 599 641 613 615 q 543 667 585 667 l 543 694 l 807 694 l 807 667 z "},"Ů":{"ha":958,"x_min":42,"x_max":917,"o":"m 605 1043 q 588 1028 605 1043 q 507 1014 571 1014 q 409 1043 443 1014 q 375 1118 375 1072 q 409 1192 375 1163 q 507 1222 443 1222 q 604 1192 569 1222 q 639 1118 639 1163 q 605 1043 639 1072 m 556 1118 q 556 1142 556 1118 q 507 1167 556 1167 q 458 1118 458 1167 q 507 1069 458 1069 q 556 1118 556 1069 m 917 917 l 917 889 q 861 863 875 889 q 847 783 847 838 l 846 465 q 828 260 843 343 q 774 112 813 176 q 667 17 736 47 q 493 -14 597 -14 q 301 16 376 -14 q 184 110 225 46 q 127 258 143 175 q 111 465 111 340 l 111 783 q 97 863 111 838 q 42 889 83 889 l 42 917 l 306 917 l 306 889 q 250 863 264 889 q 236 783 236 838 l 235 465 q 294 138 235 235 q 507 42 354 42 q 725 145 663 42 q 792 465 788 249 l 793 783 q 779 863 793 838 q 724 889 765 889 l 724 917 l 917 917 z "},"ů":{"ha":863,"x_min":56,"x_max":807,"o":"m 530 821 q 513 806 530 821 q 432 792 496 792 q 334 821 368 792 q 300 896 300 850 q 334 970 300 940 q 432 1000 368 1000 q 529 970 494 1000 q 564 896 564 940 q 530 821 564 850 m 481 896 q 481 920 481 896 q 432 944 481 944 q 383 896 383 944 q 432 847 383 847 q 481 896 481 847 m 807 667 q 751 641 765 667 q 738 561 738 615 l 738 133 q 751 53 738 79 q 807 28 765 28 l 807 0 l 724 0 q 670 3 692 0 q 631 22 649 7 q 613 65 613 38 l 613 217 l 599 217 q 517 46 578 106 q 357 -14 456 -14 q 125 251 125 -14 l 125 561 q 111 641 125 615 q 56 667 97 667 l 56 694 l 319 694 l 319 667 q 264 641 278 667 q 250 561 250 615 l 250 238 q 281 90 250 139 q 385 42 313 42 q 516 104 463 42 q 591 255 569 167 q 613 444 613 343 l 613 561 q 599 641 613 615 q 543 667 585 667 l 543 694 l 807 694 l 807 667 z "},"Ű":{"ha":958,"x_min":42,"x_max":917,"o":"m 558 1042 l 517 1069 q 622 1222 622 1111 l 761 1250 q 558 1042 761 1094 m 553 1222 q 350 1014 553 1067 l 308 1042 q 414 1194 414 1083 l 553 1222 m 917 917 l 917 889 q 861 863 875 889 q 847 783 847 838 l 846 465 q 828 260 843 343 q 774 112 813 176 q 667 17 736 47 q 493 -14 597 -14 q 301 16 376 -14 q 184 110 225 46 q 127 258 143 175 q 111 465 111 340 l 111 783 q 97 863 111 838 q 42 889 83 889 l 42 917 l 306 917 l 306 889 q 250 863 264 889 q 236 783 236 838 l 235 465 q 294 138 235 235 q 507 42 354 42 q 725 145 663 42 q 792 465 788 249 l 793 783 q 779 863 793 838 q 724 889 765 889 l 724 917 l 917 917 z "},"ű":{"ha":863,"x_min":56,"x_max":807,"o":"m 483 819 l 442 847 q 547 1000 547 889 l 686 1028 q 483 819 686 872 m 478 1000 q 275 792 478 844 l 233 819 q 339 972 339 861 l 478 1000 m 807 667 q 751 641 765 667 q 738 561 738 615 l 738 133 q 751 53 738 79 q 807 28 765 28 l 807 0 l 724 0 q 670 3 692 0 q 631 22 649 7 q 613 65 613 38 l 613 217 l 599 217 q 517 46 578 106 q 357 -14 456 -14 q 125 251 125 -14 l 125 561 q 111 641 125 615 q 56 667 97 667 l 56 694 l 319 694 l 319 667 q 264 641 278 667 q 250 561 250 615 l 250 238 q 281 90 250 139 q 385 42 313 42 q 516 104 463 42 q 591 255 569 167 q 613 444 613 343 l 613 561 q 599 641 613 615 q 543 667 585 667 l 543 694 l 807 694 l 807 667 z "},"Ų":{"ha":958,"x_min":42,"x_max":917,"o":"m 917 917 l 917 889 q 861 863 875 889 q 847 783 847 838 l 846 465 q 793 144 843 257 q 615 0 743 32 q 483 -156 483 -86 q 538 -224 483 -210 q 661 -192 593 -237 l 689 -247 q 561 -308 633 -297 q 438 -284 489 -318 q 386 -186 386 -250 q 546 -14 386 -87 l 546 -11 q 493 -14 513 -14 q 301 16 376 -14 q 184 110 225 46 q 127 258 143 175 q 111 465 111 340 l 111 783 q 97 863 111 838 q 42 889 83 889 l 42 917 l 306 917 l 306 889 q 250 863 264 889 q 236 783 236 838 l 235 465 q 294 138 235 235 q 507 42 354 42 q 725 145 663 42 q 792 465 788 249 l 793 783 q 779 863 793 838 q 724 889 765 889 l 724 917 l 917 917 z "},"ų":{"ha":863,"x_min":56,"x_max":858,"o":"m 831 -192 l 858 -247 q 731 -308 803 -297 q 607 -284 658 -318 q 556 -186 556 -250 q 715 -14 556 -87 l 715 0 l 724 0 q 670 3 692 0 q 631 22 649 7 q 613 65 613 38 l 613 217 l 599 217 q 517 46 578 106 q 357 -14 456 -14 q 125 251 125 -14 l 125 561 q 111 641 125 615 q 56 667 97 667 l 56 694 l 319 694 l 319 667 q 264 641 278 667 q 250 561 250 615 l 250 238 q 281 90 250 139 q 385 42 313 42 q 516 104 463 42 q 591 255 569 167 q 613 444 613 343 l 613 561 q 599 641 613 615 q 543 667 585 667 l 543 694 l 807 694 l 807 667 q 751 641 765 667 q 738 561 738 615 l 738 133 q 751 53 738 79 q 807 28 765 28 l 807 0 l 785 0 q 653 -156 653 -86 q 708 -224 653 -210 q 831 -192 763 -237 z "},"Ŵ":{"ha":1665,"x_min":56,"x_max":1610,"o":"m 861 1139 q 799 1058 840 1090 q 708 1014 758 1025 l 681 1083 q 766 1137 738 1103 q 806 1222 794 1171 l 931 1222 q 970 1137 942 1171 q 1056 1083 999 1103 l 1028 1014 q 937 1058 978 1025 q 875 1139 896 1090 l 861 1139 m 1610 917 l 1610 889 q 1531 865 1560 889 q 1483 790 1501 840 l 1218 0 l 1088 0 l 832 825 l 575 0 l 444 0 l 181 790 q 56 889 147 889 l 56 917 l 410 917 l 410 889 q 310 863 329 889 q 313 790 290 838 l 544 90 l 803 917 l 933 917 l 1190 90 l 1425 790 q 1429 863 1447 838 q 1329 889 1411 889 l 1329 917 l 1610 917 z "},"ŵ":{"ha":1233,"x_min":14,"x_max":1219,"o":"m 608 917 q 547 835 588 868 q 456 792 506 803 l 428 861 q 513 915 485 881 q 553 1000 542 949 l 678 1000 q 717 915 689 949 q 803 861 746 881 l 775 792 q 684 835 725 803 q 622 917 643 868 l 608 917 m 1219 694 l 1219 667 q 1089 568 1119 667 l 908 0 l 776 0 l 610 490 l 454 0 l 322 0 l 144 567 q 98 642 128 618 q 14 667 68 667 l 14 694 l 372 694 l 372 667 q 272 641 292 667 q 274 568 253 615 l 425 92 l 615 694 l 674 694 l 878 89 l 1031 568 q 1032 641 1051 615 q 932 667 1013 667 l 932 694 l 1219 694 z "},"Ŷ":{"ha":936,"x_min":14,"x_max":922,"o":"m 463 1139 q 401 1058 442 1090 q 310 1014 360 1025 l 282 1083 q 367 1137 339 1103 q 407 1222 396 1171 l 532 1222 q 572 1137 543 1171 q 657 1083 600 1103 l 629 1014 q 538 1058 579 1025 q 476 1139 497 1090 l 463 1139 m 922 917 l 922 889 q 779 801 831 889 l 531 369 l 531 133 q 544 53 531 79 q 600 28 558 28 l 600 0 l 336 0 l 336 28 q 392 53 378 28 q 406 133 406 79 l 406 369 l 157 801 q 14 889 106 889 l 14 917 l 375 917 l 375 889 q 283 867 294 889 q 303 801 271 844 l 508 442 l 713 800 q 731 867 743 844 q 639 889 719 889 l 639 917 l 922 917 z "},"ŷ":{"ha":863,"x_min":14,"x_max":849,"o":"m 453 917 q 391 835 432 868 q 300 792 350 803 l 272 861 q 358 915 329 881 q 397 1000 386 949 l 522 1000 q 562 915 533 949 q 647 861 590 881 l 619 792 q 528 835 569 803 q 467 917 488 868 l 453 917 m 849 694 l 849 667 q 717 571 756 667 l 496 1 l 497 0 l 496 0 l 474 -57 q 443 -133 453 -110 q 414 -192 433 -157 q 376 -240 394 -226 q 330 -266 358 -254 q 267 -278 301 -278 q 125 -208 168 -278 q 124 -28 82 -139 l 249 -56 q 265 -222 165 -222 q 346 -181 311 -222 q 414 -57 381 -140 l 436 0 l 364 0 l 144 569 q 14 667 108 667 l 14 694 l 369 694 l 369 667 q 272 642 289 667 q 278 569 254 617 l 467 79 l 656 569 q 664 642 681 617 q 565 667 647 667 l 565 694 l 849 694 z "},"Ÿ":{"ha":936,"x_min":14,"x_max":922,"o":"m 412 1067 q 401 1057 412 1067 q 361 1046 390 1046 q 310 1067 332 1046 q 289 1119 289 1089 q 310 1169 289 1147 q 361 1190 332 1190 q 411 1169 389 1190 q 433 1119 433 1147 q 412 1067 433 1089 m 628 1067 q 618 1057 628 1067 q 578 1046 607 1046 q 527 1067 549 1046 q 506 1119 506 1089 q 527 1169 506 1147 q 578 1190 549 1190 q 628 1169 606 1190 q 650 1119 650 1147 q 628 1067 650 1089 m 922 917 l 922 889 q 779 801 831 889 l 531 369 l 531 133 q 544 53 531 79 q 600 28 558 28 l 600 0 l 336 0 l 336 28 q 392 53 378 28 q 406 133 406 79 l 406 369 l 157 801 q 14 889 106 889 l 14 917 l 375 917 l 375 889 q 283 867 294 889 q 303 801 271 844 l 508 442 l 713 800 q 731 867 743 844 q 639 889 719 889 l 639 917 l 922 917 z "},"Ź":{"ha":833,"x_min":56,"x_max":778,"o":"m 539 1222 q 336 1014 539 1067 l 294 1042 q 400 1194 400 1083 l 539 1222 m 751 197 l 778 193 l 758 28 l 754 0 l 56 0 l 56 42 l 604 861 l 206 861 q 122 831 151 861 q 82 719 93 801 l 56 724 l 75 889 l 79 917 l 764 917 l 764 875 l 215 56 l 628 56 q 711 85 682 56 q 751 197 740 115 z "},"ź":{"ha":722,"x_min":56,"x_max":667,"o":"m 239 819 q 344 972 344 861 l 483 1000 q 281 792 483 844 l 239 819 m 489 639 l 206 639 q 122 609 151 639 q 82 497 93 579 l 56 501 l 75 667 l 79 694 l 653 694 l 653 653 l 219 56 l 517 56 q 600 85 571 56 q 640 197 629 115 l 667 193 l 647 28 l 643 0 l 56 0 l 56 42 l 489 639 z "},"Ż":{"ha":833,"x_min":56,"x_max":778,"o":"m 467 1067 q 457 1057 467 1067 q 417 1046 446 1046 q 366 1067 388 1046 q 344 1119 344 1089 q 366 1169 344 1147 q 417 1190 388 1190 q 467 1169 444 1190 q 489 1119 489 1147 q 467 1067 489 1089 m 751 197 l 778 193 l 758 28 l 754 0 l 56 0 l 56 42 l 604 861 l 206 861 q 122 831 151 861 q 82 719 93 801 l 56 724 l 75 889 l 79 917 l 764 917 l 764 875 l 215 56 l 628 56 q 711 85 682 56 q 751 197 740 115 z "},"ż":{"ha":722,"x_min":56,"x_max":667,"o":"m 412 845 q 401 834 412 845 q 361 824 390 824 q 310 845 332 824 q 289 897 289 867 q 310 947 289 925 q 361 968 332 968 q 411 947 389 968 q 433 897 433 925 q 412 845 433 867 m 489 639 l 206 639 q 122 609 151 639 q 82 497 93 579 l 56 501 l 75 667 l 79 694 l 653 694 l 653 653 l 219 56 l 517 56 q 600 85 571 56 q 640 197 629 115 l 667 193 l 647 28 l 643 0 l 56 0 l 56 42 l 489 639 z "},"Ž":{"ha":833,"x_min":56,"x_max":778,"o":"m 354 1015 q 315 1101 343 1067 q 229 1154 286 1135 l 257 1224 q 348 1180 307 1213 q 410 1099 389 1147 l 424 1099 q 485 1180 444 1147 q 576 1224 526 1213 l 604 1154 q 519 1101 547 1135 q 479 1015 490 1067 l 354 1015 m 751 197 l 778 193 l 758 28 l 754 0 l 56 0 l 56 42 l 604 861 l 206 861 q 122 831 151 861 q 82 719 93 801 l 56 724 l 75 889 l 79 917 l 764 917 l 764 875 l 215 56 l 628 56 q 711 85 682 56 q 751 197 740 115 z "},"ž":{"ha":722,"x_min":56,"x_max":667,"o":"m 549 932 q 463 878 492 913 q 424 793 435 844 l 299 793 q 259 878 288 844 q 174 932 231 913 l 201 1001 q 292 958 251 990 q 354 876 333 925 l 368 876 q 430 958 389 925 q 521 1001 471 990 l 549 932 m 489 639 l 206 639 q 122 609 151 639 q 82 497 93 579 l 56 501 l 75 667 l 79 694 l 653 694 l 653 653 l 219 56 l 517 56 q 600 85 571 56 q 640 197 629 115 l 667 193 l 647 28 l 643 0 l 56 0 l 56 42 l 489 639 z "},"Ș":{"ha":847,"x_min":53,"x_max":806,"o":"m 88 688 q 188 870 88 810 q 440 931 289 931 q 581 915 517 931 q 697 861 644 899 q 765 764 750 824 q 757 617 779 704 l 632 644 q 624 817 683 760 q 439 875 565 875 q 213 717 213 875 q 226 663 213 688 q 258 621 240 638 q 311 588 276 604 q 372 562 346 571 q 443 539 399 553 q 686 446 626 482 q 806 244 806 376 q 777 120 806 172 q 697 40 749 68 q 586 -1 646 11 q 454 -14 526 -14 q 346 -6 397 -14 q 242 19 294 1 q 153 65 190 36 q 88 135 117 93 q 56 235 60 178 q 68 368 53 293 l 193 340 q 181 196 171 253 q 236 104 190 139 q 336 56 282 69 q 457 42 390 42 q 681 218 681 42 q 625 333 681 294 q 443 411 569 371 q 403 424 429 415 q 319 450 347 440 q 247 478 292 460 q 181 513 203 496 q 133 556 158 531 q 98 615 108 582 q 88 688 88 647 m 383 -300 q 463 -240 456 -276 q 426 -251 449 -251 q 385 -231 400 -251 q 369 -181 369 -210 q 389 -131 369 -151 q 440 -111 408 -111 q 515 -204 515 -111 q 485 -288 515 -256 q 389 -342 456 -321 l 383 -300 z "},"ș":{"ha":693,"x_min":32,"x_max":651,"o":"m 56 515 q 133 661 56 614 q 342 708 211 708 q 458 696 404 708 q 558 656 513 683 q 617 581 603 628 q 614 468 631 535 l 489 496 q 501 573 506 543 q 467 621 496 603 q 408 646 439 639 q 340 653 376 653 q 220 623 260 653 q 181 551 181 593 q 182 526 181 538 q 189 504 183 514 q 199 488 194 494 q 215 475 203 482 q 233 464 226 468 q 257 453 239 460 q 284 444 275 447 q 318 435 293 442 q 356 424 343 428 q 453 397 421 407 q 531 367 486 388 q 598 326 576 347 q 635 272 619 306 q 651 193 651 238 q 571 36 651 86 q 365 -14 490 -14 q 256 -6 306 -14 q 159 23 207 3 q 85 76 111 43 q 45 161 58 110 q 51 282 32 213 l 176 254 q 367 42 111 42 q 484 76 442 42 q 526 164 526 110 q 465 264 526 233 q 356 303 443 275 q 138 375 186 347 q 56 515 56 421 m 288 -300 q 367 -240 360 -276 q 331 -251 353 -251 q 289 -231 304 -251 q 274 -181 274 -210 q 293 -131 274 -151 q 344 -111 313 -111 q 419 -204 419 -111 q 390 -288 419 -256 q 293 -342 360 -321 l 288 -300 z "},"Ț":{"ha":881,"x_min":42,"x_max":839,"o":"m 819 889 l 839 724 l 813 719 q 772 831 801 801 q 689 861 743 861 l 503 861 l 503 133 q 517 53 503 79 q 572 28 531 28 l 572 0 l 308 0 l 308 28 q 364 53 350 28 q 378 133 378 79 l 378 861 l 192 861 q 108 831 138 861 q 68 719 79 801 l 42 724 l 61 889 l 65 917 l 815 917 l 819 889 m 438 -111 q 513 -204 513 -111 q 483 -288 513 -256 q 386 -342 453 -321 l 381 -300 q 460 -240 453 -276 q 424 -251 446 -251 q 382 -231 397 -251 q 367 -181 367 -210 q 386 -131 367 -151 q 438 -111 406 -111 z "},"ț":{"ha":507,"x_min":56,"x_max":465,"o":"m 382 90 l 465 63 q 322 -14 432 -14 q 139 203 139 -14 l 139 639 l 56 639 l 56 694 q 137 719 107 703 q 188 783 167 735 q 208 917 208 832 l 264 917 l 264 694 l 432 694 q 431 667 432 676 q 419 648 429 657 q 390 639 410 639 l 264 639 l 264 236 q 278 85 264 129 q 335 42 293 42 q 382 90 378 42 m 314 -111 q 389 -204 389 -111 q 359 -288 389 -256 q 263 -342 329 -321 l 257 -300 q 336 -240 329 -276 q 300 -251 322 -251 q 258 -231 274 -251 q 243 -181 243 -210 q 263 -131 243 -151 q 314 -111 282 -111 z "},"ˆ":{"ha":486,"x_min":56,"x_max":431,"o":"m 431 861 l 403 792 q 312 835 353 803 q 250 917 271 868 l 236 917 q 174 835 215 868 q 83 792 133 803 l 56 861 q 141 915 113 881 q 181 1000 169 949 l 306 1000 q 345 915 317 949 q 431 861 374 881 z "},"ˇ":{"ha":486,"x_min":56,"x_max":431,"o":"m 431 932 q 345 878 374 913 q 306 793 317 844 l 181 793 q 141 878 169 844 q 56 932 113 913 l 83 1001 q 174 958 133 990 q 236 876 215 925 l 250 876 q 312 958 271 925 q 403 1001 353 990 l 431 932 z "},"˘":{"ha":486,"x_min":56,"x_max":431,"o":"m 431 1000 q 422 926 431 960 q 395 860 414 892 q 340 810 376 828 q 250 792 303 792 q 103 853 150 792 q 56 1000 56 915 l 181 1000 q 203 883 181 919 q 278 847 226 847 q 352 883 329 847 q 375 1000 375 919 l 431 1000 z "},"˙":{"ha":256,"x_min":56,"x_max":200,"o":"m 178 845 q 168 834 178 845 q 128 824 157 824 q 77 845 99 824 q 56 897 56 867 q 77 947 56 925 q 128 968 99 968 q 178 947 156 968 q 200 897 200 925 q 178 845 200 867 z "},"˚":{"ha":375,"x_min":56,"x_max":319,"o":"m 285 821 q 268 806 285 821 q 188 792 251 792 q 90 821 124 792 q 56 896 56 850 q 90 970 56 940 q 188 1000 124 1000 q 285 970 250 1000 q 319 896 319 940 q 285 821 319 850 m 139 896 q 139 872 139 896 q 188 847 139 847 q 236 896 236 847 q 188 944 236 944 q 139 896 139 944 z "},"˛":{"ha":414,"x_min":56,"x_max":358,"o":"m 56 -186 q 215 -14 56 -87 l 215 0 l 285 0 q 153 -156 153 -86 q 208 -224 153 -210 q 331 -192 263 -237 l 358 -247 q 231 -308 303 -297 q 107 -284 158 -318 q 56 -186 56 -250 z "},"˜":{"ha":564,"x_min":42,"x_max":522,"o":"m 400 792 q 320 811 357 792 q 262 854 283 831 q 217 897 240 878 q 172 917 193 917 q 147 806 107 917 l 64 833 q 73 952 42 904 q 164 1000 104 1000 q 244 981 207 1000 q 302 938 281 961 q 347 894 324 914 q 392 875 371 875 q 417 986 457 875 l 500 958 q 491 840 522 888 q 400 792 460 792 z "},"˝":{"ha":564,"x_min":56,"x_max":508,"o":"m 264 847 q 369 1000 369 889 l 508 1028 q 306 819 508 872 l 264 847 m 56 819 q 161 972 161 861 l 300 1000 q 97 792 300 844 l 56 819 z "},"̀":{"ha":0,"x_min":-300,"x_max":-56,"o":"m -56 819 l -97 792 q -300 1000 -300 844 l -161 972 q -56 819 -161 861 z "},"́":{"ha":0,"x_min":-300,"x_max":-56,"o":"m -300 819 q -194 972 -194 861 l -56 1000 q -258 792 -56 844 l -300 819 z "},"̂":{"ha":0,"x_min":-431,"x_max":-56,"o":"m -56 861 l -83 792 q -174 835 -133 803 q -236 917 -215 868 l -250 917 q -312 835 -271 868 q -403 792 -353 803 l -431 861 q -345 915 -374 881 q -306 1000 -317 949 l -181 1000 q -141 915 -169 949 q -56 861 -112 881 z "},"̃":{"ha":0,"x_min":-522,"x_max":-42,"o":"m -164 792 q -244 811 -207 792 q -302 854 -281 831 q -347 897 -324 878 q -392 917 -371 917 q -417 806 -457 917 l -500 833 q -491 952 -522 904 q -400 1000 -460 1000 q -320 981 -357 1000 q -262 938 -283 961 q -217 894 -240 914 q -172 875 -193 875 q -147 986 -107 875 l -64 958 q -73 840 -42 888 q -164 792 -104 792 z "},"̄":{"ha":0,"x_min":-454,"x_max":-56,"o":"m -454 924 l -56 924 l -56 868 l -454 868 l -454 924 z "},"̆":{"ha":0,"x_min":-431,"x_max":-56,"o":"m -56 1000 q -64 926 -56 960 q -91 860 -72 892 q -147 810 -110 828 q -236 792 -183 792 q -383 853 -336 792 q -431 1000 -431 915 l -306 1000 q -283 883 -306 919 q -208 847 -260 847 q -134 883 -157 847 q -111 1000 -111 919 l -56 1000 z "},"̇":{"ha":0,"x_min":-200,"x_max":-56,"o":"m -77 845 q -88 834 -77 845 q -128 824 -99 824 q -178 845 -157 824 q -200 897 -200 867 q -178 947 -200 925 q -128 968 -157 968 q -78 947 -100 968 q -56 897 -56 925 q -77 845 -56 867 z "},"̈":{"ha":0,"x_min":-417,"x_max":-56,"o":"m -294 845 q -305 834 -294 845 q -344 824 -315 824 q -395 845 -374 824 q -417 897 -417 867 q -395 947 -417 925 q -344 968 -374 968 q -294 947 -317 968 q -272 897 -272 925 q -294 845 -272 867 m -77 845 q -88 834 -77 845 q -128 824 -99 824 q -178 845 -157 824 q -200 897 -200 867 q -178 947 -200 925 q -128 968 -157 968 q -78 947 -100 968 q -56 897 -56 925 q -77 845 -56 867 z "},"̊":{"ha":0,"x_min":-319,"x_max":-56,"o":"m -90 821 q -107 806 -90 821 q -187 792 -124 792 q -285 821 -251 792 q -319 896 -319 850 q -285 970 -319 940 q -187 1000 -251 1000 q -90 970 -125 1000 q -56 896 -56 940 q -90 821 -56 850 m -236 896 q -236 872 -236 896 q -187 847 -236 847 q -139 896 -139 847 q -187 944 -139 944 q -236 896 -236 944 z "},"̋":{"ha":0,"x_min":-508,"x_max":-56,"o":"m -300 847 q -194 1000 -194 889 l -56 1028 q -258 819 -56 872 l -300 847 m -508 819 q -403 972 -403 861 l -264 1000 q -467 792 -264 844 l -508 819 z "},"̌":{"ha":0,"x_min":-431,"x_max":-56,"o":"m -56 932 q -141 878 -112 913 q -181 793 -169 844 l -306 793 q -345 878 -317 844 q -431 932 -374 913 l -403 1001 q -312 958 -353 990 q -250 876 -271 925 l -236 876 q -174 958 -215 925 q -83 1001 -133 990 l -56 932 z "},"̒":{"ha":0,"x_min":-201,"x_max":-56,"o":"m -69 1015 q -127 984 -106 1004 q -149 942 -149 964 q -112 953 -135 953 q -71 932 -86 953 q -56 882 -56 911 q -75 833 -56 853 q -126 813 -94 813 q -201 906 -201 813 q -169 992 -201 953 q -75 1043 -137 1031 l -69 1015 z "},"̦":{"ha":0,"x_min":-201,"x_max":-56,"o":"m -187 -300 q -108 -240 -115 -276 q -144 -251 -122 -251 q -186 -231 -171 -251 q -201 -181 -201 -210 q -182 -131 -201 -151 q -131 -111 -162 -111 q -56 -204 -56 -111 q -85 -288 -56 -256 q -182 -342 -115 -321 l -187 -300 z "},"̧":{"ha":0,"x_min":-369,"x_max":-56,"o":"m -164 -83 q -87 -109 -119 -83 q -56 -187 -56 -135 q -102 -285 -56 -251 q -217 -318 -149 -318 q -326 -283 -282 -318 q -353 -185 -369 -249 l -269 -210 q -265 -249 -282 -236 q -222 -262 -247 -262 q -161 -244 -183 -262 q -139 -189 -139 -225 q -193 -139 -139 -139 q -283 -161 -246 -139 l -311 -153 l -282 0 l -199 0 l -260 -106 l -246 -106 q -164 -83 -210 -83 z "},"̨":{"ha":0,"x_min":-358,"x_max":-56,"o":"m -358 -186 q -199 -14 -358 -87 l -199 0 l -129 0 q -261 -156 -261 -86 q -206 -224 -261 -210 q -83 -192 -151 -237 l -56 -247 q -183 -308 -111 -297 q -307 -284 -256 -318 q -358 -186 -358 -250 z "},"̵":{"ha":0,"x_min":-472,"x_max":-56,"o":"m -472 375 l -56 375 l -56 319 l -472 319 l -472 375 z "},"̶":{"ha":0,"x_min":-944,"x_max":-56,"o":"m -944 375 l -56 375 l -56 319 l -944 319 l -944 375 z "},"̷":{"ha":0,"x_min":-544,"x_max":-56,"o":"m -56 1000 l -485 -83 l -544 -83 l -115 1000 l -56 1000 z "},"̸":{"ha":0,"x_min":-544,"x_max":-56,"o":"m -56 1000 l -485 -83 l -544 -83 l -115 1000 l -56 1000 z "},"Ẁ":{"ha":1665,"x_min":56,"x_max":1610,"o":"m 921 1014 q 718 1222 718 1067 l 857 1194 q 963 1042 857 1083 l 921 1014 m 1610 917 l 1610 889 q 1531 865 1560 889 q 1483 790 1501 840 l 1218 0 l 1088 0 l 832 825 l 575 0 l 444 0 l 181 790 q 56 889 147 889 l 56 917 l 410 917 l 410 889 q 310 863 329 889 q 313 790 290 838 l 544 90 l 803 917 l 933 917 l 1190 90 l 1425 790 q 1429 863 1447 838 q 1329 889 1411 889 l 1329 917 l 1610 917 z "},"ẁ":{"ha":1233,"x_min":14,"x_max":1219,"o":"m 668 792 q 465 1000 465 844 l 604 972 q 710 819 604 861 l 668 792 m 1219 694 l 1219 667 q 1089 568 1119 667 l 908 0 l 776 0 l 610 490 l 454 0 l 322 0 l 144 567 q 98 642 128 618 q 14 667 68 667 l 14 694 l 372 694 l 372 667 q 272 641 292 667 q 274 568 253 615 l 425 92 l 615 694 l 674 694 l 878 89 l 1031 568 q 1032 641 1051 615 q 932 667 1013 667 l 932 694 l 1219 694 z "},"Ẃ":{"ha":1665,"x_min":56,"x_max":1610,"o":"m 990 1222 q 788 1014 990 1067 l 746 1042 q 851 1194 851 1083 l 990 1222 m 1610 917 l 1610 889 q 1531 865 1560 889 q 1483 790 1501 840 l 1218 0 l 1088 0 l 832 825 l 575 0 l 444 0 l 181 790 q 56 889 147 889 l 56 917 l 410 917 l 410 889 q 310 863 329 889 q 313 790 290 838 l 544 90 l 803 917 l 933 917 l 1190 90 l 1425 790 q 1429 863 1447 838 q 1329 889 1411 889 l 1329 917 l 1610 917 z "},"ẃ":{"ha":1233,"x_min":14,"x_max":1219,"o":"m 738 1000 q 535 792 738 844 l 493 819 q 599 972 599 861 l 738 1000 m 1219 694 l 1219 667 q 1089 568 1119 667 l 908 0 l 776 0 l 610 490 l 454 0 l 322 0 l 144 567 q 98 642 128 618 q 14 667 68 667 l 14 694 l 372 694 l 372 667 q 272 641 292 667 q 274 568 253 615 l 425 92 l 615 694 l 674 694 l 878 89 l 1031 568 q 1032 641 1051 615 q 932 667 1013 667 l 932 694 l 1219 694 z "},"Ẅ":{"ha":1665,"x_min":56,"x_max":1610,"o":"m 810 1067 q 800 1057 810 1067 q 760 1046 789 1046 q 709 1067 731 1046 q 688 1119 688 1089 q 709 1169 688 1147 q 760 1190 731 1190 q 810 1169 788 1190 q 832 1119 832 1147 q 810 1067 832 1089 m 1027 1067 q 1016 1057 1027 1067 q 976 1046 1006 1046 q 926 1067 947 1046 q 904 1119 904 1089 q 926 1169 904 1147 q 976 1190 947 1190 q 1026 1169 1004 1190 q 1049 1119 1049 1147 q 1027 1067 1049 1089 m 1610 917 l 1610 889 q 1531 865 1560 889 q 1483 790 1501 840 l 1218 0 l 1088 0 l 832 825 l 575 0 l 444 0 l 181 790 q 56 889 147 889 l 56 917 l 410 917 l 410 889 q 310 863 329 889 q 313 790 290 838 l 544 90 l 803 917 l 933 917 l 1190 90 l 1425 790 q 1429 863 1447 838 q 1329 889 1411 889 l 1329 917 l 1610 917 z "},"ẅ":{"ha":1233,"x_min":14,"x_max":1219,"o":"m 558 845 q 547 834 558 845 q 507 824 536 824 q 456 845 478 824 q 435 897 435 867 q 456 947 435 925 q 507 968 478 968 q 557 947 535 968 q 579 897 579 925 q 558 845 579 867 m 774 845 q 764 834 774 845 q 724 824 753 824 q 673 845 694 824 q 651 897 651 867 q 673 947 651 925 q 724 968 694 968 q 774 947 751 968 q 796 897 796 925 q 774 845 796 867 m 1219 694 l 1219 667 q 1089 568 1119 667 l 908 0 l 776 0 l 610 490 l 454 0 l 322 0 l 144 567 q 98 642 128 618 q 14 667 68 667 l 14 694 l 372 694 l 372 667 q 272 641 292 667 q 274 568 253 615 l 425 92 l 615 694 l 674 694 l 878 89 l 1031 568 q 1032 641 1051 615 q 932 667 1013 667 l 932 694 l 1219 694 z "},"Ỳ":{"ha":936,"x_min":14,"x_max":922,"o":"m 522 1014 q 319 1222 319 1067 l 458 1194 q 564 1042 458 1083 l 522 1014 m 922 917 l 922 889 q 779 801 831 889 l 531 369 l 531 133 q 544 53 531 79 q 600 28 558 28 l 600 0 l 336 0 l 336 28 q 392 53 378 28 q 406 133 406 79 l 406 369 l 157 801 q 14 889 106 889 l 14 917 l 375 917 l 375 889 q 283 867 294 889 q 303 801 271 844 l 508 442 l 713 800 q 731 867 743 844 q 639 889 719 889 l 639 917 l 922 917 z "},"ỳ":{"ha":863,"x_min":14,"x_max":849,"o":"m 513 792 q 310 1000 310 844 l 449 972 q 554 819 449 861 l 513 792 m 849 694 l 849 667 q 717 571 756 667 l 496 1 l 497 0 l 496 0 l 474 -57 q 443 -133 453 -110 q 414 -192 433 -157 q 376 -240 394 -226 q 330 -266 358 -254 q 267 -278 301 -278 q 125 -208 168 -278 q 124 -28 82 -139 l 249 -56 q 265 -222 165 -222 q 346 -181 311 -222 q 414 -57 381 -140 l 436 0 l 364 0 l 144 569 q 14 667 108 667 l 14 694 l 369 694 l 369 667 q 272 642 289 667 q 278 569 254 617 l 467 79 l 656 569 q 664 642 681 617 q 565 667 647 667 l 565 694 l 849 694 z "},"–":{"ha":828,"x_min":56,"x_max":772,"o":"m 111 389 l 772 389 q 770 347 772 361 q 756 319 768 333 q 717 306 743 306 l 56 306 q 58 347 56 333 q 72 375 60 361 q 111 389 85 389 z "},"—":{"ha":1167,"x_min":56,"x_max":1111,"o":"m 111 389 l 1111 389 q 1109 347 1111 361 q 1094 319 1107 333 q 1056 306 1082 306 l 56 306 q 58 347 56 333 q 72 375 60 361 q 111 389 85 389 z "},"‘":{"ha":299,"x_min":56,"x_max":243,"o":"m 243 1004 q 118 847 118 944 q 160 861 133 861 q 221 835 199 861 q 243 769 243 808 q 218 707 243 733 q 153 681 193 681 q 83 713 110 681 q 56 808 56 746 q 105 944 56 881 q 236 1032 154 1007 l 243 1004 z "},"’":{"ha":299,"x_min":56,"x_max":243,"o":"m 56 690 q 181 847 181 750 q 139 833 165 833 q 78 860 100 833 q 56 925 56 886 q 81 988 56 961 q 146 1014 106 1014 q 216 981 189 1014 q 243 886 243 949 q 194 751 243 814 q 63 663 144 688 l 56 690 z "},"‚":{"ha":299,"x_min":56,"x_max":243,"o":"m 56 -157 q 181 0 181 -97 q 139 -14 165 -14 q 78 13 100 -14 q 56 78 56 39 q 81 140 56 114 q 146 167 106 167 q 216 134 189 167 q 243 39 243 101 q 194 -97 243 -33 q 63 -185 144 -160 l 56 -157 z "},"“":{"ha":556,"x_min":56,"x_max":500,"o":"m 243 1004 q 118 847 118 944 q 160 861 133 861 q 221 835 199 861 q 243 769 243 808 q 218 707 243 733 q 153 681 193 681 q 83 713 110 681 q 56 808 56 746 q 105 944 56 881 q 236 1032 154 1007 l 243 1004 m 500 1004 q 375 847 375 944 q 417 861 390 861 q 478 835 456 861 q 500 769 500 808 q 475 707 500 733 q 410 681 450 681 q 340 713 367 681 q 313 808 313 746 q 362 944 313 881 q 493 1032 411 1007 l 500 1004 z "},"”":{"ha":556,"x_min":56,"x_max":500,"o":"m 56 690 q 181 847 181 750 q 139 833 165 833 q 78 860 100 833 q 56 925 56 886 q 81 988 56 961 q 146 1014 106 1014 q 216 981 189 1014 q 243 886 243 949 q 194 751 243 814 q 63 663 144 688 l 56 690 m 313 690 q 438 847 438 750 q 396 833 422 833 q 335 860 357 833 q 313 925 313 886 q 338 988 313 961 q 403 1014 363 1014 q 473 981 446 1014 q 500 886 500 949 q 451 751 500 814 q 319 663 401 688 l 313 690 z "},"„":{"ha":299,"x_min":56,"x_max":243,"o":"m 146 167 q 216 134 189 167 q 243 39 243 101 q 194 -97 243 -33 q 63 -185 144 -160 l 56 -157 q 181 0 181 -97 q 139 -14 165 -14 q 78 13 100 -14 q 56 78 56 39 q 81 140 56 114 q 146 167 106 167 z "},"†":{"ha":633,"x_min":56,"x_max":578,"o":"m 439 781 l 578 781 l 578 697 l 439 697 q 347 708 407 697 q 358 617 358 649 l 358 157 l 275 157 l 275 617 q 286 708 275 649 q 194 697 226 697 l 56 697 l 56 781 l 194 781 q 286 769 226 781 q 275 861 275 829 l 275 1000 l 358 1000 l 358 861 q 347 769 358 829 q 439 781 407 781 z "},"‡":{"ha":633,"x_min":56,"x_max":578,"o":"m 578 697 l 439 697 q 347 708 407 697 q 358 617 358 649 l 358 540 q 347 449 358 508 q 439 460 407 460 l 578 460 l 578 376 l 439 376 q 347 388 407 376 q 358 296 358 328 l 358 157 l 275 157 l 275 296 q 286 388 275 328 q 194 376 226 376 l 56 376 l 56 460 l 194 460 q 286 449 226 460 q 275 540 275 508 l 275 617 q 286 708 275 649 q 194 697 226 697 l 56 697 l 56 781 l 194 781 q 286 769 226 781 q 275 861 275 829 l 275 1000 l 358 1000 l 358 861 q 347 769 358 829 q 439 781 407 781 l 578 781 l 578 697 z "},"•":{"ha":406,"x_min":56,"x_max":350,"o":"m 203 200 q 96 242 136 200 q 56 349 56 285 q 97 452 56 410 q 203 494 138 494 q 309 451 268 494 q 350 349 350 408 q 309 242 350 285 q 203 200 268 200 z "},"…":{"ha":792,"x_min":56,"x_max":736,"o":"m 211 13 q 199 -1 211 13 q 146 -14 186 -14 q 81 13 106 -14 q 56 78 56 39 q 81 140 56 114 q 146 167 106 167 q 210 140 185 167 q 236 78 236 114 q 211 13 236 39 m 461 13 q 449 -1 461 13 q 396 -14 436 -14 q 331 13 356 -14 q 306 78 306 39 q 331 140 306 114 q 396 167 356 167 q 460 140 435 167 q 486 78 486 114 q 461 13 486 39 m 711 13 q 699 -1 711 13 q 646 -14 686 -14 q 581 13 606 -14 q 556 78 556 39 q 581 140 556 114 q 646 167 606 167 q 710 140 685 167 q 736 78 736 114 q 711 13 736 39 z "},"‰":{"ha":1736,"x_min":56,"x_max":1681,"o":"m 356 918 q 442 908 408 904 q 506 927 475 913 q 558 963 536 942 q 608 1000 579 983 q 667 1027 638 1017 q 745 1032 697 1038 q 853 1000 793 1026 l 424 -83 l 364 -83 l 793 1000 q 717 971 756 1000 q 649 913 679 942 q 560 868 619 883 q 422 881 501 853 q 506 682 506 810 q 447 508 506 582 q 279 433 388 433 q 113 508 171 433 q 56 682 56 582 q 113 856 56 782 q 279 931 171 931 q 356 918 322 931 m 281 489 q 328 501 308 489 q 358 528 347 513 q 374 572 368 543 q 380 624 379 601 q 381 682 381 646 q 380 740 381 719 q 374 791 379 761 q 358 836 368 821 q 329 863 349 851 q 281 875 310 875 q 232 863 251 875 q 203 836 213 851 q 188 791 193 821 q 181 740 182 761 q 181 682 181 719 q 181 624 181 644 q 188 573 182 603 q 203 528 193 543 q 232 501 213 513 q 281 489 251 489 m 769 409 q 798 446 769 409 q 935 483 826 483 q 1102 409 1043 483 q 1161 235 1161 335 q 1102 60 1161 135 q 935 -14 1043 -14 q 769 60 826 -14 q 711 235 711 135 q 769 409 711 335 m 1288 409 q 1317 446 1288 409 q 1454 483 1346 483 q 1622 409 1563 483 q 1681 235 1681 335 q 1622 60 1681 135 q 1454 -14 1563 -14 q 1288 60 1346 -14 q 1231 235 1231 135 q 1288 409 1231 335 m 936 42 q 983 53 964 42 q 1013 81 1003 65 q 1029 125 1024 96 q 1035 176 1035 154 q 1036 235 1036 199 q 1035 293 1036 272 q 1029 344 1035 314 q 1014 389 1024 374 q 985 416 1004 404 q 936 428 965 428 q 888 416 907 428 q 858 389 868 404 q 843 344 849 374 q 837 293 838 314 q 836 235 836 272 q 837 176 836 197 q 843 126 838 156 q 858 81 849 96 q 888 53 868 65 q 936 42 907 42 m 1456 42 q 1503 53 1483 42 q 1533 81 1522 65 q 1549 125 1543 96 q 1555 176 1554 154 q 1556 235 1556 199 q 1555 293 1556 272 q 1549 344 1554 314 q 1533 389 1543 374 q 1504 416 1524 404 q 1456 428 1485 428 q 1407 416 1426 428 q 1378 389 1388 404 q 1363 344 1368 374 q 1356 293 1357 314 q 1356 235 1356 272 q 1356 176 1356 197 q 1363 126 1357 156 q 1378 81 1368 96 q 1407 53 1388 65 q 1456 42 1426 42 z "},"‹":{"ha":406,"x_min":56,"x_max":367,"o":"m 218 660 l 343 660 q 314 450 367 546 q 139 354 261 354 l 139 340 q 314 244 261 340 q 343 35 367 149 l 218 35 q 232 117 228 82 q 231 192 236 151 q 209 259 226 233 q 153 302 192 285 q 56 319 114 319 l 56 375 q 153 392 114 375 q 209 435 192 410 q 231 502 226 461 q 232 578 236 543 q 218 660 228 613 z "},"›":{"ha":406,"x_min":39,"x_max":350,"o":"m 188 660 q 174 578 178 613 q 174 502 169 543 q 197 435 179 461 q 253 392 214 410 q 350 375 292 375 l 350 319 q 253 302 292 319 q 197 259 214 285 q 174 192 179 233 q 174 117 169 151 q 188 35 178 82 l 63 35 q 92 244 39 149 q 267 340 144 340 l 267 354 q 92 450 144 354 q 63 660 39 546 l 188 660 z "},"⁄":{"ha":600,"x_min":56,"x_max":544,"o":"m 544 1000 l 115 -83 l 56 -83 l 485 1000 l 544 1000 z "},"€":{"ha":1017,"x_min":56,"x_max":967,"o":"m 836 306 l 961 333 q 868 79 967 172 q 597 -14 769 -14 q 321 77 425 -14 q 189 338 217 168 l 56 338 l 56 393 l 183 393 q 181 458 181 435 l 181 463 l 83 463 l 83 518 l 183 518 q 310 823 197 715 q 611 931 422 931 q 869 840 772 931 q 961 597 967 749 l 836 625 q 781 807 846 739 q 611 875 717 875 q 401 780 482 875 q 308 518 321 685 l 633 518 l 633 463 l 306 463 l 306 458 q 308 393 306 435 l 606 393 l 606 338 l 314 338 q 409 119 336 196 q 597 42 482 42 q 779 112 713 42 q 836 306 846 182 z "},"™":{"ha":929,"x_min":56,"x_max":874,"o":"m 365 1000 l 375 922 l 364 921 q 348 966 360 954 q 314 978 336 978 l 240 978 l 240 686 q 268 644 240 644 l 268 633 l 163 633 l 163 644 q 190 686 190 644 l 190 978 l 115 978 q 82 966 93 978 q 67 921 71 954 l 56 922 l 65 1000 l 365 1000 m 874 989 q 846 947 846 989 l 846 686 q 874 644 846 644 l 874 633 l 768 633 l 768 644 q 796 686 796 644 l 796 944 l 654 633 l 600 633 l 450 944 l 450 686 q 478 644 450 644 l 478 633 l 400 633 l 400 644 q 428 686 428 644 l 428 947 q 400 989 428 989 l 400 1000 l 433 1000 q 474 990 461 1000 q 506 944 488 981 l 642 660 l 772 944 q 840 1000 796 997 l 874 1000 l 874 989 z "},"←":{"ha":650,"x_min":56,"x_max":594,"o":"m 594 306 l 285 306 q 215 313 249 306 q 160 319 181 319 q 374 140 306 247 l 318 78 q 56 306 224 211 l 56 389 q 318 617 224 483 l 374 554 q 160 375 306 447 q 215 382 181 375 q 285 389 249 389 l 594 389 l 594 306 z "},"↑":{"ha":650,"x_min":56,"x_max":594,"o":"m 367 617 q 594 354 461 449 l 532 299 q 353 513 425 367 q 360 458 353 492 q 367 388 367 424 l 367 78 l 283 78 l 283 388 q 290 458 283 424 q 297 513 297 492 q 118 299 225 367 l 56 354 q 283 617 189 449 l 367 617 z "},"→":{"ha":650,"x_min":56,"x_max":594,"o":"m 332 617 q 594 389 426 483 l 594 306 q 332 78 426 211 l 276 140 q 490 319 344 247 q 435 313 469 319 q 365 306 401 306 l 56 306 l 56 389 l 365 389 q 435 382 401 389 q 490 375 469 375 q 276 554 344 447 l 332 617 z "},"↓":{"ha":650,"x_min":56,"x_max":594,"o":"m 532 396 l 594 340 q 367 78 461 246 l 283 78 q 56 340 189 246 l 118 396 q 297 182 225 328 q 290 237 297 203 q 283 307 283 271 l 283 617 l 367 617 l 367 307 q 360 237 367 271 q 353 182 353 203 q 532 396 425 328 z "},"↔":{"ha":972,"x_min":56,"x_max":917,"o":"m 654 617 q 917 389 749 483 l 917 306 q 654 78 749 211 l 599 140 q 813 319 667 247 q 758 313 792 319 q 688 306 724 306 l 285 306 q 215 313 249 306 q 160 319 181 319 q 374 140 306 247 l 318 78 q 56 306 224 211 l 56 389 q 318 617 224 483 l 374 554 q 160 375 306 447 q 215 382 181 375 q 285 389 249 389 l 688 389 q 758 382 724 389 q 813 375 792 375 q 599 554 667 447 l 654 617 z "},"↕":{"ha":650,"x_min":56,"x_max":594,"o":"m 353 21 q 532 235 425 167 l 594 179 q 367 -83 461 85 l 283 -83 q 56 179 189 85 l 118 235 q 297 21 225 167 q 290 76 297 42 q 283 146 283 110 l 283 549 q 290 619 283 585 q 297 674 297 653 q 118 460 225 528 l 56 515 q 283 778 189 610 l 367 778 q 594 515 461 610 l 532 460 q 353 674 425 528 q 360 619 353 653 q 367 549 367 585 l 367 146 q 360 76 367 110 q 353 21 353 42 z "},"↖":{"ha":551,"x_min":56,"x_max":496,"o":"m 276 406 l 496 186 l 436 128 l 218 347 q 172 401 192 372 q 139 444 153 431 q 164 167 190 293 l 81 163 q 56 508 107 326 l 114 568 q 461 543 301 515 l 456 460 q 178 485 335 432 q 222 450 193 469 q 276 406 251 431 z "},"↗":{"ha":551,"x_min":56,"x_max":496,"o":"m 496 508 q 471 163 444 326 l 388 167 q 413 444 361 293 q 379 401 399 431 q 333 347 360 372 l 115 128 l 56 186 l 275 406 q 329 450 300 431 q 374 485 358 469 q 96 460 217 432 l 90 543 q 438 568 250 515 l 496 508 z "},"↘":{"ha":551,"x_min":56,"x_max":496,"o":"m 471 532 q 496 186 444 368 l 438 126 q 90 151 250 179 l 96 235 q 374 210 217 263 q 329 244 358 225 q 275 289 300 264 l 56 508 l 115 567 l 333 347 q 379 293 360 322 q 413 250 399 264 q 388 528 361 401 l 471 532 z "},"↙":{"ha":551,"x_min":56,"x_max":496,"o":"m 178 210 q 456 235 335 263 l 461 151 q 114 126 301 179 l 56 186 q 81 532 107 368 l 164 528 q 139 250 190 401 q 172 293 153 264 q 218 347 192 322 l 436 567 l 496 508 l 276 289 q 222 244 251 264 q 178 210 193 225 z "},"∂":{"ha":750,"x_min":56,"x_max":694,"o":"m 207 1000 q 694 440 694 910 q 678 283 694 357 q 626 138 663 208 q 521 27 590 68 q 354 -14 451 -14 q 208 14 269 -14 q 115 88 146 42 q 69 179 83 133 q 56 274 56 225 q 142 517 56 438 q 357 596 228 596 q 610 504 506 596 q 179 944 582 869 l 207 1000 m 357 42 q 611 446 611 42 q 363 540 497 540 q 201 476 264 540 q 139 293 139 411 q 357 42 139 42 z "},"∅":{"ha":833,"x_min":56,"x_max":778,"o":"m 692 585 q 778 347 778 483 q 676 91 778 196 q 417 -14 574 -14 q 178 71 278 -14 l 101 -6 l 64 32 l 140 108 q 56 347 56 208 q 158 603 56 499 q 417 708 260 708 q 654 622 557 708 l 732 700 l 769 663 l 692 585 m 139 347 q 200 168 139 244 l 594 563 q 417 625 521 625 q 217 544 296 625 q 139 347 139 464 m 417 69 q 616 150 538 69 q 694 347 694 231 q 632 525 694 451 l 238 131 q 417 69 314 69 z "},"∏":{"ha":811,"x_min":56,"x_max":756,"o":"m 686 -75 q 700 -155 686 -129 q 756 -181 714 -181 l 756 -208 l 533 -208 l 533 -181 q 589 -155 575 -181 q 603 -75 603 -129 l 603 944 l 208 944 l 208 -75 q 222 -155 208 -129 q 278 -181 236 -181 l 278 -208 l 56 -208 l 56 -181 q 111 -155 97 -181 q 125 -75 125 -129 l 125 1000 l 686 1000 l 686 -75 z "},"∑":{"ha":800,"x_min":56,"x_max":744,"o":"m 718 1 l 744 0 l 733 -150 l 728 -208 l 56 -208 l 56 -125 l 400 382 l 56 944 l 56 1000 l 703 1000 l 707 969 l 725 821 l 697 817 q 660 917 689 890 q 576 944 631 944 l 153 944 l 482 404 l 122 -125 l 601 -125 q 683 -99 656 -125 q 718 1 711 -72 z "},"−":{"ha":633,"x_min":56,"x_max":578,"o":"m 56 389 l 578 389 l 578 306 l 56 306 l 56 389 z "},"√":{"ha":825,"x_min":56,"x_max":769,"o":"m 713 1000 l 769 1000 l 471 -208 l 375 -208 l 158 254 l 56 254 l 56 310 l 224 310 l 424 -115 l 438 -115 l 713 1000 z "},"∞":{"ha":1117,"x_min":56,"x_max":1061,"o":"m 831 610 q 1006 533 950 610 q 1061 349 1061 456 q 1041 224 1061 281 q 967 127 1021 168 q 832 86 914 86 q 712 117 768 86 q 632 173 656 147 q 565 254 608 199 q 553 269 557 264 q 435 134 494 182 q 286 86 375 86 q 111 163 167 86 q 56 349 56 240 q 111 533 56 456 q 285 610 167 610 q 405 579 349 610 q 485 523 461 549 q 551 442 508 497 q 556 437 554 439 q 560 432 557 435 q 564 426 563 429 q 682 562 622 514 q 831 610 742 610 m 274 197 q 420 243 363 197 q 532 378 478 289 q 418 491 469 456 q 289 526 367 526 q 160 478 208 526 q 111 349 111 431 q 274 197 111 197 m 828 169 q 957 217 908 169 q 1006 349 1006 265 q 843 499 1006 499 q 697 453 754 499 q 585 318 639 407 q 699 205 647 240 q 828 169 750 169 z "},"∫":{"ha":553,"x_min":47,"x_max":506,"o":"m 396 931 q 330 867 350 931 q 310 701 310 803 q 319 477 311 600 q 328 231 326 354 q 319 7 329 108 q 266 -158 308 -94 q 149 -222 224 -222 q 92 -203 117 -222 q 57 -141 67 -183 q 74 -33 47 -99 l 129 -61 q 120 -110 114 -93 q 135 -133 126 -128 q 157 -139 144 -139 q 223 -75 203 -139 q 242 90 243 -11 q 234 315 242 192 q 225 560 226 438 q 234 785 224 683 q 287 950 244 886 q 404 1014 329 1014 q 461 994 436 1014 q 496 933 486 975 q 479 825 506 890 l 424 853 q 433 902 439 885 q 417 925 426 919 q 396 931 408 931 z "},"≈":{"ha":633,"x_min":42,"x_max":592,"o":"m 469 347 q 357 382 417 347 q 244 451 297 417 q 150 486 190 486 q 119 375 75 486 l 64 403 q 72 526 42 483 q 164 569 103 569 q 276 535 217 569 q 390 465 336 500 q 483 431 443 431 q 514 542 558 431 l 569 514 q 561 390 592 433 q 469 347 531 347 m 469 125 q 357 160 417 125 q 244 229 297 194 q 150 264 190 264 q 119 153 75 264 l 64 181 q 72 304 42 261 q 164 347 103 347 q 276 313 217 347 q 390 243 336 278 q 483 208 443 208 q 514 319 558 208 l 569 292 q 561 168 592 211 q 469 125 531 125 z "},"≠":{"ha":633,"x_min":56,"x_max":578,"o":"m 578 417 l 375 417 l 319 278 l 578 278 l 578 194 l 286 194 l 210 0 l 150 0 l 226 194 l 56 194 l 56 278 l 260 278 l 315 417 l 56 417 l 56 500 l 349 500 l 425 694 l 485 694 l 408 500 l 578 500 l 578 417 z "},"≤":{"ha":633,"x_min":56,"x_max":578,"o":"m 267 429 q 139 394 189 394 l 139 381 q 267 346 189 381 l 578 214 l 578 49 l 56 49 l 56 132 l 558 132 l 56 346 l 56 429 l 578 651 l 578 561 l 267 429 z "},"≥":{"ha":633,"x_min":56,"x_max":578,"o":"m 578 429 l 578 346 l 75 132 l 578 132 l 578 49 l 56 49 l 56 214 l 367 346 q 494 381 444 381 l 494 394 q 367 429 444 394 l 56 561 l 56 651 l 578 429 z "},"◊":{"ha":639,"x_min":56,"x_max":583,"o":"m 363 1000 l 583 478 l 363 -44 l 279 -44 l 56 478 l 279 1000 l 363 1000 m 363 167 l 494 478 l 363 789 q 326 917 329 868 l 314 917 q 279 789 314 869 l 146 478 l 279 167 q 314 39 314 86 l 326 39 q 363 167 329 88 z "}}}
